{"glyphs":{"0":{"ha":781,"x_min":68,"x_max":713,"o":"m 392 -11 q 217 39 290 -11 q 106 189 144 89 q 68 439 68 290 l 68 556 q 106 808 68 707 q 217 960 144 909 q 392 1010 290 1010 q 566 960 494 1010 q 675 808 637 909 q 713 556 713 707 l 713 439 q 675 189 713 290 q 566 39 637 89 q 392 -11 494 -11 m 392 100 q 500 136 455 100 q 568 244 545 172 q 591 425 591 316 l 591 572 q 568 754 591 682 q 500 863 545 827 q 392 899 455 899 q 283 863 328 899 q 214 755 238 827 q 190 572 190 682 l 190 425 q 214 245 190 317 q 282 137 237 173 q 392 100 328 100 m 172 240 l 121 331 l 610 760 l 659 670 l 172 240 z "},"1":{"ha":781,"x_min":133,"x_max":670,"o":"m 362 0 l 362 883 l 387 857 l 155 749 l 155 872 l 439 1000 l 481 1000 l 481 0 l 362 0 m 133 0 l 133 111 l 670 111 l 670 0 l 133 0 z "},"2":{"ha":781,"x_min":77,"x_max":705,"o":"m 77 0 l 77 37 l 358 384 q 461 512 414 453 q 536 626 508 572 q 564 734 564 680 q 542 820 564 783 q 480 878 519 857 q 391 899 441 899 q 294 875 337 899 q 227 809 252 851 q 202 711 202 766 l 80 711 q 121 865 81 798 q 231 972 161 933 q 389 1010 301 1010 q 540 975 473 1010 q 645 877 606 939 q 684 734 684 814 q 656 607 684 667 q 581 482 629 547 q 468 339 532 418 l 285 114 l 285 109 l 430 111 l 705 111 l 705 0 l 77 0 z "},"3":{"ha":781,"x_min":69,"x_max":712,"o":"m 391 -11 q 230 26 303 -11 q 113 128 157 62 q 69 281 69 193 l 191 283 q 218 188 191 229 q 290 123 245 146 q 389 100 334 100 q 491 125 446 100 q 563 191 536 149 q 590 286 590 233 q 563 380 590 338 q 483 445 535 421 q 355 469 431 469 l 316 469 l 317 575 l 363 575 q 461 599 419 575 q 526 663 503 623 q 549 750 549 703 q 529 830 549 797 q 473 881 509 863 q 391 899 437 899 q 304 880 342 899 q 246 827 267 861 q 225 747 225 793 l 106 747 q 141 881 106 821 q 240 976 177 941 q 388 1010 304 1010 q 532 979 468 1010 q 635 890 597 947 q 673 758 673 833 q 637 628 673 685 q 543 540 602 572 q 415 511 484 509 l 415 538 q 566 509 499 542 q 673 416 633 476 q 712 279 712 357 q 669 132 712 198 q 554 28 627 66 q 391 -11 481 -11 z "},"4":{"ha":781,"x_min":39,"x_max":743,"o":"m 499 0 l 499 623 l 505 793 l 499 793 l 423 671 l 195 331 l 195 326 l 743 326 l 743 220 l 39 220 l 39 289 l 515 1000 l 621 1000 l 621 0 l 499 0 z "},"5":{"ha":781,"x_min":77,"x_max":705,"o":"m 387 -11 q 260 13 321 -11 q 151 82 199 37 q 77 191 103 127 l 186 240 q 234 166 203 197 q 306 118 265 135 q 391 100 346 100 q 492 128 448 100 q 561 204 536 156 q 586 313 586 252 q 561 421 586 374 q 490 495 535 468 q 388 522 446 522 q 321 513 354 522 q 261 487 288 504 q 222 448 235 471 l 129 464 l 129 1000 l 635 1000 l 635 888 l 248 888 l 248 519 l 218 567 q 284 611 236 589 q 400 633 332 633 q 556 592 487 633 q 665 478 625 550 q 705 313 705 406 q 662 143 705 216 q 546 30 618 71 q 387 -11 474 -11 z "},"6":{"ha":781,"x_min":57,"x_max":724,"o":"m 391 -11 q 220 32 295 -11 q 101 146 144 75 q 57 305 57 218 q 69 394 57 349 q 102 484 81 439 q 153 570 124 528 l 454 1000 l 594 1000 l 296 581 l 267 586 q 332 622 294 610 q 410 633 370 633 q 566 592 494 633 q 681 479 637 551 q 724 313 724 407 q 680 147 724 220 q 561 32 636 74 q 391 -11 485 -11 m 392 100 q 499 129 452 100 q 575 205 547 157 q 604 313 604 253 q 576 422 604 375 q 500 496 548 469 q 392 522 452 522 q 284 496 332 522 q 207 424 235 471 q 178 313 178 376 q 206 203 178 252 q 282 128 234 155 q 392 100 331 100 z "},"7":{"ha":781,"x_min":50,"x_max":731,"o":"m 180 0 l 570 883 l 570 888 l 50 888 l 50 1000 l 731 1000 l 731 970 l 311 0 l 180 0 z "},"8":{"ha":781,"x_min":57,"x_max":724,"o":"m 391 -11 q 222 28 298 -11 q 102 133 146 66 q 57 281 57 199 q 102 428 57 363 q 222 532 146 494 q 391 570 298 570 q 561 532 485 570 q 680 428 636 494 q 724 281 724 363 q 680 133 724 199 q 561 28 636 66 q 391 -11 485 -11 m 391 100 q 497 124 449 100 q 575 189 546 148 q 604 283 604 231 q 575 378 604 336 q 499 447 547 421 q 391 472 451 472 q 283 447 331 472 q 206 378 235 421 q 178 282 178 335 q 207 188 178 229 q 284 123 236 146 q 391 100 333 100 m 389 491 q 250 526 313 491 q 147 620 186 561 q 109 753 109 680 q 146 883 109 825 q 247 976 183 941 q 391 1010 311 1010 q 534 977 471 1011 q 634 884 597 943 q 671 751 671 825 q 632 615 671 674 q 528 524 593 557 q 389 491 464 491 m 391 583 q 475 605 437 583 q 535 665 513 627 q 557 747 557 702 q 535 826 557 792 q 474 880 512 861 q 391 899 436 899 q 308 880 346 899 q 247 826 270 861 q 224 747 224 792 q 246 667 224 705 q 307 607 269 630 q 391 583 345 583 z "},"9":{"ha":781,"x_min":57,"x_max":724,"o":"m 391 1010 q 562 968 486 1010 q 681 853 637 925 q 724 694 724 781 q 712 605 724 650 q 679 516 701 560 q 628 430 657 471 l 327 0 l 187 0 l 486 419 l 514 414 q 450 378 488 389 q 372 366 412 366 q 215 407 287 366 q 100 520 144 448 q 57 686 57 593 q 101 852 57 779 q 221 968 145 926 q 391 1010 296 1010 m 389 899 q 282 871 330 899 q 206 795 234 843 q 178 686 178 747 q 205 577 178 625 q 281 504 233 530 q 389 477 329 477 q 497 504 449 477 q 575 576 546 530 q 604 686 604 623 q 575 796 604 748 q 499 872 547 844 q 389 899 450 899 z "},"A":{"ha":781,"x_min":8,"x_max":773,"o":"m 8 0 l 330 1000 l 452 1000 l 773 0 l 644 0 l 553 298 l 541 342 l 393 833 l 388 833 l 240 342 l 228 298 l 137 0 l 8 0 m 172 262 l 172 373 l 609 373 l 609 262 l 172 262 z "},"Á":{"ha":781,"x_min":8,"x_max":773,"o":"m 8 0 l 330 1000 l 452 1000 l 773 0 l 644 0 l 553 298 l 541 342 l 393 833 l 388 833 l 240 342 l 228 298 l 137 0 l 8 0 m 172 262 l 172 373 l 609 373 l 609 262 l 172 262 m 391 1053 l 336 1111 l 538 1306 l 600 1230 l 391 1053 z "},"Ă":{"ha":781,"x_min":8,"x_max":773,"o":"m 8 0 l 330 1000 l 452 1000 l 773 0 l 644 0 l 553 298 l 541 342 l 393 833 l 388 833 l 240 342 l 228 298 l 137 0 l 8 0 m 172 262 l 172 373 l 609 373 l 609 262 l 172 262 m 391 1058 q 283 1081 332 1058 q 204 1146 234 1104 q 175 1245 175 1188 l 252 1245 q 293 1163 252 1192 q 391 1134 334 1134 q 490 1163 449 1134 q 530 1245 530 1192 l 608 1245 q 581 1146 610 1188 q 502 1081 552 1104 q 391 1058 452 1058 z "},"Ắ":{"ha":781,"x_min":8,"x_max":773,"o":"m 8 0 l 330 1000 l 452 1000 l 773 0 l 644 0 l 553 298 l 541 342 l 393 833 l 388 833 l 240 342 l 228 298 l 137 0 l 8 0 m 172 262 l 172 373 l 609 373 l 609 262 l 172 262 m 372 1195 l 323 1256 l 526 1447 l 582 1373 l 372 1195 m 391 1058 q 279 1082 328 1058 q 202 1149 230 1107 q 174 1246 174 1192 l 248 1246 q 289 1162 248 1195 q 391 1128 329 1128 q 492 1162 452 1128 q 532 1246 532 1195 l 608 1246 q 579 1149 608 1192 q 503 1082 551 1107 q 391 1058 454 1058 z "},"Ặ":{"ha":781,"x_min":8,"x_max":773,"o":"m 8 0 l 330 1000 l 452 1000 l 773 0 l 644 0 l 553 298 l 541 342 l 393 833 l 388 833 l 240 342 l 228 298 l 137 0 l 8 0 m 172 262 l 172 373 l 609 373 l 609 262 l 172 262 m 389 -267 q 327 -242 352 -267 q 301 -179 301 -216 q 327 -116 301 -142 q 389 -91 352 -91 q 452 -116 427 -91 q 477 -179 477 -142 q 452 -242 477 -216 q 389 -267 427 -267 m 391 1058 q 283 1081 332 1058 q 204 1146 234 1104 q 175 1245 175 1188 l 252 1245 q 293 1163 252 1192 q 391 1134 334 1134 q 490 1163 449 1134 q 530 1245 530 1192 l 608 1245 q 581 1146 610 1188 q 502 1081 552 1104 q 391 1058 452 1058 z "},"Ằ":{"ha":781,"x_min":8,"x_max":773,"o":"m 8 0 l 330 1000 l 452 1000 l 773 0 l 644 0 l 553 298 l 541 342 l 393 833 l 388 833 l 240 342 l 228 298 l 137 0 l 8 0 m 172 262 l 172 373 l 609 373 l 609 262 l 172 262 m 410 1195 l 199 1373 l 255 1447 l 458 1256 l 410 1195 m 391 1058 q 279 1082 328 1058 q 202 1149 230 1107 q 174 1246 174 1192 l 250 1246 q 290 1162 250 1195 q 391 1128 330 1128 q 493 1162 453 1128 q 533 1246 533 1195 l 608 1246 q 579 1149 608 1192 q 503 1082 551 1107 q 391 1058 454 1058 z "},"Ẳ":{"ha":781,"x_min":8,"x_max":773,"o":"m 8 0 l 330 1000 l 452 1000 l 773 0 l 644 0 l 553 298 l 541 342 l 393 833 l 388 833 l 240 342 l 228 298 l 137 0 l 8 0 m 172 262 l 172 373 l 609 373 l 609 262 l 172 262 m 391 1058 q 279 1082 328 1058 q 202 1149 230 1107 q 174 1246 174 1192 l 250 1246 q 290 1162 250 1195 q 391 1128 330 1128 q 493 1162 453 1128 q 533 1246 533 1195 l 608 1246 q 579 1149 608 1192 q 503 1082 551 1107 q 391 1058 454 1058 m 411 1194 l 363 1244 q 405 1278 388 1257 q 422 1321 422 1298 q 405 1358 422 1345 q 355 1371 387 1371 q 319 1368 341 1371 q 282 1358 298 1364 l 282 1435 q 323 1445 298 1441 q 365 1449 348 1449 q 463 1419 427 1449 q 499 1335 499 1390 q 473 1250 499 1289 q 411 1194 447 1210 z "},"Ẵ":{"ha":781,"x_min":8,"x_max":773,"o":"m 8 0 l 330 1000 l 452 1000 l 773 0 l 644 0 l 553 298 l 541 342 l 393 833 l 388 833 l 240 342 l 228 298 l 137 0 l 8 0 m 172 262 l 172 373 l 609 373 l 609 262 l 172 262 m 292 1291 q 327 1407 292 1364 q 422 1450 363 1450 q 479 1438 456 1450 q 520 1411 503 1427 q 554 1384 538 1396 q 591 1373 571 1373 q 633 1393 620 1373 q 647 1450 647 1413 l 727 1450 q 713 1369 729 1404 q 668 1312 698 1333 q 597 1291 638 1291 q 543 1303 566 1291 q 502 1332 520 1316 q 466 1360 484 1348 q 427 1373 449 1373 q 387 1352 402 1373 q 372 1291 372 1332 l 292 1291 m 510 1058 q 398 1082 448 1058 q 321 1149 349 1107 q 293 1246 293 1192 l 369 1246 q 409 1162 369 1195 q 510 1128 449 1128 q 612 1162 572 1128 q 652 1246 652 1195 l 727 1246 q 699 1149 727 1192 q 622 1082 671 1107 q 510 1058 573 1058 z "},"Ǎ":{"ha":781,"x_min":8,"x_max":773,"o":"m 8 0 l 330 1000 l 452 1000 l 773 0 l 644 0 l 553 298 l 541 342 l 393 833 l 388 833 l 240 342 l 228 298 l 137 0 l 8 0 m 172 262 l 172 373 l 609 373 l 609 262 l 172 262 m 225 1264 l 388 1134 l 393 1134 l 556 1264 l 614 1200 l 407 1047 l 376 1047 l 167 1200 l 225 1264 z "},"Â":{"ha":781,"x_min":8,"x_max":773,"o":"m 8 0 l 330 1000 l 452 1000 l 773 0 l 644 0 l 553 298 l 541 342 l 393 833 l 388 833 l 240 342 l 228 298 l 137 0 l 8 0 m 172 262 l 172 373 l 609 373 l 609 262 l 172 262 m 228 1053 l 170 1116 l 378 1270 l 410 1270 l 617 1116 l 559 1053 l 396 1183 l 391 1183 l 228 1053 z "},"Ấ":{"ha":781,"x_min":8,"x_max":774,"o":"m 8 0 l 330 1000 l 452 1000 l 773 0 l 644 0 l 553 298 l 541 342 l 393 833 l 388 833 l 240 342 l 228 298 l 137 0 l 8 0 m 172 262 l 172 373 l 609 373 l 609 262 l 172 262 m 579 1203 l 522 1246 l 712 1444 l 774 1367 l 579 1203 m 225 1044 l 167 1105 l 376 1261 l 407 1261 l 614 1105 l 556 1044 l 393 1172 l 388 1172 l 225 1044 z "},"Ậ":{"ha":781,"x_min":8,"x_max":773,"o":"m 8 0 l 330 1000 l 452 1000 l 773 0 l 644 0 l 553 298 l 541 342 l 393 833 l 388 833 l 240 342 l 228 298 l 137 0 l 8 0 m 172 262 l 172 373 l 609 373 l 609 262 l 172 262 m 389 -267 q 327 -242 352 -267 q 301 -179 301 -216 q 327 -116 301 -142 q 389 -91 352 -91 q 452 -116 427 -91 q 477 -179 477 -142 q 452 -242 477 -216 q 389 -267 427 -267 m 228 1053 l 170 1116 l 378 1270 l 410 1270 l 617 1116 l 559 1053 l 396 1183 l 391 1183 l 228 1053 z "},"Ầ":{"ha":781,"x_min":7,"x_max":773,"o":"m 8 0 l 330 1000 l 452 1000 l 773 0 l 644 0 l 553 298 l 541 342 l 393 833 l 388 833 l 240 342 l 228 298 l 137 0 l 8 0 m 172 262 l 172 373 l 609 373 l 609 262 l 172 262 m 202 1203 l 7 1367 l 69 1444 l 259 1246 l 202 1203 m 556 1044 l 393 1172 l 388 1172 l 225 1044 l 167 1105 l 374 1261 l 406 1261 l 614 1105 l 556 1044 z "},"Ẩ":{"ha":781,"x_min":8,"x_max":773,"o":"m 8 0 l 330 1000 l 452 1000 l 773 0 l 644 0 l 553 298 l 541 342 l 393 833 l 388 833 l 240 342 l 228 298 l 137 0 l 8 0 m 172 262 l 172 373 l 609 373 l 609 262 l 172 262 m 566 1200 l 514 1238 q 550 1278 536 1257 q 564 1317 564 1299 q 547 1356 564 1341 q 498 1370 530 1370 q 461 1366 481 1370 q 426 1355 442 1362 l 426 1434 q 465 1443 440 1440 q 511 1447 490 1447 q 606 1419 570 1447 q 643 1333 643 1390 q 630 1278 643 1304 q 600 1233 618 1253 q 566 1200 582 1213 m 224 1044 l 165 1105 l 374 1261 l 406 1261 l 613 1105 l 555 1044 l 392 1172 l 387 1172 l 224 1044 z "},"Ẫ":{"ha":781,"x_min":8,"x_max":773,"o":"m 8 0 l 330 1000 l 452 1000 l 773 0 l 644 0 l 553 298 l 541 342 l 393 833 l 388 833 l 240 342 l 228 298 l 137 0 l 8 0 m 172 262 l 172 373 l 609 373 l 609 262 l 172 262 m 170 1291 q 205 1407 170 1364 q 300 1450 241 1450 q 357 1438 334 1450 q 397 1411 380 1427 q 431 1384 414 1396 q 469 1373 448 1373 q 510 1393 496 1373 q 525 1450 525 1413 l 606 1450 q 593 1369 608 1404 q 550 1312 578 1333 q 483 1291 522 1291 q 427 1303 450 1291 q 386 1332 404 1316 q 351 1360 368 1348 q 312 1373 334 1373 q 268 1353 286 1373 q 250 1291 251 1333 l 170 1291 m 222 1044 l 164 1105 l 373 1261 l 404 1261 l 612 1105 l 553 1044 l 391 1172 l 385 1172 l 222 1044 z "},"Ȁ":{"ha":781,"x_min":8,"x_max":773,"o":"m 8 0 l 330 1000 l 452 1000 l 773 0 l 644 0 l 553 298 l 541 342 l 393 833 l 388 833 l 240 342 l 228 298 l 137 0 l 8 0 m 172 262 l 172 373 l 609 373 l 609 262 l 172 262 m 247 1076 l 96 1291 l 183 1339 l 309 1105 l 247 1076 m 467 1076 l 323 1291 l 408 1339 l 533 1105 l 467 1076 z "},"Ä":{"ha":781,"x_min":8,"x_max":773,"o":"m 8 0 l 330 1000 l 452 1000 l 773 0 l 644 0 l 553 298 l 541 342 l 393 833 l 388 833 l 240 342 l 228 298 l 137 0 l 8 0 m 172 262 l 172 373 l 609 373 l 609 262 l 172 262 m 537 1072 q 477 1096 502 1072 q 453 1156 453 1120 q 477 1216 453 1192 q 537 1240 502 1240 q 597 1216 573 1240 q 621 1156 621 1192 q 597 1096 621 1120 q 537 1072 573 1072 m 248 1072 q 188 1096 213 1072 q 163 1156 163 1120 q 188 1216 163 1192 q 248 1240 213 1240 q 308 1216 284 1240 q 331 1156 331 1192 q 308 1096 331 1120 q 248 1072 284 1072 z "},"Ȧ":{"ha":781,"x_min":8,"x_max":773,"o":"m 8 0 l 330 1000 l 452 1000 l 773 0 l 644 0 l 553 298 l 541 342 l 393 833 l 388 833 l 240 342 l 228 298 l 137 0 l 8 0 m 172 262 l 172 373 l 609 373 l 609 262 l 172 262 m 391 1070 q 328 1096 353 1070 q 302 1158 302 1121 q 328 1221 302 1196 q 391 1246 353 1246 q 453 1221 428 1246 q 479 1158 479 1196 q 453 1096 479 1121 q 391 1070 428 1070 z "},"Ạ":{"ha":781,"x_min":8,"x_max":773,"o":"m 8 0 l 330 1000 l 452 1000 l 773 0 l 644 0 l 553 298 l 541 342 l 393 833 l 388 833 l 240 342 l 228 298 l 137 0 l 8 0 m 172 262 l 172 373 l 609 373 l 609 262 l 172 262 m 389 -267 q 327 -242 352 -267 q 301 -179 301 -216 q 327 -116 301 -142 q 389 -91 352 -91 q 452 -116 427 -91 q 477 -179 477 -142 q 452 -242 477 -216 q 389 -267 427 -267 z "},"À":{"ha":781,"x_min":8,"x_max":773,"o":"m 8 0 l 330 1000 l 452 1000 l 773 0 l 644 0 l 553 298 l 541 342 l 393 833 l 388 833 l 240 342 l 228 298 l 137 0 l 8 0 m 172 262 l 172 373 l 609 373 l 609 262 l 172 262 m 391 1053 l 182 1230 l 243 1306 l 445 1111 l 391 1053 z "},"Ả":{"ha":781,"x_min":8,"x_max":773,"o":"m 8 0 l 330 1000 l 452 1000 l 773 0 l 644 0 l 553 298 l 541 342 l 393 833 l 388 833 l 240 342 l 228 298 l 137 0 l 8 0 m 172 262 l 172 373 l 609 373 l 609 262 l 172 262 m 410 1078 l 362 1128 q 404 1162 387 1142 q 420 1206 420 1183 q 403 1243 420 1230 q 354 1256 386 1256 q 318 1252 340 1256 q 281 1242 296 1249 l 281 1320 q 321 1330 296 1326 q 363 1333 347 1333 q 462 1304 426 1333 q 498 1219 498 1274 q 472 1134 498 1174 q 410 1078 446 1095 z "},"Ȃ":{"ha":781,"x_min":8,"x_max":773,"o":"m 8 0 l 330 1000 l 452 1000 l 773 0 l 644 0 l 553 298 l 541 342 l 393 833 l 388 833 l 240 342 l 228 298 l 137 0 l 8 0 m 172 262 l 172 373 l 609 373 l 609 262 l 172 262 m 389 1251 q 500 1227 450 1251 q 579 1162 551 1204 q 606 1063 608 1120 l 529 1063 q 488 1146 529 1118 q 389 1175 448 1175 q 292 1146 332 1175 q 251 1063 251 1118 l 174 1063 q 203 1162 174 1120 q 282 1227 233 1204 q 389 1251 331 1251 z "},"Ā":{"ha":781,"x_min":8,"x_max":773,"o":"m 8 0 l 330 1000 l 452 1000 l 773 0 l 644 0 l 553 298 l 541 342 l 393 833 l 388 833 l 240 342 l 228 298 l 137 0 l 8 0 m 172 262 l 172 373 l 609 373 l 609 262 l 172 262 m 148 1111 l 148 1198 l 633 1198 l 633 1111 l 148 1111 z "},"Ą":{"ha":781,"x_min":8,"x_max":791,"o":"m 8 0 l 330 1000 l 452 1000 l 773 0 l 644 0 l 553 298 l 541 342 l 393 833 l 388 833 l 240 342 l 228 298 l 137 0 l 8 0 m 172 262 l 172 373 l 609 373 l 609 262 l 172 262 m 694 -278 q 610 -245 643 -278 q 576 -161 576 -213 q 613 -66 576 -109 q 708 24 650 -23 l 773 0 q 719 -50 745 -26 q 674 -98 692 -74 q 656 -151 656 -123 q 673 -189 656 -175 q 715 -203 690 -203 q 758 -195 735 -203 q 791 -178 780 -186 l 791 -252 q 747 -271 776 -263 q 694 -278 718 -278 z "},"Å":{"ha":781,"x_min":8,"x_max":773,"o":"m 8 0 l 330 1000 l 452 1000 l 773 0 l 644 0 l 553 298 l 541 342 l 393 833 l 388 833 l 240 342 l 228 298 l 137 0 l 8 0 m 172 262 l 172 373 l 609 373 l 609 262 l 172 262 m 391 1044 q 312 1065 347 1044 q 257 1120 277 1085 q 236 1198 236 1154 q 257 1277 236 1242 q 312 1332 277 1312 q 391 1352 347 1352 q 468 1332 433 1352 q 522 1277 502 1312 q 541 1198 541 1242 q 522 1120 541 1154 q 468 1065 502 1085 q 391 1044 433 1044 m 391 1119 q 446 1142 425 1119 q 467 1198 467 1164 q 446 1256 467 1234 q 391 1278 425 1278 q 335 1256 357 1278 q 312 1198 312 1234 q 335 1142 312 1164 q 391 1119 357 1119 z "},"Ǻ":{"ha":781,"x_min":8,"x_max":773,"o":"m 8 0 l 330 1000 l 452 1000 l 773 0 l 644 0 l 553 298 l 541 342 l 393 833 l 388 833 l 240 342 l 228 298 l 137 0 l 8 0 m 172 262 l 172 373 l 609 373 l 609 262 l 172 262 m 391 1035 q 289 1076 330 1035 q 248 1175 248 1117 q 289 1275 248 1236 q 391 1314 330 1314 q 492 1275 451 1314 q 533 1175 533 1236 q 492 1076 533 1117 q 391 1035 452 1035 m 391 1100 q 445 1122 425 1100 q 465 1175 465 1144 q 444 1229 465 1208 q 391 1249 423 1249 q 338 1229 360 1249 q 316 1175 316 1208 q 338 1122 316 1144 q 391 1100 360 1100 m 439 1344 l 385 1402 l 587 1598 l 648 1522 l 439 1344 z "},"Ã":{"ha":781,"x_min":8,"x_max":773,"o":"m 8 0 l 330 1000 l 452 1000 l 773 0 l 644 0 l 553 298 l 541 342 l 393 833 l 388 833 l 240 342 l 228 298 l 137 0 l 8 0 m 172 262 l 172 373 l 609 373 l 609 262 l 172 262 m 172 1078 q 207 1194 172 1149 q 300 1238 242 1238 q 358 1226 335 1238 q 399 1197 382 1213 q 433 1168 416 1181 q 469 1156 449 1156 q 513 1180 498 1156 q 528 1238 528 1205 l 608 1238 q 574 1124 609 1171 q 477 1078 538 1078 q 422 1091 445 1078 q 380 1120 399 1103 q 345 1148 362 1136 q 307 1161 328 1161 q 266 1138 280 1161 q 252 1078 252 1115 l 172 1078 z "},"Æ":{"ha":781,"x_min":5,"x_max":760,"o":"m 5 0 l 292 1000 l 415 1000 l 415 883 l 368 883 l 220 349 l 210 307 l 126 0 l 5 0 m 165 262 l 165 373 l 465 373 l 465 262 l 165 262 m 410 0 l 397 328 l 397 354 l 376 1000 l 760 1000 l 760 888 l 490 888 l 517 111 l 760 111 l 760 0 l 410 0 m 492 453 l 486 564 l 731 564 l 731 453 l 492 453 z "},"Ǽ":{"ha":781,"x_min":5,"x_max":760,"o":"m 5 0 l 292 1000 l 415 1000 l 415 883 l 368 883 l 220 349 l 210 307 l 126 0 l 5 0 m 165 262 l 165 373 l 465 373 l 465 262 l 165 262 m 410 0 l 397 328 l 397 354 l 376 1000 l 760 1000 l 760 888 l 490 888 l 517 111 l 760 111 l 760 0 l 410 0 m 492 453 l 486 564 l 731 564 l 731 453 l 492 453 m 502 1053 l 448 1111 l 650 1306 l 711 1230 l 502 1053 z "},"B":{"ha":781,"x_min":87,"x_max":711,"o":"m 195 0 l 195 111 l 418 111 q 543 157 495 111 q 590 283 590 202 q 540 410 590 365 q 407 454 490 454 l 182 454 l 182 563 l 370 563 q 451 585 416 563 q 506 644 486 606 q 526 731 526 682 q 481 848 526 808 q 363 888 436 888 l 182 888 l 182 1000 l 359 1000 q 510 967 446 1000 q 609 878 574 935 q 644 747 644 821 q 625 643 644 692 q 572 559 605 594 q 500 509 540 524 l 502 538 q 612 486 566 522 q 685 397 659 450 q 711 275 711 344 q 674 133 711 195 q 571 35 637 71 q 416 0 505 0 l 195 0 m 87 0 l 87 1000 l 206 1000 l 206 0 l 87 0 z "},"C":{"ha":781,"x_min":62,"x_max":735,"o":"m 481 -11 q 262 54 356 -11 q 115 233 168 118 q 62 500 62 349 q 115 767 62 652 q 262 946 168 882 q 481 1010 356 1010 q 614 985 544 1010 q 732 917 685 959 l 688 808 q 601 873 657 846 q 483 899 544 899 q 326 849 393 899 q 221 710 258 799 q 184 503 184 621 q 222 293 184 384 q 327 151 259 202 q 484 100 394 100 q 601 128 543 100 q 690 199 658 156 l 735 92 q 616 18 686 47 q 481 -11 547 -11 z "},"Ć":{"ha":781,"x_min":62,"x_max":735,"o":"m 481 -11 q 262 54 356 -11 q 115 233 168 118 q 62 500 62 349 q 115 767 62 652 q 262 946 168 882 q 481 1010 356 1010 q 614 985 544 1010 q 732 917 685 959 l 688 808 q 601 873 657 846 q 483 899 544 899 q 326 849 393 899 q 221 710 258 799 q 184 503 184 621 q 222 293 184 384 q 327 151 259 202 q 484 100 394 100 q 601 128 543 100 q 690 199 658 156 l 735 92 q 616 18 686 47 q 481 -11 547 -11 m 471 1053 l 416 1111 l 618 1306 l 680 1230 l 471 1053 z "},"Č":{"ha":781,"x_min":62,"x_max":735,"o":"m 481 -11 q 262 54 356 -11 q 115 233 168 118 q 62 500 62 349 q 115 767 62 652 q 262 946 168 882 q 481 1010 356 1010 q 614 985 544 1010 q 732 917 685 959 l 688 808 q 601 873 657 846 q 483 899 544 899 q 326 849 393 899 q 221 710 258 799 q 184 503 184 621 q 222 293 184 384 q 327 151 259 202 q 484 100 394 100 q 601 128 543 100 q 690 199 658 156 l 735 92 q 616 18 686 47 q 481 -11 547 -11 m 305 1264 l 468 1134 l 473 1134 l 636 1264 l 694 1200 l 487 1047 l 456 1047 l 247 1200 l 305 1264 z "},"Ç":{"ha":781,"x_min":62,"x_max":735,"o":"m 481 -11 q 262 54 356 -11 q 115 233 168 118 q 62 500 62 349 q 115 767 62 652 q 262 946 168 882 q 481 1010 356 1010 q 614 985 544 1010 q 732 917 685 959 l 688 808 q 601 873 657 846 q 483 899 544 899 q 326 849 393 899 q 221 710 258 799 q 184 503 184 621 q 222 293 184 384 q 327 151 259 202 q 484 100 394 100 q 601 128 543 100 q 690 199 658 156 l 735 92 q 616 18 686 47 q 481 -11 547 -11 m 373 -316 l 373 -247 q 477 -234 441 -250 q 513 -183 513 -218 q 485 -142 513 -159 q 411 -125 458 -125 l 449 0 l 511 0 l 477 -111 l 467 -75 q 558 -115 527 -85 q 590 -191 590 -145 q 536 -283 590 -250 q 373 -316 482 -317 z "},"Ḉ":{"ha":781,"x_min":62,"x_max":735,"o":"m 481 -11 q 262 54 356 -11 q 115 233 168 118 q 62 500 62 349 q 115 767 62 652 q 262 946 168 882 q 481 1010 356 1010 q 614 985 544 1010 q 732 917 685 959 l 688 808 q 601 873 657 846 q 483 899 544 899 q 326 849 393 899 q 221 710 258 799 q 184 503 184 621 q 222 293 184 384 q 327 151 259 202 q 484 100 394 100 q 601 128 543 100 q 690 199 658 156 l 735 92 q 616 18 686 47 q 481 -11 547 -11 m 373 -316 l 373 -247 q 477 -234 441 -250 q 513 -183 513 -218 q 485 -142 513 -159 q 411 -125 458 -125 l 449 0 l 511 0 l 477 -111 l 467 -75 q 558 -115 527 -85 q 590 -191 590 -145 q 536 -283 590 -250 q 373 -316 482 -317 m 471 1053 l 416 1111 l 618 1306 l 680 1230 l 471 1053 z "},"Ĉ":{"ha":781,"x_min":62,"x_max":735,"o":"m 481 -11 q 262 54 356 -11 q 115 233 168 118 q 62 500 62 349 q 115 767 62 652 q 262 946 168 882 q 481 1010 356 1010 q 614 985 544 1010 q 732 917 685 959 l 688 808 q 601 873 657 846 q 483 899 544 899 q 326 849 393 899 q 221 710 258 799 q 184 503 184 621 q 222 293 184 384 q 327 151 259 202 q 484 100 394 100 q 601 128 543 100 q 690 199 658 156 l 735 92 q 616 18 686 47 q 481 -11 547 -11 m 308 1053 l 250 1116 l 458 1270 l 490 1270 l 697 1116 l 639 1053 l 476 1183 l 471 1183 l 308 1053 z "},"Ċ":{"ha":781,"x_min":62,"x_max":735,"o":"m 481 -11 q 262 54 356 -11 q 115 233 168 118 q 62 500 62 349 q 115 767 62 652 q 262 946 168 882 q 481 1010 356 1010 q 614 985 544 1010 q 732 917 685 959 l 688 808 q 601 873 657 846 q 483 899 544 899 q 326 849 393 899 q 221 710 258 799 q 184 503 184 621 q 222 293 184 384 q 327 151 259 202 q 484 100 394 100 q 601 128 543 100 q 690 199 658 156 l 735 92 q 616 18 686 47 q 481 -11 547 -11 m 471 1070 q 408 1096 433 1070 q 382 1158 382 1121 q 408 1221 382 1196 q 471 1246 433 1246 q 533 1221 508 1246 q 559 1158 559 1196 q 533 1096 559 1121 q 471 1070 508 1070 z "},"D":{"ha":781,"x_min":84,"x_max":735,"o":"m 84 0 l 84 1000 l 336 1000 q 543 938 452 1000 q 684 765 633 876 q 735 509 735 654 q 685 243 735 358 q 546 64 634 129 q 345 0 458 0 l 84 0 m 206 111 l 347 111 q 484 161 424 111 q 578 301 544 212 q 613 509 613 391 q 578 707 613 622 q 484 841 544 793 q 347 888 424 888 l 206 888 l 206 111 z "},"Ǆ":{"ha":781,"x_min":46,"x_max":746,"o":"m 46 0 l 46 1000 l 176 1000 q 346 871 286 1000 q 407 509 407 742 q 349 134 407 268 q 187 0 290 0 l 46 0 m 146 102 l 180 102 q 272 209 237 102 q 307 507 307 316 q 272 794 307 690 q 180 898 237 898 l 146 898 l 146 102 m 415 0 l 415 28 l 627 895 l 627 898 l 435 898 l 435 1000 l 746 1000 l 746 966 l 537 104 l 537 102 l 739 102 l 739 0 l 415 0 m 576 1046 l 434 1200 l 492 1253 l 587 1139 l 591 1139 l 686 1253 l 745 1200 l 602 1046 l 576 1046 z "},"Ď":{"ha":781,"x_min":84,"x_max":735,"o":"m 84 0 l 84 1000 l 336 1000 q 543 938 452 1000 q 684 765 633 876 q 735 509 735 654 q 685 243 735 358 q 546 64 634 129 q 345 0 458 0 l 84 0 m 206 111 l 347 111 q 484 161 424 111 q 578 301 544 212 q 613 509 613 391 q 578 707 613 622 q 484 841 544 793 q 347 888 424 888 l 206 888 l 206 111 m 213 1264 l 376 1134 l 381 1134 l 544 1264 l 602 1200 l 395 1047 l 363 1047 l 155 1200 l 213 1264 z "},"Đ":{"ha":781,"x_min":8,"x_max":768,"o":"m 117 0 l 117 1000 l 369 1000 q 575 938 485 1000 q 716 765 665 876 q 768 509 768 654 q 717 243 768 358 q 578 64 667 129 q 377 0 490 0 l 117 0 m 239 111 l 380 111 q 516 161 456 111 q 611 301 576 212 q 646 509 646 391 q 611 707 646 622 q 516 841 576 793 q 380 888 456 888 l 239 888 l 239 111 m 8 467 l 8 562 l 380 562 l 380 467 l 8 467 z "},"Ḍ":{"ha":781,"x_min":84,"x_max":735,"o":"m 84 0 l 84 1000 l 336 1000 q 543 938 452 1000 q 684 765 633 876 q 735 509 735 654 q 685 243 735 358 q 546 64 634 129 q 345 0 458 0 l 84 0 m 206 111 l 347 111 q 484 161 424 111 q 578 301 544 212 q 613 509 613 391 q 578 707 613 622 q 484 841 544 793 q 347 888 424 888 l 206 888 l 206 111 m 378 -267 q 316 -242 341 -267 q 290 -179 290 -216 q 316 -116 290 -142 q 378 -91 341 -91 q 441 -116 416 -91 q 467 -179 467 -142 q 441 -242 467 -216 q 378 -267 416 -267 z "},"Ḏ":{"ha":781,"x_min":84,"x_max":735,"o":"m 84 0 l 84 1000 l 336 1000 q 543 938 452 1000 q 684 765 633 876 q 735 509 735 654 q 685 243 735 358 q 546 64 634 129 q 345 0 458 0 l 84 0 m 206 111 l 347 111 q 484 161 424 111 q 578 301 544 212 q 613 509 613 391 q 578 707 613 622 q 484 841 544 793 q 347 888 424 888 l 206 888 l 206 111 m 142 -270 l 142 -193 l 614 -193 l 614 -270 l 142 -270 z "},"ǅ":{"ha":781,"x_min":46,"x_max":753,"o":"m 46 0 l 46 1000 l 176 1000 q 346 871 286 1000 q 407 509 407 742 q 349 134 407 268 q 187 0 290 0 l 46 0 m 146 102 l 180 102 q 272 207 237 102 q 307 503 307 312 q 272 792 307 686 q 180 898 237 898 l 146 898 l 146 102 m 416 0 l 416 28 l 628 618 l 628 621 l 448 621 l 448 718 l 747 718 l 747 684 l 537 99 l 537 96 l 739 96 l 739 0 l 416 0 m 574 844 l 422 998 l 469 1051 l 586 928 l 589 928 l 705 1051 l 753 998 l 601 844 l 574 844 z "},"Ð":{"ha":781,"x_min":8,"x_max":768,"o":"m 117 0 l 117 1000 l 369 1000 q 575 938 485 1000 q 716 765 665 876 q 768 509 768 654 q 717 243 768 358 q 578 64 667 129 q 377 0 490 0 l 117 0 m 239 111 l 380 111 q 516 161 456 111 q 611 301 576 212 q 646 509 646 391 q 611 707 646 622 q 516 841 576 793 q 380 888 456 888 l 239 888 l 239 111 m 8 467 l 8 562 l 380 562 l 380 467 l 8 467 z "},"E":{"ha":781,"x_min":133,"x_max":684,"o":"m 133 0 l 133 1000 l 684 1000 l 684 888 l 255 888 l 255 564 l 617 564 l 617 453 l 255 453 l 255 111 l 684 111 l 684 0 l 133 0 z "},"É":{"ha":781,"x_min":133,"x_max":684,"o":"m 133 0 l 133 1000 l 684 1000 l 684 888 l 255 888 l 255 564 l 617 564 l 617 453 l 255 453 l 255 111 l 684 111 l 684 0 l 133 0 m 412 1053 l 358 1111 l 560 1306 l 621 1230 l 412 1053 z "},"Ĕ":{"ha":781,"x_min":133,"x_max":684,"o":"m 133 0 l 133 1000 l 684 1000 l 684 888 l 255 888 l 255 564 l 617 564 l 617 453 l 255 453 l 255 111 l 684 111 l 684 0 l 133 0 m 412 1058 q 305 1081 354 1058 q 226 1146 256 1104 q 197 1245 197 1188 l 274 1245 q 315 1163 274 1192 q 412 1134 355 1134 q 511 1163 471 1134 q 552 1245 552 1192 l 629 1245 q 603 1146 631 1188 q 524 1081 574 1104 q 412 1058 473 1058 z "},"Ě":{"ha":781,"x_min":133,"x_max":684,"o":"m 133 0 l 133 1000 l 684 1000 l 684 888 l 255 888 l 255 564 l 617 564 l 617 453 l 255 453 l 255 111 l 684 111 l 684 0 l 133 0 m 247 1264 l 410 1134 l 415 1134 l 578 1264 l 636 1200 l 429 1047 l 397 1047 l 189 1200 l 247 1264 z "},"Ḝ":{"ha":781,"x_min":133,"x_max":684,"o":"m 133 0 l 133 1000 l 684 1000 l 684 888 l 255 888 l 255 564 l 617 564 l 617 453 l 255 453 l 255 111 l 684 111 l 684 0 l 133 0 m 305 -316 l 305 -247 q 409 -234 374 -250 q 445 -183 445 -218 q 417 -142 445 -159 q 343 -125 390 -125 l 381 0 l 444 0 l 410 -111 l 399 -75 q 491 -115 459 -85 q 522 -191 522 -145 q 468 -283 522 -250 q 305 -316 414 -317 m 412 1058 q 305 1081 354 1058 q 226 1146 256 1104 q 197 1245 197 1188 l 274 1245 q 315 1163 274 1192 q 412 1134 355 1134 q 511 1163 471 1134 q 552 1245 552 1192 l 629 1245 q 603 1146 631 1188 q 524 1081 574 1104 q 412 1058 473 1058 z "},"Ê":{"ha":781,"x_min":133,"x_max":684,"o":"m 133 0 l 133 1000 l 684 1000 l 684 888 l 255 888 l 255 564 l 617 564 l 617 453 l 255 453 l 255 111 l 684 111 l 684 0 l 133 0 m 250 1053 l 191 1116 l 400 1270 l 431 1270 l 639 1116 l 581 1053 l 418 1183 l 412 1183 l 250 1053 z "},"Ế":{"ha":781,"x_min":133,"x_max":796,"o":"m 133 0 l 133 1000 l 684 1000 l 684 888 l 255 888 l 255 564 l 617 564 l 617 453 l 255 453 l 255 111 l 684 111 l 684 0 l 133 0 m 601 1203 l 544 1246 l 734 1444 l 796 1367 l 601 1203 m 247 1044 l 189 1105 l 397 1261 l 429 1261 l 636 1105 l 578 1044 l 415 1172 l 410 1172 l 247 1044 z "},"Ệ":{"ha":781,"x_min":133,"x_max":684,"o":"m 133 0 l 133 1000 l 684 1000 l 684 888 l 255 888 l 255 564 l 617 564 l 617 453 l 255 453 l 255 111 l 684 111 l 684 0 l 133 0 m 418 -267 q 355 -242 380 -267 q 330 -179 330 -216 q 355 -116 330 -142 q 418 -91 380 -91 q 480 -116 455 -91 q 506 -179 506 -142 q 480 -242 506 -216 q 418 -267 455 -267 m 256 1053 l 198 1116 l 407 1270 l 438 1270 l 646 1116 l 587 1053 l 425 1183 l 419 1183 l 256 1053 z "},"Ề":{"ha":781,"x_min":28,"x_max":684,"o":"m 133 0 l 133 1000 l 684 1000 l 684 888 l 255 888 l 255 564 l 617 564 l 617 453 l 255 453 l 255 111 l 684 111 l 684 0 l 133 0 m 224 1203 l 28 1367 l 91 1444 l 281 1246 l 224 1203 m 578 1044 l 415 1172 l 410 1172 l 247 1044 l 189 1105 l 396 1261 l 427 1261 l 636 1105 l 578 1044 z "},"Ể":{"ha":781,"x_min":133,"x_max":684,"o":"m 133 0 l 133 1000 l 684 1000 l 684 888 l 255 888 l 255 564 l 617 564 l 617 453 l 255 453 l 255 111 l 684 111 l 684 0 l 133 0 m 587 1200 l 536 1238 q 572 1278 557 1257 q 586 1317 586 1299 q 569 1356 586 1341 q 519 1370 551 1370 q 483 1366 503 1370 q 448 1355 464 1362 l 448 1434 q 487 1443 462 1440 q 533 1447 512 1447 q 628 1419 591 1447 q 665 1333 665 1390 q 652 1278 665 1304 q 622 1233 640 1253 q 587 1200 604 1213 m 245 1044 l 187 1105 l 396 1261 l 427 1261 l 635 1105 l 576 1044 l 414 1172 l 408 1172 l 245 1044 z "},"Ễ":{"ha":781,"x_min":133,"x_max":684,"o":"m 133 0 l 133 1000 l 684 1000 l 684 888 l 255 888 l 255 564 l 617 564 l 617 453 l 255 453 l 255 111 l 684 111 l 684 0 l 133 0 m 191 1291 q 227 1407 191 1364 q 321 1450 262 1450 q 378 1438 355 1450 q 419 1411 401 1427 q 453 1384 436 1396 q 491 1373 470 1373 q 532 1393 517 1373 q 547 1450 547 1413 l 628 1450 q 615 1369 629 1404 q 572 1312 600 1333 q 505 1291 544 1291 q 449 1303 472 1291 q 408 1332 426 1316 q 373 1360 390 1348 q 334 1373 355 1373 q 290 1353 307 1373 q 271 1291 273 1333 l 191 1291 m 244 1044 l 186 1105 l 395 1261 l 426 1261 l 633 1105 l 575 1044 l 412 1172 l 407 1172 l 244 1044 z "},"Ȅ":{"ha":781,"x_min":118,"x_max":684,"o":"m 133 0 l 133 1000 l 684 1000 l 684 888 l 255 888 l 255 564 l 617 564 l 617 453 l 255 453 l 255 111 l 684 111 l 684 0 l 133 0 m 269 1076 l 118 1291 l 205 1339 l 331 1105 l 269 1076 m 488 1076 l 345 1291 l 430 1339 l 555 1105 l 488 1076 z "},"Ë":{"ha":781,"x_min":133,"x_max":684,"o":"m 133 0 l 133 1000 l 684 1000 l 684 888 l 255 888 l 255 564 l 617 564 l 617 453 l 255 453 l 255 111 l 684 111 l 684 0 l 133 0 m 559 1072 q 499 1096 524 1072 q 475 1156 475 1120 q 499 1216 475 1192 q 559 1240 524 1240 q 619 1216 595 1240 q 643 1156 643 1192 q 619 1096 643 1120 q 559 1072 595 1072 m 270 1072 q 210 1096 235 1072 q 184 1156 184 1120 q 210 1216 184 1192 q 270 1240 235 1240 q 329 1216 306 1240 q 353 1156 353 1192 q 329 1096 353 1120 q 270 1072 306 1072 z "},"Ė":{"ha":781,"x_min":133,"x_max":684,"o":"m 133 0 l 133 1000 l 684 1000 l 684 888 l 255 888 l 255 564 l 617 564 l 617 453 l 255 453 l 255 111 l 684 111 l 684 0 l 133 0 m 412 1070 q 350 1096 375 1070 q 324 1158 324 1121 q 350 1221 324 1196 q 412 1246 375 1246 q 475 1221 450 1246 q 500 1158 500 1196 q 475 1096 500 1121 q 412 1070 450 1070 z "},"Ẹ":{"ha":781,"x_min":133,"x_max":684,"o":"m 133 0 l 133 1000 l 684 1000 l 684 888 l 255 888 l 255 564 l 617 564 l 617 453 l 255 453 l 255 111 l 684 111 l 684 0 l 133 0 m 419 -267 q 356 -242 382 -267 q 331 -179 331 -216 q 356 -116 331 -142 q 419 -91 382 -91 q 482 -116 456 -91 q 507 -179 507 -142 q 482 -242 507 -216 q 419 -267 456 -267 z "},"È":{"ha":781,"x_min":133,"x_max":684,"o":"m 133 0 l 133 1000 l 684 1000 l 684 888 l 255 888 l 255 564 l 617 564 l 617 453 l 255 453 l 255 111 l 684 111 l 684 0 l 133 0 m 412 1053 l 203 1230 l 264 1306 l 467 1111 l 412 1053 z "},"Ẻ":{"ha":781,"x_min":133,"x_max":684,"o":"m 133 0 l 133 1000 l 684 1000 l 684 888 l 255 888 l 255 564 l 617 564 l 617 453 l 255 453 l 255 111 l 684 111 l 684 0 l 133 0 m 431 1078 l 384 1128 q 425 1162 408 1142 q 442 1206 442 1183 q 425 1243 442 1230 q 376 1256 408 1256 q 340 1252 361 1256 q 302 1242 318 1249 l 302 1320 q 343 1330 318 1326 q 385 1333 368 1333 q 484 1304 448 1333 q 519 1219 519 1274 q 493 1134 519 1174 q 431 1078 467 1095 z "},"Ȇ":{"ha":781,"x_min":133,"x_max":684,"o":"m 133 0 l 133 1000 l 684 1000 l 684 888 l 255 888 l 255 564 l 617 564 l 617 453 l 255 453 l 255 111 l 684 111 l 684 0 l 133 0 m 411 1251 q 522 1227 472 1251 q 601 1162 572 1204 q 628 1063 630 1120 l 551 1063 q 510 1146 551 1118 q 411 1175 469 1175 q 313 1146 354 1175 q 273 1063 273 1118 l 195 1063 q 225 1162 195 1120 q 303 1227 254 1204 q 411 1251 353 1251 z "},"Ē":{"ha":781,"x_min":133,"x_max":684,"o":"m 133 0 l 133 1000 l 684 1000 l 684 888 l 255 888 l 255 564 l 617 564 l 617 453 l 255 453 l 255 111 l 684 111 l 684 0 l 133 0 m 170 1111 l 170 1198 l 655 1198 l 655 1111 l 170 1111 z "},"Ḗ":{"ha":781,"x_min":133,"x_max":684,"o":"m 133 0 l 133 1000 l 684 1000 l 684 888 l 255 888 l 255 564 l 617 564 l 617 453 l 255 453 l 255 111 l 684 111 l 684 0 l 133 0 m 170 1111 l 170 1198 l 655 1198 l 655 1111 l 170 1111 m 412 1251 l 358 1309 l 560 1504 l 621 1428 l 412 1251 z "},"Ḕ":{"ha":781,"x_min":133,"x_max":684,"o":"m 133 0 l 133 1000 l 684 1000 l 684 888 l 255 888 l 255 564 l 617 564 l 617 453 l 255 453 l 255 111 l 684 111 l 684 0 l 133 0 m 170 1111 l 170 1198 l 655 1198 l 655 1111 l 170 1111 m 412 1251 l 203 1428 l 264 1504 l 467 1309 l 412 1251 z "},"Ę":{"ha":781,"x_min":133,"x_max":700,"o":"m 133 0 l 133 1000 l 684 1000 l 684 888 l 255 888 l 255 564 l 617 564 l 617 453 l 255 453 l 255 111 l 684 111 l 684 0 l 133 0 m 604 -278 q 519 -245 552 -278 q 486 -161 486 -213 q 523 -66 486 -109 q 617 24 559 -23 l 682 0 q 628 -50 654 -26 q 583 -98 601 -74 q 566 -151 566 -123 q 582 -189 566 -175 q 624 -203 599 -203 q 667 -195 644 -203 q 700 -178 689 -186 l 700 -252 q 656 -271 685 -263 q 604 -278 627 -278 z "},"Ẽ":{"ha":781,"x_min":133,"x_max":684,"o":"m 133 0 l 133 1000 l 684 1000 l 684 888 l 255 888 l 255 564 l 617 564 l 617 453 l 255 453 l 255 111 l 684 111 l 684 0 l 133 0 m 194 1078 q 229 1194 194 1149 q 321 1238 264 1238 q 380 1226 357 1238 q 421 1197 404 1213 q 454 1168 438 1181 q 491 1156 471 1156 q 534 1180 519 1156 q 549 1238 549 1205 l 629 1238 q 595 1124 631 1171 q 499 1078 560 1078 q 444 1091 467 1078 q 402 1120 420 1103 q 367 1148 384 1136 q 328 1161 349 1161 q 288 1138 302 1161 q 274 1078 274 1115 l 194 1078 z "},"Ə":{"ha":781,"x_min":57,"x_max":735,"o":"m 387 -11 q 210 51 284 -11 q 97 219 136 113 q 57 456 57 325 l 57 544 l 661 544 l 661 433 l 172 433 q 198 268 172 344 q 271 146 223 193 q 387 100 319 100 q 481 130 439 100 q 553 213 524 159 q 597 340 582 267 q 613 500 613 413 q 585 706 613 616 q 502 848 557 796 q 362 899 446 899 q 243 873 300 899 q 156 808 186 846 l 111 917 q 230 986 163 961 q 365 1010 297 1010 q 523 970 454 1010 q 639 857 591 929 q 711 691 686 785 q 735 491 735 597 q 710 291 735 382 q 639 132 686 199 q 529 26 593 64 q 387 -11 465 -11 z "},"F":{"ha":781,"x_min":149,"x_max":718,"o":"m 149 0 l 149 1000 l 718 1000 l 718 888 l 271 888 l 271 549 l 656 549 l 656 438 l 271 438 l 271 0 l 149 0 z "},"G":{"ha":781,"x_min":43,"x_max":716,"o":"m 437 -11 q 232 54 321 -11 q 94 232 144 118 q 43 495 43 346 q 97 766 43 650 q 242 946 150 882 q 452 1010 334 1010 q 593 986 525 1010 q 713 917 662 961 l 669 808 q 583 872 638 845 q 461 899 528 899 q 307 849 373 899 q 203 709 240 799 q 165 498 165 618 q 201 291 165 380 q 300 151 237 201 q 448 100 363 100 q 547 124 508 100 q 609 180 586 148 l 594 148 l 594 433 l 389 433 l 389 544 l 716 544 l 716 119 q 598 25 673 60 q 437 -11 524 -11 z "},"Ğ":{"ha":781,"x_min":43,"x_max":716,"o":"m 437 -11 q 232 54 321 -11 q 94 232 144 118 q 43 495 43 346 q 97 766 43 650 q 242 946 150 882 q 452 1010 334 1010 q 593 986 525 1010 q 713 917 662 961 l 669 808 q 583 872 638 845 q 461 899 528 899 q 307 849 373 899 q 203 709 240 799 q 165 498 165 618 q 201 291 165 380 q 300 151 237 201 q 448 100 363 100 q 547 124 508 100 q 609 180 586 148 l 594 148 l 594 433 l 389 433 l 389 544 l 716 544 l 716 119 q 598 25 673 60 q 437 -11 524 -11 m 420 1058 q 313 1081 362 1058 q 234 1146 264 1104 q 205 1245 205 1188 l 282 1245 q 323 1163 282 1192 q 420 1134 363 1134 q 519 1163 479 1134 q 560 1245 560 1192 l 637 1245 q 611 1146 640 1188 q 532 1081 582 1104 q 420 1058 481 1058 z "},"Ǧ":{"ha":781,"x_min":43,"x_max":716,"o":"m 437 -11 q 232 54 321 -11 q 94 232 144 118 q 43 495 43 346 q 97 766 43 650 q 242 946 150 882 q 452 1010 334 1010 q 593 986 525 1010 q 713 917 662 961 l 669 808 q 583 872 638 845 q 461 899 528 899 q 307 849 373 899 q 203 709 240 799 q 165 498 165 618 q 201 291 165 380 q 300 151 237 201 q 448 100 363 100 q 547 124 508 100 q 609 180 586 148 l 594 148 l 594 433 l 389 433 l 389 544 l 716 544 l 716 119 q 598 25 673 60 q 437 -11 524 -11 m 255 1264 l 418 1134 l 423 1134 l 586 1264 l 644 1200 l 437 1047 l 406 1047 l 197 1200 l 255 1264 z "},"Ĝ":{"ha":781,"x_min":43,"x_max":716,"o":"m 437 -11 q 232 54 321 -11 q 94 232 144 118 q 43 495 43 346 q 97 766 43 650 q 242 946 150 882 q 452 1010 334 1010 q 593 986 525 1010 q 713 917 662 961 l 669 808 q 583 872 638 845 q 461 899 528 899 q 307 849 373 899 q 203 709 240 799 q 165 498 165 618 q 201 291 165 380 q 300 151 237 201 q 448 100 363 100 q 547 124 508 100 q 609 180 586 148 l 594 148 l 594 433 l 389 433 l 389 544 l 716 544 l 716 119 q 598 25 673 60 q 437 -11 524 -11 m 258 1053 l 199 1116 l 408 1270 l 439 1270 l 647 1116 l 589 1053 l 426 1183 l 420 1183 l 258 1053 z "},"Ģ":{"ha":781,"x_min":43,"x_max":716,"o":"m 437 -11 q 232 54 321 -11 q 94 232 144 118 q 43 495 43 346 q 97 766 43 650 q 242 946 150 882 q 452 1010 334 1010 q 593 986 525 1010 q 713 917 662 961 l 669 808 q 583 872 638 845 q 461 899 528 899 q 307 849 373 899 q 203 709 240 799 q 165 498 165 618 q 201 291 165 380 q 300 151 237 201 q 448 100 363 100 q 547 124 508 100 q 609 180 586 148 l 594 148 l 594 433 l 389 433 l 389 544 l 716 544 l 716 119 q 598 25 673 60 q 437 -11 524 -11 m 382 -373 l 350 -336 l 401 -283 q 430 -251 419 -265 q 446 -224 441 -237 q 450 -201 451 -212 l 471 -198 q 459 -222 468 -211 q 431 -233 451 -233 q 387 -214 408 -233 q 365 -164 365 -195 q 386 -114 365 -132 q 431 -95 406 -95 q 481 -116 461 -95 q 500 -175 500 -137 q 489 -232 500 -205 q 462 -279 477 -259 q 437 -311 447 -300 l 382 -373 z "},"Ġ":{"ha":781,"x_min":43,"x_max":716,"o":"m 437 -11 q 232 54 321 -11 q 94 232 144 118 q 43 495 43 346 q 97 766 43 650 q 242 946 150 882 q 452 1010 334 1010 q 593 986 525 1010 q 713 917 662 961 l 669 808 q 583 872 638 845 q 461 899 528 899 q 307 849 373 899 q 203 709 240 799 q 165 498 165 618 q 201 291 165 380 q 300 151 237 201 q 448 100 363 100 q 547 124 508 100 q 609 180 586 148 l 594 148 l 594 433 l 389 433 l 389 544 l 716 544 l 716 119 q 598 25 673 60 q 437 -11 524 -11 m 420 1070 q 358 1096 383 1070 q 332 1158 332 1121 q 358 1221 332 1196 q 420 1246 383 1246 q 483 1221 458 1246 q 509 1158 509 1196 q 483 1096 509 1121 q 420 1070 458 1070 z "},"Ḡ":{"ha":781,"x_min":43,"x_max":716,"o":"m 437 -11 q 232 54 321 -11 q 94 232 144 118 q 43 495 43 346 q 97 766 43 650 q 242 946 150 882 q 452 1010 334 1010 q 593 986 525 1010 q 713 917 662 961 l 669 808 q 583 872 638 845 q 461 899 528 899 q 307 849 373 899 q 203 709 240 799 q 165 498 165 618 q 201 291 165 380 q 300 151 237 201 q 448 100 363 100 q 547 124 508 100 q 609 180 586 148 l 594 148 l 594 433 l 389 433 l 389 544 l 716 544 l 716 119 q 598 25 673 60 q 437 -11 524 -11 m 178 1111 l 178 1198 l 663 1198 l 663 1111 l 178 1111 z "},"H":{"ha":781,"x_min":84,"x_max":697,"o":"m 84 0 l 84 1000 l 206 1000 l 206 567 l 575 567 l 575 1000 l 697 1000 l 697 0 l 575 0 l 575 456 l 206 456 l 206 0 l 84 0 z "},"Ħ":{"ha":781,"x_min":16,"x_max":749,"o":"m 16 716 l 16 803 l 749 803 l 749 716 l 16 716 m 84 0 l 84 1000 l 206 1000 l 206 567 l 575 567 l 575 1000 l 697 1000 l 697 0 l 575 0 l 575 456 l 206 456 l 206 0 l 84 0 z "},"Ḫ":{"ha":781,"x_min":84,"x_max":697,"o":"m 84 0 l 84 1000 l 206 1000 l 206 567 l 575 567 l 575 1000 l 697 1000 l 697 0 l 575 0 l 575 456 l 206 456 l 206 0 l 84 0 m 391 -289 q 281 -261 330 -289 q 202 -187 231 -234 q 174 -80 174 -140 l 255 -80 q 293 -177 254 -138 q 391 -216 332 -216 q 489 -177 451 -216 q 528 -80 527 -138 l 609 -80 q 581 -187 610 -140 q 503 -261 552 -234 q 391 -289 454 -289 z "},"Ĥ":{"ha":781,"x_min":84,"x_max":697,"o":"m 84 0 l 84 1000 l 206 1000 l 206 567 l 575 567 l 575 1000 l 697 1000 l 697 0 l 575 0 l 575 456 l 206 456 l 206 0 l 84 0 m 229 1053 l 171 1116 l 380 1270 l 411 1270 l 618 1116 l 560 1053 l 397 1183 l 392 1183 l 229 1053 z "},"Ḥ":{"ha":781,"x_min":84,"x_max":697,"o":"m 84 0 l 84 1000 l 206 1000 l 206 567 l 575 567 l 575 1000 l 697 1000 l 697 0 l 575 0 l 575 456 l 206 456 l 206 0 l 84 0 m 392 -267 q 329 -242 355 -267 q 304 -179 304 -216 q 329 -116 304 -142 q 392 -91 355 -91 q 455 -116 429 -91 q 480 -179 480 -142 q 455 -242 480 -216 q 392 -267 429 -267 z "},"I":{"ha":781,"x_min":122,"x_max":659,"o":"m 330 0 l 330 1000 l 452 1000 l 452 0 l 330 0 m 122 0 l 122 109 l 659 109 l 659 0 l 122 0 m 122 891 l 122 1000 l 659 1000 l 659 891 l 122 891 z "},"Í":{"ha":781,"x_min":122,"x_max":659,"o":"m 330 0 l 330 1000 l 452 1000 l 452 0 l 330 0 m 122 0 l 122 109 l 659 109 l 659 0 l 122 0 m 122 891 l 122 1000 l 659 1000 l 659 891 l 122 891 m 389 1053 l 335 1111 l 537 1306 l 598 1230 l 389 1053 z "},"Ĭ":{"ha":781,"x_min":122,"x_max":659,"o":"m 330 0 l 330 1000 l 452 1000 l 452 0 l 330 0 m 122 0 l 122 109 l 659 109 l 659 0 l 122 0 m 122 891 l 122 1000 l 659 1000 l 659 891 l 122 891 m 389 1058 q 282 1081 331 1058 q 203 1146 233 1104 q 174 1245 174 1188 l 251 1245 q 292 1163 251 1192 q 389 1134 332 1134 q 488 1163 448 1134 q 529 1245 529 1192 l 606 1245 q 579 1146 608 1188 q 500 1081 551 1104 q 389 1058 450 1058 z "},"Ǐ":{"ha":781,"x_min":122,"x_max":659,"o":"m 330 0 l 330 1000 l 452 1000 l 452 0 l 330 0 m 122 0 l 122 109 l 659 109 l 659 0 l 122 0 m 122 891 l 122 1000 l 659 1000 l 659 891 l 122 891 m 224 1264 l 387 1134 l 392 1134 l 555 1264 l 613 1200 l 406 1047 l 374 1047 l 165 1200 l 224 1264 z "},"Î":{"ha":781,"x_min":122,"x_max":659,"o":"m 330 0 l 330 1000 l 452 1000 l 452 0 l 330 0 m 122 0 l 122 109 l 659 109 l 659 0 l 122 0 m 122 891 l 122 1000 l 659 1000 l 659 891 l 122 891 m 227 1053 l 168 1116 l 377 1270 l 408 1270 l 616 1116 l 557 1053 l 395 1183 l 389 1183 l 227 1053 z "},"Ȉ":{"ha":781,"x_min":95,"x_max":659,"o":"m 330 0 l 330 1000 l 452 1000 l 452 0 l 330 0 m 122 0 l 122 109 l 659 109 l 659 0 l 122 0 m 122 891 l 122 1000 l 659 1000 l 659 891 l 122 891 m 245 1076 l 95 1291 l 182 1339 l 308 1105 l 245 1076 m 465 1076 l 321 1291 l 407 1339 l 532 1105 l 465 1076 z "},"Ï":{"ha":781,"x_min":122,"x_max":659,"o":"m 330 0 l 330 1000 l 452 1000 l 452 0 l 330 0 m 122 0 l 122 109 l 659 109 l 659 0 l 122 0 m 122 891 l 122 1000 l 659 1000 l 659 891 l 122 891 m 536 1072 q 476 1096 500 1072 q 452 1156 452 1120 q 476 1216 452 1192 q 536 1240 500 1240 q 596 1216 572 1240 q 620 1156 620 1192 q 596 1096 620 1120 q 536 1072 572 1072 m 247 1072 q 186 1096 212 1072 q 161 1156 161 1120 q 186 1216 161 1192 q 247 1240 212 1240 q 306 1216 283 1240 q 330 1156 330 1192 q 306 1096 330 1120 q 247 1072 283 1072 z "},"Ḯ":{"ha":781,"x_min":122,"x_max":659,"o":"m 330 0 l 330 1000 l 452 1000 l 452 0 l 330 0 m 122 0 l 122 109 l 659 109 l 659 0 l 122 0 m 122 891 l 122 1000 l 659 1000 l 659 891 l 122 891 m 536 1072 q 476 1096 500 1072 q 452 1156 452 1120 q 476 1216 452 1192 q 536 1240 500 1240 q 596 1216 572 1240 q 620 1156 620 1192 q 596 1096 620 1120 q 536 1072 572 1072 m 247 1072 q 186 1096 212 1072 q 161 1156 161 1120 q 186 1216 161 1192 q 247 1240 212 1240 q 306 1216 283 1240 q 330 1156 330 1192 q 306 1096 330 1120 q 247 1072 283 1072 m 389 1244 l 335 1302 l 537 1497 l 598 1421 l 389 1244 z "},"İ":{"ha":781,"x_min":122,"x_max":659,"o":"m 330 0 l 330 1000 l 452 1000 l 452 0 l 330 0 m 122 0 l 122 109 l 659 109 l 659 0 l 122 0 m 122 891 l 122 1000 l 659 1000 l 659 891 l 122 891 m 389 1070 q 327 1096 352 1070 q 301 1158 301 1121 q 327 1221 301 1196 q 389 1246 352 1246 q 452 1221 427 1246 q 477 1158 477 1196 q 452 1096 477 1121 q 389 1070 427 1070 z "},"Ị":{"ha":781,"x_min":122,"x_max":659,"o":"m 330 0 l 330 1000 l 452 1000 l 452 0 l 330 0 m 122 0 l 122 109 l 659 109 l 659 0 l 122 0 m 122 891 l 122 1000 l 659 1000 l 659 891 l 122 891 m 389 -267 q 327 -242 352 -267 q 301 -179 301 -216 q 327 -116 301 -142 q 389 -91 352 -91 q 452 -116 427 -91 q 477 -179 477 -142 q 452 -242 477 -216 q 389 -267 427 -267 z "},"Ì":{"ha":781,"x_min":122,"x_max":659,"o":"m 330 0 l 330 1000 l 452 1000 l 452 0 l 330 0 m 122 0 l 122 109 l 659 109 l 659 0 l 122 0 m 122 891 l 122 1000 l 659 1000 l 659 891 l 122 891 m 389 1053 l 180 1230 l 241 1306 l 444 1111 l 389 1053 z "},"Ỉ":{"ha":781,"x_min":122,"x_max":659,"o":"m 330 0 l 330 1000 l 452 1000 l 452 0 l 330 0 m 122 0 l 122 109 l 659 109 l 659 0 l 122 0 m 122 891 l 122 1000 l 659 1000 l 659 891 l 122 891 m 408 1078 l 361 1128 q 402 1162 385 1142 q 419 1206 419 1183 q 402 1243 419 1230 q 353 1256 385 1256 q 317 1252 338 1256 q 279 1242 295 1249 l 279 1320 q 320 1330 295 1326 q 362 1333 345 1333 q 460 1304 425 1333 q 496 1219 496 1274 q 470 1134 496 1174 q 408 1078 444 1095 z "},"Ȋ":{"ha":781,"x_min":122,"x_max":659,"o":"m 330 0 l 330 1000 l 452 1000 l 452 0 l 330 0 m 122 0 l 122 109 l 659 109 l 659 0 l 122 0 m 122 891 l 122 1000 l 659 1000 l 659 891 l 122 891 m 388 1251 q 499 1227 449 1251 q 578 1162 549 1204 q 605 1063 607 1120 l 528 1063 q 487 1146 528 1118 q 388 1175 446 1175 q 290 1146 331 1175 q 250 1063 250 1118 l 172 1063 q 202 1162 172 1120 q 280 1227 231 1204 q 388 1251 330 1251 z "},"Ī":{"ha":781,"x_min":122,"x_max":659,"o":"m 330 0 l 330 1000 l 452 1000 l 452 0 l 330 0 m 122 0 l 122 109 l 659 109 l 659 0 l 122 0 m 122 891 l 122 1000 l 659 1000 l 659 891 l 122 891 m 173 1111 l 173 1198 l 604 1198 l 604 1111 l 173 1111 z "},"Į":{"ha":781,"x_min":122,"x_max":677,"o":"m 330 0 l 330 1000 l 452 1000 l 452 0 l 330 0 m 122 0 l 122 109 l 659 109 l 659 0 l 122 0 m 122 891 l 122 1000 l 659 1000 l 659 891 l 122 891 m 581 -278 q 496 -245 529 -278 q 463 -161 463 -213 q 499 -66 463 -109 q 594 24 536 -23 l 659 0 q 605 -50 631 -26 q 560 -98 578 -74 q 543 -151 543 -123 q 559 -189 543 -175 q 601 -203 576 -203 q 644 -195 621 -203 q 677 -178 666 -186 l 677 -252 q 633 -271 662 -263 q 581 -278 604 -278 z "},"Ĩ":{"ha":781,"x_min":122,"x_max":659,"o":"m 330 0 l 330 1000 l 452 1000 l 452 0 l 330 0 m 122 0 l 122 109 l 659 109 l 659 0 l 122 0 m 122 891 l 122 1000 l 659 1000 l 659 891 l 122 891 m 171 1078 q 206 1194 171 1149 q 298 1238 241 1238 q 357 1226 334 1238 q 398 1197 380 1213 q 431 1168 415 1181 q 468 1156 448 1156 q 511 1180 496 1156 q 526 1238 526 1205 l 606 1238 q 572 1124 608 1171 q 476 1078 537 1078 q 420 1091 444 1078 q 379 1120 397 1103 q 343 1148 361 1136 q 305 1161 326 1161 q 265 1138 279 1161 q 251 1078 251 1115 l 171 1078 z "},"J":{"ha":781,"x_min":41,"x_max":624,"o":"m 330 -11 q 178 25 243 -11 q 78 126 114 62 q 41 275 42 191 l 160 275 q 207 148 162 196 q 327 100 251 100 q 414 122 375 100 q 477 187 454 143 q 500 300 500 231 l 500 1000 l 624 1000 l 624 302 q 585 129 624 198 q 479 24 546 59 q 330 -11 412 -11 z "},"Ĵ":{"ha":781,"x_min":41,"x_max":781,"o":"m 330 -11 q 178 25 243 -11 q 78 126 114 62 q 41 275 42 191 l 160 275 q 207 148 162 196 q 327 100 251 100 q 414 122 375 100 q 477 187 454 143 q 500 300 500 231 l 500 1000 l 624 1000 l 624 302 q 585 129 624 198 q 479 24 546 59 q 330 -11 412 -11 m 392 1053 l 334 1116 l 543 1270 l 574 1270 l 781 1116 l 723 1053 l 560 1183 l 555 1183 l 392 1053 z "},"K":{"ha":781,"x_min":106,"x_max":761,"o":"m 106 0 l 106 1000 l 227 1000 l 227 536 l 262 536 l 212 511 l 586 1000 l 738 1000 l 326 469 l 326 530 l 761 0 l 606 0 l 212 486 l 262 464 l 227 464 l 227 0 l 106 0 z "},"Ķ":{"ha":781,"x_min":106,"x_max":761,"o":"m 106 0 l 106 1000 l 227 1000 l 227 536 l 262 536 l 212 511 l 586 1000 l 738 1000 l 326 469 l 326 530 l 761 0 l 606 0 l 212 486 l 262 464 l 227 464 l 227 0 l 106 0 m 365 -373 l 332 -336 l 384 -283 q 413 -251 401 -265 q 429 -224 424 -237 q 433 -201 433 -212 l 453 -198 q 442 -222 450 -211 q 414 -233 433 -233 q 369 -214 391 -233 q 347 -164 347 -195 q 368 -114 347 -132 q 414 -95 389 -95 q 463 -116 444 -95 q 483 -175 483 -137 q 471 -232 483 -205 q 445 -279 460 -259 q 419 -311 429 -300 l 365 -373 z "},"L":{"ha":781,"x_min":149,"x_max":708,"o":"m 149 0 l 149 1000 l 271 1000 l 271 111 l 708 111 l 708 0 l 149 0 z "},"Ǉ":{"ha":781,"x_min":61,"x_max":720,"o":"m 545 -11 q 417 61 461 -11 q 373 270 373 134 l 473 270 q 491 137 473 182 q 544 91 509 91 q 601 140 582 91 q 620 281 620 189 l 620 1000 l 720 1000 l 720 283 q 675 65 720 141 q 545 -11 631 -11 m 61 0 l 61 1000 l 161 1000 l 161 102 l 336 102 l 336 0 l 61 0 z "},"Ĺ":{"ha":781,"x_min":149,"x_max":708,"o":"m 149 0 l 149 1000 l 271 1000 l 271 111 l 708 111 l 708 0 l 149 0 m 212 1053 l 157 1111 l 359 1306 l 420 1230 l 212 1053 z "},"Ľ":{"ha":781,"x_min":149,"x_max":708,"o":"m 149 0 l 149 1000 l 271 1000 l 271 111 l 708 111 l 708 0 l 149 0 m 606 694 l 609 1000 l 704 1000 l 690 694 l 606 694 z "},"Ļ":{"ha":781,"x_min":149,"x_max":708,"o":"m 149 0 l 149 1000 l 271 1000 l 271 111 l 708 111 l 708 0 l 149 0 m 400 -373 l 368 -336 l 419 -283 q 448 -251 437 -265 q 464 -224 459 -237 q 468 -201 469 -212 l 488 -198 q 477 -222 486 -211 q 449 -233 469 -233 q 404 -214 426 -233 q 382 -164 382 -195 q 403 -114 382 -132 q 449 -95 424 -95 q 498 -116 479 -95 q 518 -175 518 -137 q 507 -232 518 -205 q 480 -279 495 -259 q 454 -311 465 -300 l 400 -373 z "},"Ŀ":{"ha":781,"x_min":149,"x_max":708,"o":"m 149 0 l 149 1000 l 271 1000 l 271 111 l 708 111 l 708 0 l 149 0 m 600 422 q 529 451 558 422 q 499 524 499 480 q 528 594 499 566 q 600 623 557 623 q 671 594 642 623 q 700 524 700 566 q 671 451 700 480 q 600 422 642 422 z "},"Ḷ":{"ha":781,"x_min":149,"x_max":708,"o":"m 149 0 l 149 1000 l 271 1000 l 271 111 l 708 111 l 708 0 l 149 0 m 442 -267 q 379 -242 405 -267 q 354 -179 354 -216 q 379 -116 354 -142 q 442 -91 405 -91 q 505 -116 479 -91 q 530 -179 530 -142 q 505 -242 530 -216 q 442 -267 479 -267 z "},"ǈ":{"ha":781,"x_min":88,"x_max":694,"o":"m 471 -296 q 375 -278 425 -296 q 294 -236 325 -260 l 331 -145 q 395 -182 357 -168 q 464 -197 433 -197 q 540 -164 511 -197 q 570 -81 570 -132 l 570 719 l 665 719 l 665 -91 q 639 -197 665 -151 q 570 -270 614 -243 q 471 -296 526 -296 m 88 0 l 88 1000 l 189 1000 l 189 102 l 401 102 l 401 0 l 88 0 m 403 625 l 403 719 l 665 719 l 665 625 l 403 625 m 612 837 q 551 861 575 837 q 528 921 528 886 q 552 981 528 958 q 612 1005 576 1005 q 671 981 648 1005 q 694 921 694 958 q 671 861 694 886 q 612 837 648 837 z "},"Ḻ":{"ha":781,"x_min":149,"x_max":708,"o":"m 149 0 l 149 1000 l 271 1000 l 271 111 l 708 111 l 708 0 l 149 0 m 206 -270 l 206 -193 l 678 -193 l 678 -270 l 206 -270 z "},"Ł":{"ha":781,"x_min":20,"x_max":708,"o":"m 56 374 l 20 460 l 164 538 l 252 575 l 366 636 l 401 552 l 252 472 l 164 437 l 56 374 m 149 0 l 149 1000 l 271 1000 l 271 111 l 708 111 l 708 0 l 149 0 z "},"M":{"ha":781,"x_min":62,"x_max":719,"o":"m 62 0 l 62 1000 l 152 1000 l 388 538 l 393 538 l 629 1000 l 719 1000 l 719 0 l 600 0 l 600 514 l 602 716 l 597 716 l 411 351 l 370 351 l 184 716 l 179 716 l 182 514 l 182 0 l 62 0 z "},"Ṃ":{"ha":781,"x_min":62,"x_max":719,"o":"m 62 0 l 62 1000 l 152 1000 l 388 538 l 393 538 l 629 1000 l 719 1000 l 719 0 l 600 0 l 600 514 l 602 716 l 597 716 l 411 351 l 370 351 l 184 716 l 179 716 l 182 514 l 182 0 l 62 0 m 389 -267 q 327 -242 352 -267 q 301 -179 301 -216 q 327 -116 301 -142 q 389 -91 352 -91 q 452 -116 427 -91 q 477 -179 477 -142 q 452 -242 477 -216 q 389 -267 427 -267 z "},"N":{"ha":781,"x_min":84,"x_max":697,"o":"m 84 0 l 84 1000 l 174 1000 l 509 400 l 575 285 l 581 285 l 578 476 l 578 1000 l 697 1000 l 697 0 l 609 0 l 273 600 l 206 719 l 201 719 l 203 528 l 203 0 l 84 0 z "},"Ǌ":{"ha":781,"x_min":33,"x_max":754,"o":"m 33 0 l 33 1000 l 106 1000 l 259 475 l 288 373 l 290 373 l 283 477 l 283 1000 l 384 1000 l 384 0 l 312 0 l 157 529 l 130 631 l 127 631 l 133 528 l 133 0 l 33 0 m 594 -11 q 467 61 511 -11 q 425 270 424 133 l 525 270 q 542 138 525 184 q 593 92 559 92 q 642 141 629 92 q 654 281 654 191 l 654 1000 l 754 1000 l 754 283 q 716 65 754 141 q 594 -11 679 -11 z "},"Ń":{"ha":781,"x_min":84,"x_max":697,"o":"m 84 0 l 84 1000 l 174 1000 l 509 400 l 575 285 l 581 285 l 578 476 l 578 1000 l 697 1000 l 697 0 l 609 0 l 273 600 l 206 719 l 201 719 l 203 528 l 203 0 l 84 0 m 391 1053 l 336 1111 l 538 1306 l 600 1230 l 391 1053 z "},"Ň":{"ha":781,"x_min":84,"x_max":697,"o":"m 84 0 l 84 1000 l 174 1000 l 509 400 l 575 285 l 581 285 l 578 476 l 578 1000 l 697 1000 l 697 0 l 609 0 l 273 600 l 206 719 l 201 719 l 203 528 l 203 0 l 84 0 m 225 1264 l 388 1134 l 393 1134 l 556 1264 l 614 1200 l 407 1047 l 376 1047 l 167 1200 l 225 1264 z "},"Ņ":{"ha":781,"x_min":84,"x_max":697,"o":"m 84 0 l 84 1000 l 174 1000 l 509 400 l 575 285 l 581 285 l 578 476 l 578 1000 l 697 1000 l 697 0 l 609 0 l 273 600 l 206 719 l 201 719 l 203 528 l 203 0 l 84 0 m 347 -373 l 315 -336 l 366 -283 q 395 -251 384 -265 q 411 -224 406 -237 q 415 -201 416 -212 l 435 -198 q 424 -222 433 -211 q 396 -233 416 -233 q 351 -214 373 -233 q 330 -164 330 -195 q 350 -114 330 -132 q 396 -95 371 -95 q 446 -116 426 -95 q 465 -175 465 -137 q 454 -232 465 -205 q 427 -279 442 -259 q 401 -311 412 -300 l 347 -373 z "},"Ṅ":{"ha":781,"x_min":84,"x_max":697,"o":"m 84 0 l 84 1000 l 174 1000 l 509 400 l 575 285 l 581 285 l 578 476 l 578 1000 l 697 1000 l 697 0 l 609 0 l 273 600 l 206 719 l 201 719 l 203 528 l 203 0 l 84 0 m 391 1070 q 328 1096 353 1070 q 302 1158 302 1121 q 328 1221 302 1196 q 391 1246 353 1246 q 453 1221 428 1246 q 479 1158 479 1196 q 453 1096 479 1121 q 391 1070 428 1070 z "},"Ṇ":{"ha":781,"x_min":84,"x_max":697,"o":"m 84 0 l 84 1000 l 174 1000 l 509 400 l 575 285 l 581 285 l 578 476 l 578 1000 l 697 1000 l 697 0 l 609 0 l 273 600 l 206 719 l 201 719 l 203 528 l 203 0 l 84 0 m 389 -267 q 327 -242 352 -267 q 301 -179 301 -216 q 327 -116 301 -142 q 389 -91 352 -91 q 452 -116 427 -91 q 477 -179 477 -142 q 452 -242 477 -216 q 389 -267 427 -267 z "},"ǋ":{"ha":781,"x_min":69,"x_max":720,"o":"m 69 0 l 69 1000 l 152 1000 l 323 463 l 363 320 l 366 320 l 361 467 l 361 1000 l 461 1000 l 461 0 l 382 0 l 209 538 l 168 681 l 165 681 l 168 537 l 168 0 l 69 0 m 494 -296 q 400 -278 449 -296 q 321 -236 351 -260 l 357 -145 q 420 -183 383 -168 q 487 -198 458 -198 q 560 -165 532 -198 q 589 -81 589 -132 l 589 718 l 684 718 l 684 -91 q 659 -197 684 -151 q 590 -270 633 -243 q 494 -296 547 -296 m 639 842 q 580 867 604 842 q 556 926 556 891 q 580 987 556 963 q 639 1010 604 1010 q 697 987 673 1010 q 720 926 720 963 q 697 867 720 891 q 639 842 675 842 z "},"Ṉ":{"ha":781,"x_min":84,"x_max":697,"o":"m 84 0 l 84 1000 l 174 1000 l 509 400 l 575 285 l 581 285 l 578 476 l 578 1000 l 697 1000 l 697 0 l 609 0 l 273 600 l 206 719 l 201 719 l 203 528 l 203 0 l 84 0 m 153 -270 l 153 -193 l 625 -193 l 625 -270 l 153 -270 z "},"Ñ":{"ha":781,"x_min":84,"x_max":697,"o":"m 84 0 l 84 1000 l 174 1000 l 509 400 l 575 285 l 581 285 l 578 476 l 578 1000 l 697 1000 l 697 0 l 609 0 l 273 600 l 206 719 l 201 719 l 203 528 l 203 0 l 84 0 m 172 1078 q 207 1194 172 1149 q 300 1238 242 1238 q 358 1226 335 1238 q 399 1197 382 1213 q 433 1168 416 1181 q 469 1156 449 1156 q 513 1180 498 1156 q 528 1238 528 1205 l 608 1238 q 574 1124 609 1171 q 477 1078 538 1078 q 422 1091 445 1078 q 380 1120 399 1103 q 345 1148 362 1136 q 307 1161 328 1161 q 266 1138 280 1161 q 252 1078 252 1115 l 172 1078 z "},"Ŋ":{"ha":781,"x_min":84,"x_max":697,"o":"m 84 0 l 84 1000 l 174 1000 l 509 400 l 575 285 l 581 285 l 578 476 l 578 1000 l 697 1000 l 697 0 l 609 0 l 273 600 l 206 719 l 201 719 l 203 528 l 203 0 l 84 0 m 514 -300 q 464 -294 491 -300 q 420 -278 436 -288 l 420 -172 q 459 -189 438 -183 q 498 -195 479 -194 q 545 -178 527 -197 q 572 -131 564 -159 q 581 -72 581 -102 l 581 83 l 697 83 l 697 -64 q 676 -188 697 -135 q 614 -270 655 -241 q 514 -300 574 -300 z "},"O":{"ha":781,"x_min":46,"x_max":735,"o":"m 389 -11 q 206 52 283 -11 q 87 229 129 114 q 46 500 46 343 q 87 772 46 657 q 206 948 129 886 q 389 1010 283 1010 q 574 948 496 1010 q 693 772 652 886 q 735 500 735 657 q 693 229 735 343 q 574 52 652 114 q 389 -11 496 -11 m 389 100 q 511 149 461 100 q 588 286 562 197 q 613 500 614 376 q 586 715 612 626 q 509 852 559 804 q 389 899 459 899 q 270 850 319 899 q 194 711 220 801 q 168 500 168 622 q 194 289 168 378 q 270 150 220 199 q 389 100 319 100 z "},"Ó":{"ha":781,"x_min":46,"x_max":735,"o":"m 389 -11 q 206 52 283 -11 q 87 229 129 114 q 46 500 46 343 q 87 772 46 657 q 206 948 129 886 q 389 1010 283 1010 q 574 948 496 1010 q 693 772 652 886 q 735 500 735 657 q 693 229 735 343 q 574 52 652 114 q 389 -11 496 -11 m 389 100 q 511 149 461 100 q 588 286 562 197 q 613 500 614 376 q 586 715 612 626 q 509 852 559 804 q 389 899 459 899 q 270 850 319 899 q 194 711 220 801 q 168 500 168 622 q 194 289 168 378 q 270 150 220 199 q 389 100 319 100 m 389 1053 l 335 1111 l 537 1306 l 598 1230 l 389 1053 z "},"Ŏ":{"ha":781,"x_min":46,"x_max":735,"o":"m 389 -11 q 206 52 283 -11 q 87 229 129 114 q 46 500 46 343 q 87 772 46 657 q 206 948 129 886 q 389 1010 283 1010 q 574 948 496 1010 q 693 772 652 886 q 735 500 735 657 q 693 229 735 343 q 574 52 652 114 q 389 -11 496 -11 m 389 100 q 511 149 461 100 q 588 286 562 197 q 613 500 614 376 q 586 715 612 626 q 509 852 559 804 q 389 899 459 899 q 270 850 319 899 q 194 711 220 801 q 168 500 168 622 q 194 289 168 378 q 270 150 220 199 q 389 100 319 100 m 389 1058 q 282 1081 331 1058 q 203 1146 233 1104 q 174 1245 174 1188 l 251 1245 q 292 1163 251 1192 q 389 1134 332 1134 q 488 1163 448 1134 q 529 1245 529 1192 l 606 1245 q 579 1146 608 1188 q 500 1081 551 1104 q 389 1058 450 1058 z "},"Ô":{"ha":781,"x_min":46,"x_max":735,"o":"m 389 -11 q 206 52 283 -11 q 87 229 129 114 q 46 500 46 343 q 87 772 46 657 q 206 948 129 886 q 389 1010 283 1010 q 574 948 496 1010 q 693 772 652 886 q 735 500 735 657 q 693 229 735 343 q 574 52 652 114 q 389 -11 496 -11 m 389 100 q 511 149 461 100 q 588 286 562 197 q 613 500 614 376 q 586 715 612 626 q 509 852 559 804 q 389 899 459 899 q 270 850 319 899 q 194 711 220 801 q 168 500 168 622 q 194 289 168 378 q 270 150 220 199 q 389 100 319 100 m 227 1053 l 168 1116 l 377 1270 l 408 1270 l 616 1116 l 557 1053 l 395 1183 l 389 1183 l 227 1053 z "},"Ố":{"ha":781,"x_min":46,"x_max":773,"o":"m 389 -11 q 206 52 283 -11 q 87 229 129 114 q 46 500 46 343 q 87 772 46 657 q 206 948 129 886 q 389 1010 283 1010 q 574 948 496 1010 q 693 772 652 886 q 735 500 735 657 q 693 229 735 343 q 574 52 652 114 q 389 -11 496 -11 m 389 100 q 511 149 461 100 q 588 286 562 197 q 613 500 614 376 q 586 715 612 626 q 509 852 559 804 q 389 899 459 899 q 270 850 319 899 q 194 711 220 801 q 168 500 168 622 q 194 289 168 378 q 270 150 220 199 q 389 100 319 100 m 578 1203 l 521 1246 l 711 1444 l 773 1367 l 578 1203 m 224 1044 l 165 1105 l 374 1261 l 406 1261 l 613 1105 l 555 1044 l 392 1172 l 387 1172 l 224 1044 z "},"Ộ":{"ha":781,"x_min":46,"x_max":735,"o":"m 389 -11 q 206 52 283 -11 q 87 229 129 114 q 46 500 46 343 q 87 772 46 657 q 206 948 129 886 q 389 1010 283 1010 q 574 948 496 1010 q 693 772 652 886 q 735 500 735 657 q 693 229 735 343 q 574 52 652 114 q 389 -11 496 -11 m 389 100 q 511 149 461 100 q 588 286 562 197 q 613 500 614 376 q 586 715 612 626 q 509 852 559 804 q 389 899 459 899 q 270 850 319 899 q 194 711 220 801 q 168 500 168 622 q 194 289 168 378 q 270 150 220 199 q 389 100 319 100 m 388 -267 q 325 -242 351 -267 q 300 -179 300 -216 q 325 -116 300 -142 q 388 -91 351 -91 q 451 -116 425 -91 q 476 -179 476 -142 q 451 -242 476 -216 q 388 -267 425 -267 m 227 1053 l 168 1116 l 377 1270 l 408 1270 l 616 1116 l 557 1053 l 395 1183 l 389 1183 l 227 1053 z "},"Ồ":{"ha":781,"x_min":5,"x_max":735,"o":"m 389 -11 q 206 52 283 -11 q 87 229 129 114 q 46 500 46 343 q 87 772 46 657 q 206 948 129 886 q 389 1010 283 1010 q 574 948 496 1010 q 693 772 652 886 q 735 500 735 657 q 693 229 735 343 q 574 52 652 114 q 389 -11 496 -11 m 389 100 q 511 149 461 100 q 588 286 562 197 q 613 500 614 376 q 586 715 612 626 q 509 852 559 804 q 389 899 459 899 q 270 850 319 899 q 194 711 220 801 q 168 500 168 622 q 194 289 168 378 q 270 150 220 199 q 389 100 319 100 m 201 1203 l 5 1367 l 68 1444 l 258 1246 l 201 1203 m 555 1044 l 392 1172 l 387 1172 l 224 1044 l 165 1105 l 373 1261 l 404 1261 l 613 1105 l 555 1044 z "},"Ổ":{"ha":781,"x_min":46,"x_max":735,"o":"m 389 -11 q 206 52 283 -11 q 87 229 129 114 q 46 500 46 343 q 87 772 46 657 q 206 948 129 886 q 389 1010 283 1010 q 574 948 496 1010 q 693 772 652 886 q 735 500 735 657 q 693 229 735 343 q 574 52 652 114 q 389 -11 496 -11 m 389 100 q 511 149 461 100 q 588 286 562 197 q 613 500 614 376 q 586 715 612 626 q 509 852 559 804 q 389 899 459 899 q 270 850 319 899 q 194 711 220 801 q 168 500 168 622 q 194 289 168 378 q 270 150 220 199 q 389 100 319 100 m 564 1200 l 513 1238 q 549 1278 534 1257 q 563 1317 563 1299 q 546 1356 563 1341 q 496 1370 528 1370 q 460 1366 479 1370 q 425 1355 441 1362 l 425 1434 q 464 1443 439 1440 q 510 1447 489 1447 q 605 1419 568 1447 q 642 1333 642 1390 q 629 1278 642 1304 q 598 1233 616 1253 q 564 1200 581 1213 m 222 1044 l 164 1105 l 373 1261 l 404 1261 l 612 1105 l 553 1044 l 391 1172 l 385 1172 l 222 1044 z "},"Ỗ":{"ha":781,"x_min":46,"x_max":735,"o":"m 389 -11 q 206 52 283 -11 q 87 229 129 114 q 46 500 46 343 q 87 772 46 657 q 206 948 129 886 q 389 1010 283 1010 q 574 948 496 1010 q 693 772 652 886 q 735 500 735 657 q 693 229 735 343 q 574 52 652 114 q 389 -11 496 -11 m 389 100 q 511 149 461 100 q 588 286 562 197 q 613 500 614 376 q 586 715 612 626 q 509 852 559 804 q 389 899 459 899 q 270 850 319 899 q 194 711 220 801 q 168 500 168 622 q 194 289 168 378 q 270 150 220 199 q 389 100 319 100 m 168 1291 q 204 1407 168 1364 q 298 1450 239 1450 q 355 1438 332 1450 q 396 1411 378 1427 q 430 1384 413 1396 q 468 1373 447 1373 q 509 1393 494 1373 q 524 1450 524 1413 l 605 1450 q 592 1369 606 1404 q 549 1312 577 1333 q 481 1291 521 1291 q 426 1303 449 1291 q 385 1332 403 1316 q 350 1360 367 1348 q 311 1373 332 1373 q 267 1353 284 1373 q 248 1291 250 1333 l 168 1291 m 221 1044 l 163 1105 l 372 1261 l 403 1261 l 610 1105 l 552 1044 l 389 1172 l 384 1172 l 221 1044 z "},"Ȍ":{"ha":781,"x_min":46,"x_max":735,"o":"m 389 -11 q 206 52 283 -11 q 87 229 129 114 q 46 500 46 343 q 87 772 46 657 q 206 948 129 886 q 389 1010 283 1010 q 574 948 496 1010 q 693 772 652 886 q 735 500 735 657 q 693 229 735 343 q 574 52 652 114 q 389 -11 496 -11 m 389 100 q 511 149 461 100 q 588 286 562 197 q 613 500 614 376 q 586 715 612 626 q 509 852 559 804 q 389 899 459 899 q 270 850 319 899 q 194 711 220 801 q 168 500 168 622 q 194 289 168 378 q 270 150 220 199 q 389 100 319 100 m 245 1076 l 95 1291 l 182 1339 l 308 1105 l 245 1076 m 465 1076 l 321 1291 l 407 1339 l 532 1105 l 465 1076 z "},"Ö":{"ha":781,"x_min":46,"x_max":735,"o":"m 389 -11 q 206 52 283 -11 q 87 229 129 114 q 46 500 46 343 q 87 772 46 657 q 206 948 129 886 q 389 1010 283 1010 q 574 948 496 1010 q 693 772 652 886 q 735 500 735 657 q 693 229 735 343 q 574 52 652 114 q 389 -11 496 -11 m 389 100 q 511 149 461 100 q 588 286 562 197 q 613 500 614 376 q 586 715 612 626 q 509 852 559 804 q 389 899 459 899 q 270 850 319 899 q 194 711 220 801 q 168 500 168 622 q 194 289 168 378 q 270 150 220 199 q 389 100 319 100 m 536 1072 q 476 1096 500 1072 q 452 1156 452 1120 q 476 1216 452 1192 q 536 1240 500 1240 q 596 1216 572 1240 q 620 1156 620 1192 q 596 1096 620 1120 q 536 1072 572 1072 m 247 1072 q 186 1096 212 1072 q 161 1156 161 1120 q 186 1216 161 1192 q 247 1240 212 1240 q 306 1216 283 1240 q 330 1156 330 1192 q 306 1096 330 1120 q 247 1072 283 1072 z "},"Ȫ":{"ha":781,"x_min":46,"x_max":735,"o":"m 389 -11 q 206 52 283 -11 q 87 229 129 114 q 46 500 46 343 q 87 772 46 657 q 206 948 129 886 q 389 1010 283 1010 q 574 948 496 1010 q 693 772 652 886 q 735 500 735 657 q 693 229 735 343 q 574 52 652 114 q 389 -11 496 -11 m 389 100 q 511 149 461 100 q 588 286 562 197 q 613 500 614 376 q 586 715 612 626 q 509 852 559 804 q 389 899 459 899 q 270 850 319 899 q 194 711 220 801 q 168 500 168 622 q 194 289 168 378 q 270 150 220 199 q 389 100 319 100 m 536 1072 q 476 1096 500 1072 q 452 1156 452 1120 q 476 1216 452 1192 q 536 1240 500 1240 q 596 1216 572 1240 q 620 1156 620 1192 q 596 1096 620 1120 q 536 1072 572 1072 m 247 1072 q 186 1096 212 1072 q 161 1156 161 1120 q 186 1216 161 1192 q 247 1240 212 1240 q 306 1216 283 1240 q 330 1156 330 1192 q 306 1096 330 1120 q 247 1072 283 1072 m 146 1302 l 146 1389 l 632 1389 l 632 1302 l 146 1302 z "},"Ȱ":{"ha":781,"x_min":46,"x_max":735,"o":"m 389 -11 q 206 52 283 -11 q 87 229 129 114 q 46 500 46 343 q 87 772 46 657 q 206 948 129 886 q 389 1010 283 1010 q 574 948 496 1010 q 693 772 652 886 q 735 500 735 657 q 693 229 735 343 q 574 52 652 114 q 389 -11 496 -11 m 389 100 q 511 149 461 100 q 588 286 562 197 q 613 500 614 376 q 586 715 612 626 q 509 852 559 804 q 389 899 459 899 q 270 850 319 899 q 194 711 220 801 q 168 500 168 622 q 194 289 168 378 q 270 150 220 199 q 389 100 319 100 m 389 1070 q 327 1096 352 1070 q 301 1158 301 1121 q 327 1221 301 1196 q 389 1246 352 1246 q 452 1221 427 1246 q 477 1158 477 1196 q 452 1096 477 1121 q 389 1070 427 1070 m 146 1309 l 146 1396 l 632 1396 l 632 1309 l 146 1309 z "},"Ọ":{"ha":781,"x_min":46,"x_max":735,"o":"m 389 -11 q 206 52 283 -11 q 87 229 129 114 q 46 500 46 343 q 87 772 46 657 q 206 948 129 886 q 389 1010 283 1010 q 574 948 496 1010 q 693 772 652 886 q 735 500 735 657 q 693 229 735 343 q 574 52 652 114 q 389 -11 496 -11 m 389 100 q 511 149 461 100 q 588 286 562 197 q 613 500 614 376 q 586 715 612 626 q 509 852 559 804 q 389 899 459 899 q 270 850 319 899 q 194 711 220 801 q 168 500 168 622 q 194 289 168 378 q 270 150 220 199 q 389 100 319 100 m 389 -267 q 327 -242 352 -267 q 301 -179 301 -216 q 327 -116 301 -142 q 389 -91 352 -91 q 452 -116 427 -91 q 477 -179 477 -142 q 452 -242 477 -216 q 389 -267 427 -267 z "},"Ò":{"ha":781,"x_min":46,"x_max":735,"o":"m 389 -11 q 206 52 283 -11 q 87 229 129 114 q 46 500 46 343 q 87 772 46 657 q 206 948 129 886 q 389 1010 283 1010 q 574 948 496 1010 q 693 772 652 886 q 735 500 735 657 q 693 229 735 343 q 574 52 652 114 q 389 -11 496 -11 m 389 100 q 511 149 461 100 q 588 286 562 197 q 613 500 614 376 q 586 715 612 626 q 509 852 559 804 q 389 899 459 899 q 270 850 319 899 q 194 711 220 801 q 168 500 168 622 q 194 289 168 378 q 270 150 220 199 q 389 100 319 100 m 389 1053 l 180 1230 l 241 1306 l 444 1111 l 389 1053 z "},"Ỏ":{"ha":781,"x_min":46,"x_max":735,"o":"m 389 -11 q 206 52 283 -11 q 87 229 129 114 q 46 500 46 343 q 87 772 46 657 q 206 948 129 886 q 389 1010 283 1010 q 574 948 496 1010 q 693 772 652 886 q 735 500 735 657 q 693 229 735 343 q 574 52 652 114 q 389 -11 496 -11 m 389 100 q 511 149 461 100 q 588 286 562 197 q 613 500 614 376 q 586 715 612 626 q 509 852 559 804 q 389 899 459 899 q 270 850 319 899 q 194 711 220 801 q 168 500 168 622 q 194 289 168 378 q 270 150 220 199 q 389 100 319 100 m 408 1078 l 361 1128 q 402 1162 385 1142 q 419 1206 419 1183 q 402 1243 419 1230 q 353 1256 385 1256 q 317 1252 338 1256 q 279 1242 295 1249 l 279 1320 q 320 1330 295 1326 q 362 1333 345 1333 q 460 1304 425 1333 q 496 1219 496 1274 q 470 1134 496 1174 q 408 1078 444 1095 z "},"Ơ":{"ha":781,"x_min":46,"x_max":773,"o":"m 389 -11 q 206 52 283 -11 q 87 229 129 114 q 46 500 46 343 q 87 772 46 657 q 206 948 129 886 q 389 1010 283 1010 q 574 948 496 1010 q 693 772 652 886 q 735 500 735 657 q 693 229 735 343 q 574 52 652 114 q 389 -11 496 -11 m 389 100 q 511 149 461 100 q 588 286 562 197 q 613 500 614 376 q 586 715 612 626 q 509 852 559 804 q 389 899 459 899 q 270 850 319 899 q 194 711 220 801 q 168 500 168 622 q 194 289 168 378 q 270 150 220 199 q 389 100 319 100 m 534 884 l 532 964 q 640 1002 602 966 q 677 1107 677 1039 q 676 1139 677 1118 q 671 1173 675 1159 l 762 1190 q 771 1145 768 1171 q 773 1101 773 1119 q 739 982 773 1031 q 651 907 705 932 q 534 884 596 882 z "},"Ớ":{"ha":781,"x_min":46,"x_max":773,"o":"m 389 -11 q 206 52 283 -11 q 87 229 129 114 q 46 500 46 343 q 87 772 46 657 q 206 948 129 886 q 389 1010 283 1010 q 574 948 496 1010 q 693 772 652 886 q 735 500 735 657 q 693 229 735 343 q 574 52 652 114 q 389 -11 496 -11 m 389 100 q 511 149 461 100 q 588 286 562 197 q 613 500 614 376 q 586 715 612 626 q 509 852 559 804 q 389 899 459 899 q 270 850 319 899 q 194 711 220 801 q 168 500 168 622 q 194 289 168 378 q 270 150 220 199 q 389 100 319 100 m 534 884 l 532 964 q 640 1002 602 966 q 677 1107 677 1039 q 676 1139 677 1118 q 671 1173 675 1159 l 762 1190 q 771 1145 768 1171 q 773 1101 773 1119 q 739 982 773 1031 q 651 907 705 932 q 534 884 596 882 m 389 1053 l 335 1111 l 537 1306 l 598 1230 l 389 1053 z "},"Ợ":{"ha":781,"x_min":46,"x_max":773,"o":"m 389 -11 q 206 52 283 -11 q 87 229 129 114 q 46 500 46 343 q 87 772 46 657 q 206 948 129 886 q 389 1010 283 1010 q 574 948 496 1010 q 693 772 652 886 q 735 500 735 657 q 693 229 735 343 q 574 52 652 114 q 389 -11 496 -11 m 389 100 q 511 149 461 100 q 588 286 562 197 q 613 500 614 376 q 586 715 612 626 q 509 852 559 804 q 389 899 459 899 q 270 850 319 899 q 194 711 220 801 q 168 500 168 622 q 194 289 168 378 q 270 150 220 199 q 389 100 319 100 m 534 884 l 532 964 q 640 1002 602 966 q 677 1107 677 1039 q 676 1139 677 1118 q 671 1173 675 1159 l 762 1190 q 771 1145 768 1171 q 773 1101 773 1119 q 739 982 773 1031 q 651 907 705 932 q 534 884 596 882 m 388 -267 q 325 -242 351 -267 q 300 -179 300 -216 q 325 -116 300 -142 q 388 -91 351 -91 q 451 -116 425 -91 q 476 -179 476 -142 q 451 -242 476 -216 q 388 -267 425 -267 z "},"Ờ":{"ha":781,"x_min":46,"x_max":773,"o":"m 389 -11 q 206 52 283 -11 q 87 229 129 114 q 46 500 46 343 q 87 772 46 657 q 206 948 129 886 q 389 1010 283 1010 q 574 948 496 1010 q 693 772 652 886 q 735 500 735 657 q 693 229 735 343 q 574 52 652 114 q 389 -11 496 -11 m 389 100 q 511 149 461 100 q 588 286 562 197 q 613 500 614 376 q 586 715 612 626 q 509 852 559 804 q 389 899 459 899 q 270 850 319 899 q 194 711 220 801 q 168 500 168 622 q 194 289 168 378 q 270 150 220 199 q 389 100 319 100 m 534 884 l 532 964 q 640 1002 602 966 q 677 1107 677 1039 q 676 1139 677 1118 q 671 1173 675 1159 l 762 1190 q 771 1145 768 1171 q 773 1101 773 1119 q 739 982 773 1031 q 651 907 705 932 q 534 884 596 882 m 389 1053 l 180 1230 l 241 1306 l 444 1111 l 389 1053 z "},"Ở":{"ha":781,"x_min":46,"x_max":773,"o":"m 389 -11 q 206 52 283 -11 q 87 229 129 114 q 46 500 46 343 q 87 772 46 657 q 206 948 129 886 q 389 1010 283 1010 q 574 948 496 1010 q 693 772 652 886 q 735 500 735 657 q 693 229 735 343 q 574 52 652 114 q 389 -11 496 -11 m 389 100 q 511 149 461 100 q 588 286 562 197 q 613 500 614 376 q 586 715 612 626 q 509 852 559 804 q 389 899 459 899 q 270 850 319 899 q 194 711 220 801 q 168 500 168 622 q 194 289 168 378 q 270 150 220 199 q 389 100 319 100 m 534 884 l 532 964 q 640 1002 602 966 q 677 1107 677 1039 q 676 1139 677 1118 q 671 1173 675 1159 l 762 1190 q 771 1145 768 1171 q 773 1101 773 1119 q 739 982 773 1031 q 651 907 705 932 q 534 884 596 882 m 408 1078 l 361 1128 q 402 1162 385 1142 q 419 1206 419 1183 q 402 1243 419 1230 q 353 1256 385 1256 q 317 1252 338 1256 q 279 1242 295 1249 l 279 1320 q 320 1330 295 1326 q 362 1333 345 1333 q 460 1304 425 1333 q 496 1219 496 1274 q 470 1134 496 1174 q 408 1078 444 1095 z "},"Ỡ":{"ha":781,"x_min":46,"x_max":773,"o":"m 389 -11 q 206 52 283 -11 q 87 229 129 114 q 46 500 46 343 q 87 772 46 657 q 206 948 129 886 q 389 1010 283 1010 q 574 948 496 1010 q 693 772 652 886 q 735 500 735 657 q 693 229 735 343 q 574 52 652 114 q 389 -11 496 -11 m 389 100 q 511 149 461 100 q 588 286 562 197 q 613 500 614 376 q 586 715 612 626 q 509 852 559 804 q 389 899 459 899 q 270 850 319 899 q 194 711 220 801 q 168 500 168 622 q 194 289 168 378 q 270 150 220 199 q 389 100 319 100 m 534 884 l 532 964 q 640 1002 602 966 q 677 1107 677 1039 q 676 1139 677 1118 q 671 1173 675 1159 l 762 1190 q 771 1145 768 1171 q 773 1101 773 1119 q 739 982 773 1031 q 651 907 705 932 q 534 884 596 882 m 171 1078 q 206 1194 171 1149 q 298 1238 241 1238 q 357 1226 334 1238 q 398 1197 380 1213 q 431 1168 415 1181 q 468 1156 448 1156 q 511 1180 496 1156 q 526 1238 526 1205 l 606 1238 q 572 1124 608 1171 q 476 1078 537 1078 q 420 1091 444 1078 q 379 1120 397 1103 q 343 1148 361 1136 q 305 1161 326 1161 q 265 1138 279 1161 q 251 1078 251 1115 l 171 1078 z "},"Ő":{"ha":781,"x_min":46,"x_max":735,"o":"m 389 -11 q 206 52 283 -11 q 87 229 129 114 q 46 500 46 343 q 87 772 46 657 q 206 948 129 886 q 389 1010 283 1010 q 574 948 496 1010 q 693 772 652 886 q 735 500 735 657 q 693 229 735 343 q 574 52 652 114 q 389 -11 496 -11 m 389 100 q 511 149 461 100 q 588 286 562 197 q 613 500 614 376 q 586 715 612 626 q 509 852 559 804 q 389 899 459 899 q 270 850 319 899 q 194 711 220 801 q 168 500 168 622 q 194 289 168 378 q 270 150 220 199 q 389 100 319 100 m 311 1076 l 244 1105 l 376 1339 l 457 1291 l 311 1076 m 533 1076 l 471 1105 l 597 1339 l 681 1291 l 533 1076 z "},"Ȏ":{"ha":781,"x_min":46,"x_max":735,"o":"m 389 -11 q 206 52 283 -11 q 87 229 129 114 q 46 500 46 343 q 87 772 46 657 q 206 948 129 886 q 389 1010 283 1010 q 574 948 496 1010 q 693 772 652 886 q 735 500 735 657 q 693 229 735 343 q 574 52 652 114 q 389 -11 496 -11 m 389 100 q 511 149 461 100 q 588 286 562 197 q 613 500 614 376 q 586 715 612 626 q 509 852 559 804 q 389 899 459 899 q 270 850 319 899 q 194 711 220 801 q 168 500 168 622 q 194 289 168 378 q 270 150 220 199 q 389 100 319 100 m 388 1251 q 499 1227 449 1251 q 578 1162 549 1204 q 605 1063 607 1120 l 528 1063 q 487 1146 528 1118 q 388 1175 446 1175 q 290 1146 331 1175 q 250 1063 250 1118 l 172 1063 q 202 1162 172 1120 q 280 1227 231 1204 q 388 1251 330 1251 z "},"Ō":{"ha":781,"x_min":46,"x_max":735,"o":"m 389 -11 q 206 52 283 -11 q 87 229 129 114 q 46 500 46 343 q 87 772 46 657 q 206 948 129 886 q 389 1010 283 1010 q 574 948 496 1010 q 693 772 652 886 q 735 500 735 657 q 693 229 735 343 q 574 52 652 114 q 389 -11 496 -11 m 389 100 q 511 149 461 100 q 588 286 562 197 q 613 500 614 376 q 586 715 612 626 q 509 852 559 804 q 389 899 459 899 q 270 850 319 899 q 194 711 220 801 q 168 500 168 622 q 194 289 168 378 q 270 150 220 199 q 389 100 319 100 m 146 1111 l 146 1198 l 632 1198 l 632 1111 l 146 1111 z "},"Ṓ":{"ha":781,"x_min":46,"x_max":735,"o":"m 146 1111 l 146 1198 l 632 1198 l 632 1111 l 146 1111 m 389 1251 l 335 1309 l 537 1504 l 598 1428 l 389 1251 m 389 -11 q 206 52 283 -11 q 87 229 129 114 q 46 500 46 343 q 87 772 46 657 q 206 948 129 886 q 389 1010 283 1010 q 574 948 496 1010 q 693 772 652 886 q 735 500 735 657 q 693 229 735 343 q 574 52 652 114 q 389 -11 496 -11 m 389 100 q 511 149 461 100 q 588 286 562 197 q 613 500 614 376 q 586 715 612 626 q 509 852 559 804 q 389 899 459 899 q 270 850 319 899 q 194 711 220 801 q 168 500 168 622 q 194 289 168 378 q 270 150 220 199 q 389 100 319 100 z "},"Ṑ":{"ha":781,"x_min":46,"x_max":735,"o":"m 389 -11 q 206 52 283 -11 q 87 229 129 114 q 46 500 46 343 q 87 772 46 657 q 206 948 129 886 q 389 1010 283 1010 q 574 948 496 1010 q 693 772 652 886 q 735 500 735 657 q 693 229 735 343 q 574 52 652 114 q 389 -11 496 -11 m 389 100 q 511 149 461 100 q 588 286 562 197 q 613 500 614 376 q 586 715 612 626 q 509 852 559 804 q 389 899 459 899 q 270 850 319 899 q 194 711 220 801 q 168 500 168 622 q 194 289 168 378 q 270 150 220 199 q 389 100 319 100 m 146 1111 l 146 1198 l 632 1198 l 632 1111 l 146 1111 m 389 1251 l 180 1428 l 241 1504 l 444 1309 l 389 1251 z "},"Ǫ":{"ha":781,"x_min":46,"x_max":735,"o":"m 389 -11 q 206 52 283 -11 q 87 229 129 114 q 46 500 46 343 q 87 772 46 657 q 206 948 129 886 q 389 1010 283 1010 q 574 948 496 1010 q 693 772 652 886 q 735 500 735 657 q 693 229 735 343 q 574 52 652 114 q 389 -11 496 -11 m 389 100 q 511 149 461 100 q 588 286 562 197 q 613 500 614 376 q 586 715 612 626 q 509 852 559 804 q 389 899 459 899 q 270 850 319 899 q 194 711 220 801 q 168 500 168 622 q 194 289 168 378 q 270 150 220 199 q 389 100 319 100 m 378 -278 q 294 -245 327 -278 q 260 -161 260 -213 q 297 -66 260 -109 q 392 24 334 -23 l 457 0 q 402 -50 429 -26 q 358 -98 376 -74 q 340 -151 340 -123 q 357 -189 340 -175 q 399 -203 374 -203 q 441 -195 419 -203 q 475 -178 464 -186 l 475 -252 q 431 -271 460 -263 q 378 -278 402 -278 z "},"Ø":{"ha":781,"x_min":16,"x_max":765,"o":"m 389 -11 q 206 52 283 -11 q 87 229 129 114 q 46 500 46 343 q 87 772 46 657 q 206 948 129 886 q 389 1010 283 1010 q 574 948 496 1010 q 693 772 652 886 q 735 500 735 657 q 693 229 735 343 q 574 52 652 114 q 389 -11 496 -11 m 389 100 q 511 149 461 100 q 588 286 562 197 q 613 500 614 376 q 586 715 612 626 q 509 852 559 804 q 389 899 459 899 q 270 850 319 899 q 194 711 220 801 q 168 500 168 622 q 194 289 168 378 q 270 150 220 199 q 389 100 319 100 m 16 0 l 656 1000 l 765 1000 l 125 0 l 16 0 z "},"Ǿ":{"ha":781,"x_min":16,"x_max":765,"o":"m 389 -11 q 206 52 283 -11 q 87 229 129 114 q 46 500 46 343 q 87 772 46 657 q 206 948 129 886 q 389 1010 283 1010 q 574 948 496 1010 q 693 772 652 886 q 735 500 735 657 q 693 229 735 343 q 574 52 652 114 q 389 -11 496 -11 m 389 100 q 511 149 461 100 q 588 286 562 197 q 613 500 614 376 q 586 715 612 626 q 509 852 559 804 q 389 899 459 899 q 270 850 319 899 q 194 711 220 801 q 168 500 168 622 q 194 289 168 378 q 270 150 220 199 q 389 100 319 100 m 16 0 l 656 1000 l 765 1000 l 125 0 l 16 0 m 389 1053 l 335 1111 l 537 1306 l 598 1230 l 389 1053 z "},"Õ":{"ha":781,"x_min":46,"x_max":735,"o":"m 389 -11 q 206 52 283 -11 q 87 229 129 114 q 46 500 46 343 q 87 772 46 657 q 206 948 129 886 q 389 1010 283 1010 q 574 948 496 1010 q 693 772 652 886 q 735 500 735 657 q 693 229 735 343 q 574 52 652 114 q 389 -11 496 -11 m 389 100 q 511 149 461 100 q 588 286 562 197 q 613 500 614 376 q 586 715 612 626 q 509 852 559 804 q 389 899 459 899 q 270 850 319 899 q 194 711 220 801 q 168 500 168 622 q 194 289 168 378 q 270 150 220 199 q 389 100 319 100 m 171 1078 q 206 1194 171 1149 q 298 1238 241 1238 q 357 1226 334 1238 q 398 1197 380 1213 q 431 1168 415 1181 q 468 1156 448 1156 q 511 1180 496 1156 q 526 1238 526 1205 l 606 1238 q 572 1124 608 1171 q 476 1078 537 1078 q 420 1091 444 1078 q 379 1120 397 1103 q 343 1148 361 1136 q 305 1161 326 1161 q 265 1138 279 1161 q 251 1078 251 1115 l 171 1078 z "},"Ṍ":{"ha":781,"x_min":46,"x_max":735,"o":"m 389 -11 q 206 52 283 -11 q 87 229 129 114 q 46 500 46 343 q 87 772 46 657 q 206 948 129 886 q 389 1010 283 1010 q 574 948 496 1010 q 693 772 652 886 q 735 500 735 657 q 693 229 735 343 q 574 52 652 114 q 389 -11 496 -11 m 389 100 q 511 149 461 100 q 588 286 562 197 q 613 500 614 376 q 586 715 612 626 q 509 852 559 804 q 389 899 459 899 q 270 850 319 899 q 194 711 220 801 q 168 500 168 622 q 194 289 168 378 q 270 150 220 199 q 389 100 319 100 m 171 1078 q 206 1194 171 1149 q 298 1238 241 1238 q 357 1226 334 1238 q 398 1197 380 1213 q 431 1168 415 1181 q 468 1156 448 1156 q 511 1180 496 1156 q 526 1238 526 1205 l 606 1238 q 572 1124 608 1171 q 476 1078 537 1078 q 420 1091 444 1078 q 379 1120 397 1103 q 343 1148 361 1136 q 305 1161 326 1161 q 265 1138 279 1161 q 251 1078 251 1115 l 171 1078 m 389 1275 l 335 1333 l 537 1529 l 598 1453 l 389 1275 z "},"Ṏ":{"ha":781,"x_min":46,"x_max":735,"o":"m 389 -11 q 206 52 283 -11 q 87 229 129 114 q 46 500 46 343 q 87 772 46 657 q 206 948 129 886 q 389 1010 283 1010 q 574 948 496 1010 q 693 772 652 886 q 735 500 735 657 q 693 229 735 343 q 574 52 652 114 q 389 -11 496 -11 m 389 100 q 511 149 461 100 q 588 286 562 197 q 613 500 614 376 q 586 715 612 626 q 509 852 559 804 q 389 899 459 899 q 270 850 319 899 q 194 711 220 801 q 168 500 168 622 q 194 289 168 378 q 270 150 220 199 q 389 100 319 100 m 171 1078 q 206 1194 171 1149 q 298 1238 241 1238 q 357 1226 334 1238 q 398 1197 380 1213 q 431 1168 415 1181 q 468 1156 448 1156 q 511 1180 496 1156 q 526 1238 526 1205 l 606 1238 q 572 1124 608 1171 q 476 1078 537 1078 q 420 1091 444 1078 q 379 1120 397 1103 q 343 1148 361 1136 q 305 1161 326 1161 q 265 1138 279 1161 q 251 1078 251 1115 l 171 1078 m 536 1294 q 476 1318 500 1294 q 452 1378 452 1343 q 476 1438 452 1414 q 536 1462 500 1462 q 596 1438 572 1462 q 620 1378 620 1414 q 596 1318 620 1343 q 536 1294 572 1294 m 247 1294 q 186 1318 212 1294 q 161 1378 161 1343 q 186 1438 161 1414 q 247 1462 212 1462 q 306 1438 283 1462 q 330 1378 330 1414 q 306 1318 330 1343 q 247 1294 283 1294 z "},"Ȭ":{"ha":781,"x_min":46,"x_max":735,"o":"m 389 -11 q 206 52 283 -11 q 87 229 129 114 q 46 500 46 343 q 87 772 46 657 q 206 948 129 886 q 389 1010 283 1010 q 574 948 496 1010 q 693 772 652 886 q 735 500 735 657 q 693 229 735 343 q 574 52 652 114 q 389 -11 496 -11 m 389 100 q 511 149 461 100 q 588 286 562 197 q 613 500 614 376 q 586 715 612 626 q 509 852 559 804 q 389 899 459 899 q 270 850 319 899 q 194 711 220 801 q 168 500 168 622 q 194 289 168 378 q 270 150 220 199 q 389 100 319 100 m 171 1078 q 206 1194 171 1149 q 298 1238 241 1238 q 357 1226 334 1238 q 398 1197 380 1213 q 431 1168 415 1181 q 468 1156 448 1156 q 511 1180 496 1156 q 526 1238 526 1205 l 606 1238 q 572 1124 608 1171 q 476 1078 537 1078 q 420 1091 444 1078 q 379 1120 397 1103 q 343 1148 361 1136 q 305 1161 326 1161 q 265 1138 279 1161 q 251 1078 251 1115 l 171 1078 m 146 1333 l 146 1420 l 632 1420 l 632 1333 l 146 1333 z "},"Œ":{"ha":781,"x_min":35,"x_max":757,"o":"m 277 -11 q 151 50 205 -11 q 66 226 97 111 q 35 500 35 340 q 66 773 35 659 q 151 949 96 888 q 277 1010 205 1010 q 374 975 335 1010 q 435 886 414 939 q 461 783 456 833 l 437 783 l 437 1000 l 757 1000 l 757 888 l 540 888 l 540 564 l 736 564 l 736 453 l 540 453 l 540 111 l 757 111 l 757 0 l 437 0 l 437 221 l 461 221 q 435 115 456 169 q 374 25 414 62 q 277 -11 335 -11 m 285 98 q 392 204 351 98 q 434 500 434 311 q 393 795 434 688 q 286 902 352 902 q 186 795 220 902 q 152 500 152 688 q 185 206 152 315 q 285 98 219 98 z "},"P":{"ha":781,"x_min":127,"x_max":713,"o":"m 217 397 l 217 509 l 401 509 q 501 533 458 509 q 568 601 544 557 q 591 703 591 644 q 537 839 591 790 q 393 888 483 888 l 217 888 l 217 1000 l 403 1000 q 566 963 496 1000 q 674 861 635 927 q 713 705 713 795 q 676 547 713 616 q 570 437 638 477 q 410 397 501 397 l 217 397 m 127 0 l 127 1000 l 250 1000 l 250 0 l 127 0 z "},"Þ":{"ha":781,"x_min":122,"x_max":719,"o":"m 209 197 l 209 308 l 422 308 q 514 332 475 308 q 575 401 553 357 q 597 503 597 445 q 549 641 597 593 q 419 689 500 689 l 209 689 l 209 800 l 420 800 q 575 765 508 800 q 681 664 643 730 q 719 506 719 597 q 681 346 719 416 q 577 236 644 276 q 423 197 511 197 l 209 197 m 122 0 l 122 1000 l 244 1000 l 244 0 l 122 0 z "},"Q":{"ha":781,"x_min":46,"x_max":755,"o":"m 392 -11 q 207 51 285 -11 q 88 227 130 113 q 46 500 46 342 q 88 773 46 659 q 207 949 130 887 q 392 1010 285 1010 q 576 949 500 1010 q 694 773 653 887 q 735 500 735 659 q 709 275 735 374 q 633 109 683 176 l 608 79 q 512 13 566 36 q 392 -11 457 -11 m 627 0 l 553 98 l 509 133 l 338 366 l 472 366 l 597 180 l 650 138 l 755 0 l 627 0 m 392 100 q 515 150 465 100 q 591 289 566 199 q 616 500 616 378 q 589 713 615 623 q 513 851 563 802 q 392 899 463 899 q 271 851 322 899 q 193 714 220 804 q 165 500 165 625 q 193 286 165 376 q 271 149 220 197 q 392 100 322 100 z "},"R":{"ha":781,"x_min":98,"x_max":735,"o":"m 178 406 l 178 511 l 369 511 q 466 535 423 511 q 532 602 508 559 q 556 704 556 646 q 502 840 556 791 q 362 888 448 888 l 178 888 l 178 1000 l 381 1000 q 531 965 464 1000 q 638 867 599 931 q 678 713 678 803 q 639 558 678 628 q 528 447 600 488 q 359 406 456 406 l 178 406 m 98 0 l 98 1000 l 220 1000 l 220 0 l 98 0 m 597 0 l 351 425 l 442 498 l 735 0 l 597 0 z "},"Ŕ":{"ha":781,"x_min":98,"x_max":735,"o":"m 178 406 l 178 511 l 369 511 q 466 535 423 511 q 532 602 508 559 q 556 704 556 646 q 502 840 556 791 q 362 888 448 888 l 178 888 l 178 1000 l 381 1000 q 531 965 464 1000 q 638 867 599 931 q 678 713 678 803 q 639 558 678 628 q 528 447 600 488 q 359 406 456 406 l 178 406 m 98 0 l 98 1000 l 220 1000 l 220 0 l 98 0 m 597 0 l 351 425 l 442 498 l 735 0 l 597 0 m 358 1053 l 304 1111 l 506 1306 l 567 1230 l 358 1053 z "},"Ř":{"ha":781,"x_min":98,"x_max":735,"o":"m 178 406 l 178 511 l 369 511 q 466 535 423 511 q 532 602 508 559 q 556 704 556 646 q 502 840 556 791 q 362 888 448 888 l 178 888 l 178 1000 l 381 1000 q 531 965 464 1000 q 638 867 599 931 q 678 713 678 803 q 639 558 678 628 q 528 447 600 488 q 359 406 456 406 l 178 406 m 98 0 l 98 1000 l 220 1000 l 220 0 l 98 0 m 597 0 l 351 425 l 442 498 l 735 0 l 597 0 m 193 1264 l 355 1134 l 361 1134 l 524 1264 l 582 1200 l 374 1047 l 343 1047 l 134 1200 l 193 1264 z "},"Ŗ":{"ha":781,"x_min":98,"x_max":735,"o":"m 178 406 l 178 511 l 369 511 q 466 535 423 511 q 532 602 508 559 q 556 704 556 646 q 502 840 556 791 q 362 888 448 888 l 178 888 l 178 1000 l 381 1000 q 531 965 464 1000 q 638 867 599 931 q 678 713 678 803 q 639 558 678 628 q 528 447 600 488 q 359 406 456 406 l 178 406 m 98 0 l 98 1000 l 220 1000 l 220 0 l 98 0 m 597 0 l 351 425 l 442 498 l 735 0 l 597 0 m 355 -373 l 323 -336 l 374 -283 q 403 -251 392 -265 q 419 -224 414 -237 q 423 -201 424 -212 l 444 -198 q 432 -222 441 -211 q 404 -233 424 -233 q 359 -214 381 -233 q 338 -164 338 -195 q 358 -114 338 -132 q 404 -95 379 -95 q 454 -116 434 -95 q 473 -175 473 -137 q 462 -232 473 -205 q 435 -279 450 -259 q 410 -311 420 -300 l 355 -373 z "},"Ȑ":{"ha":781,"x_min":64,"x_max":735,"o":"m 178 406 l 178 511 l 369 511 q 466 535 423 511 q 532 602 508 559 q 556 704 556 646 q 502 840 556 791 q 362 888 448 888 l 178 888 l 178 1000 l 381 1000 q 531 965 464 1000 q 638 867 599 931 q 678 713 678 803 q 639 558 678 628 q 528 447 600 488 q 359 406 456 406 l 178 406 m 98 0 l 98 1000 l 220 1000 l 220 0 l 98 0 m 597 0 l 351 425 l 442 498 l 735 0 l 597 0 m 214 1076 l 64 1291 l 151 1339 l 277 1105 l 214 1076 m 434 1076 l 290 1291 l 376 1339 l 500 1105 l 434 1076 z "},"Ṛ":{"ha":781,"x_min":98,"x_max":735,"o":"m 178 406 l 178 511 l 369 511 q 466 535 423 511 q 532 602 508 559 q 556 704 556 646 q 502 840 556 791 q 362 888 448 888 l 178 888 l 178 1000 l 381 1000 q 531 965 464 1000 q 638 867 599 931 q 678 713 678 803 q 639 558 678 628 q 528 447 600 488 q 359 406 456 406 l 178 406 m 98 0 l 98 1000 l 220 1000 l 220 0 l 98 0 m 597 0 l 351 425 l 442 498 l 735 0 l 597 0 m 397 -267 q 335 -242 360 -267 q 309 -179 309 -216 q 335 -116 309 -142 q 397 -91 360 -91 q 460 -116 435 -91 q 486 -179 486 -142 q 460 -242 486 -216 q 397 -267 435 -267 z "},"Ȓ":{"ha":781,"x_min":98,"x_max":735,"o":"m 178 406 l 178 511 l 369 511 q 466 535 423 511 q 532 602 508 559 q 556 704 556 646 q 502 840 556 791 q 362 888 448 888 l 178 888 l 178 1000 l 381 1000 q 531 965 464 1000 q 638 867 599 931 q 678 713 678 803 q 639 558 678 628 q 528 447 600 488 q 359 406 456 406 l 178 406 m 98 0 l 98 1000 l 220 1000 l 220 0 l 98 0 m 597 0 l 351 425 l 442 498 l 735 0 l 597 0 m 357 1251 q 468 1227 418 1251 q 547 1162 518 1204 q 574 1063 576 1120 l 496 1063 q 456 1146 496 1118 q 357 1175 415 1175 q 259 1146 300 1175 q 218 1063 218 1118 l 141 1063 q 171 1162 141 1120 q 249 1227 200 1204 q 357 1251 298 1251 z "},"Ṟ":{"ha":781,"x_min":98,"x_max":735,"o":"m 178 406 l 178 511 l 369 511 q 466 535 423 511 q 532 602 508 559 q 556 704 556 646 q 502 840 556 791 q 362 888 448 888 l 178 888 l 178 1000 l 381 1000 q 531 965 464 1000 q 638 867 599 931 q 678 713 678 803 q 639 558 678 628 q 528 447 600 488 q 359 406 456 406 l 178 406 m 98 0 l 98 1000 l 220 1000 l 220 0 l 98 0 m 597 0 l 351 425 l 442 498 l 735 0 l 597 0 m 161 -270 l 161 -193 l 633 -193 l 633 -270 l 161 -270 z "},"S":{"ha":781,"x_min":71,"x_max":697,"o":"m 399 -11 q 257 18 323 -11 q 142 99 191 47 q 71 217 93 150 l 184 264 q 235 177 202 214 q 311 120 269 140 q 400 100 354 100 q 489 122 449 100 q 552 181 528 143 q 575 269 575 219 q 549 358 575 323 q 481 417 524 393 q 388 461 439 441 q 286 502 337 480 q 193 555 235 524 q 125 633 151 586 q 99 750 99 680 q 136 890 99 832 q 237 980 173 949 q 380 1010 300 1010 q 506 987 449 1010 q 604 924 563 964 q 667 833 646 884 l 556 788 q 510 849 537 824 q 448 886 482 873 q 377 899 414 899 q 269 863 317 899 q 221 754 221 827 q 247 666 221 701 q 315 609 273 632 q 408 567 357 586 q 510 528 459 549 q 603 476 561 507 q 671 397 646 445 q 697 278 697 350 q 658 127 697 193 q 552 26 619 62 q 399 -11 484 -11 z "},"Ś":{"ha":781,"x_min":71,"x_max":697,"o":"m 399 -11 q 257 18 323 -11 q 142 99 191 47 q 71 217 93 150 l 184 264 q 235 177 202 214 q 311 120 269 140 q 400 100 354 100 q 489 122 449 100 q 552 181 528 143 q 575 269 575 219 q 549 358 575 323 q 481 417 524 393 q 388 461 439 441 q 286 502 337 480 q 193 555 235 524 q 125 633 151 586 q 99 750 99 680 q 136 890 99 832 q 237 980 173 949 q 380 1010 300 1010 q 506 987 449 1010 q 604 924 563 964 q 667 833 646 884 l 556 788 q 510 849 537 824 q 448 886 482 873 q 377 899 414 899 q 269 863 317 899 q 221 754 221 827 q 247 666 221 701 q 315 609 273 632 q 408 567 357 586 q 510 528 459 549 q 603 476 561 507 q 671 397 646 445 q 697 278 697 350 q 658 127 697 193 q 552 26 619 62 q 399 -11 484 -11 m 388 1053 l 334 1111 l 536 1306 l 597 1230 l 388 1053 z "},"Ṥ":{"ha":781,"x_min":71,"x_max":697,"o":"m 399 -11 q 257 18 323 -11 q 142 99 191 47 q 71 217 93 150 l 184 264 q 235 177 202 214 q 311 120 269 140 q 400 100 354 100 q 489 122 449 100 q 552 181 528 143 q 575 269 575 219 q 549 358 575 323 q 481 417 524 393 q 388 461 439 441 q 286 502 337 480 q 193 555 235 524 q 125 633 151 586 q 99 750 99 680 q 136 890 99 832 q 237 980 173 949 q 380 1010 300 1010 q 506 987 449 1010 q 604 924 563 964 q 667 833 646 884 l 556 788 q 510 849 537 824 q 448 886 482 873 q 377 899 414 899 q 269 863 317 899 q 221 754 221 827 q 247 666 221 701 q 315 609 273 632 q 408 567 357 586 q 510 528 459 549 q 603 476 561 507 q 671 397 646 445 q 697 278 697 350 q 658 127 697 193 q 552 26 619 62 q 399 -11 484 -11 m 470 1078 l 414 1128 l 578 1364 l 667 1286 l 470 1078 m 271 1115 q 209 1140 234 1115 q 183 1203 183 1166 q 209 1266 183 1240 q 271 1291 234 1291 q 334 1266 309 1291 q 359 1203 359 1240 q 334 1140 359 1166 q 271 1115 309 1115 z "},"Š":{"ha":781,"x_min":71,"x_max":697,"o":"m 399 -11 q 257 18 323 -11 q 142 99 191 47 q 71 217 93 150 l 184 264 q 235 177 202 214 q 311 120 269 140 q 400 100 354 100 q 489 122 449 100 q 552 181 528 143 q 575 269 575 219 q 549 358 575 323 q 481 417 524 393 q 388 461 439 441 q 286 502 337 480 q 193 555 235 524 q 125 633 151 586 q 99 750 99 680 q 136 890 99 832 q 237 980 173 949 q 380 1010 300 1010 q 506 987 449 1010 q 604 924 563 964 q 667 833 646 884 l 556 788 q 510 849 537 824 q 448 886 482 873 q 377 899 414 899 q 269 863 317 899 q 221 754 221 827 q 247 666 221 701 q 315 609 273 632 q 408 567 357 586 q 510 528 459 549 q 603 476 561 507 q 671 397 646 445 q 697 278 697 350 q 658 127 697 193 q 552 26 619 62 q 399 -11 484 -11 m 222 1264 l 385 1134 l 391 1134 l 553 1264 l 612 1200 l 404 1047 l 373 1047 l 164 1200 l 222 1264 z "},"Ṧ":{"ha":781,"x_min":71,"x_max":697,"o":"m 399 -11 q 257 18 323 -11 q 142 99 191 47 q 71 217 93 150 l 184 264 q 235 177 202 214 q 311 120 269 140 q 400 100 354 100 q 489 122 449 100 q 552 181 528 143 q 575 269 575 219 q 549 358 575 323 q 481 417 524 393 q 388 461 439 441 q 286 502 337 480 q 193 555 235 524 q 125 633 151 586 q 99 750 99 680 q 136 890 99 832 q 237 980 173 949 q 380 1010 300 1010 q 506 987 449 1010 q 604 924 563 964 q 667 833 646 884 l 556 788 q 510 849 537 824 q 448 886 482 873 q 377 899 414 899 q 269 863 317 899 q 221 754 221 827 q 247 666 221 701 q 315 609 273 632 q 408 567 357 586 q 510 528 459 549 q 603 476 561 507 q 671 397 646 445 q 697 278 697 350 q 658 127 697 193 q 552 26 619 62 q 399 -11 484 -11 m 222 1264 l 385 1134 l 391 1134 l 553 1264 l 612 1200 l 404 1047 l 373 1047 l 164 1200 l 222 1264 m 388 1253 q 325 1279 351 1253 q 300 1341 300 1304 q 325 1404 300 1379 q 388 1430 351 1430 q 451 1404 425 1430 q 476 1341 476 1379 q 451 1279 476 1304 q 388 1253 425 1253 z "},"Ş":{"ha":781,"x_min":71,"x_max":697,"o":"m 399 -11 q 257 18 323 -11 q 142 99 191 47 q 71 217 93 150 l 184 264 q 235 177 202 214 q 311 120 269 140 q 400 100 354 100 q 489 122 449 100 q 552 181 528 143 q 575 269 575 219 q 549 358 575 323 q 481 417 524 393 q 388 461 439 441 q 286 502 337 480 q 193 555 235 524 q 125 633 151 586 q 99 750 99 680 q 136 890 99 832 q 237 980 173 949 q 380 1010 300 1010 q 506 987 449 1010 q 604 924 563 964 q 667 833 646 884 l 556 788 q 510 849 537 824 q 448 886 482 873 q 377 899 414 899 q 269 863 317 899 q 221 754 221 827 q 247 666 221 701 q 315 609 273 632 q 408 567 357 586 q 510 528 459 549 q 603 476 561 507 q 671 397 646 445 q 697 278 697 350 q 658 127 697 193 q 552 26 619 62 q 399 -11 484 -11 m 285 -316 l 285 -247 q 389 -234 353 -250 q 425 -183 425 -218 q 397 -142 425 -159 q 323 -125 370 -125 l 361 0 l 423 0 l 389 -111 l 378 -75 q 470 -115 439 -85 q 502 -191 502 -145 q 448 -283 502 -250 q 285 -316 394 -317 z "},"Ŝ":{"ha":781,"x_min":71,"x_max":697,"o":"m 399 -11 q 257 18 323 -11 q 142 99 191 47 q 71 217 93 150 l 184 264 q 235 177 202 214 q 311 120 269 140 q 400 100 354 100 q 489 122 449 100 q 552 181 528 143 q 575 269 575 219 q 549 358 575 323 q 481 417 524 393 q 388 461 439 441 q 286 502 337 480 q 193 555 235 524 q 125 633 151 586 q 99 750 99 680 q 136 890 99 832 q 237 980 173 949 q 380 1010 300 1010 q 506 987 449 1010 q 604 924 563 964 q 667 833 646 884 l 556 788 q 510 849 537 824 q 448 886 482 873 q 377 899 414 899 q 269 863 317 899 q 221 754 221 827 q 247 666 221 701 q 315 609 273 632 q 408 567 357 586 q 510 528 459 549 q 603 476 561 507 q 671 397 646 445 q 697 278 697 350 q 658 127 697 193 q 552 26 619 62 q 399 -11 484 -11 m 225 1053 l 167 1116 l 376 1270 l 407 1270 l 614 1116 l 556 1053 l 393 1183 l 388 1183 l 225 1053 z "},"Ș":{"ha":781,"x_min":71,"x_max":697,"o":"m 399 -11 q 257 18 323 -11 q 142 99 191 47 q 71 217 93 150 l 184 264 q 235 177 202 214 q 311 120 269 140 q 400 100 354 100 q 489 122 449 100 q 552 181 528 143 q 575 269 575 219 q 549 358 575 323 q 481 417 524 393 q 388 461 439 441 q 286 502 337 480 q 193 555 235 524 q 125 633 151 586 q 99 750 99 680 q 136 890 99 832 q 237 980 173 949 q 380 1010 300 1010 q 506 987 449 1010 q 604 924 563 964 q 667 833 646 884 l 556 788 q 510 849 537 824 q 448 886 482 873 q 377 899 414 899 q 269 863 317 899 q 221 754 221 827 q 247 666 221 701 q 315 609 273 632 q 408 567 357 586 q 510 528 459 549 q 603 476 561 507 q 671 397 646 445 q 697 278 697 350 q 658 127 697 193 q 552 26 619 62 q 399 -11 484 -11 m 350 -373 l 317 -336 l 369 -283 q 398 -251 387 -265 q 414 -224 409 -237 q 418 -201 418 -212 l 438 -198 q 427 -222 435 -211 q 399 -233 418 -233 q 354 -214 376 -233 q 332 -164 332 -195 q 353 -114 332 -132 q 399 -95 374 -95 q 448 -116 429 -95 q 468 -175 468 -137 q 456 -232 468 -205 q 430 -279 445 -259 q 404 -311 414 -300 l 350 -373 z "},"Ṡ":{"ha":781,"x_min":71,"x_max":697,"o":"m 399 -11 q 257 18 323 -11 q 142 99 191 47 q 71 217 93 150 l 184 264 q 235 177 202 214 q 311 120 269 140 q 400 100 354 100 q 489 122 449 100 q 552 181 528 143 q 575 269 575 219 q 549 358 575 323 q 481 417 524 393 q 388 461 439 441 q 286 502 337 480 q 193 555 235 524 q 125 633 151 586 q 99 750 99 680 q 136 890 99 832 q 237 980 173 949 q 380 1010 300 1010 q 506 987 449 1010 q 604 924 563 964 q 667 833 646 884 l 556 788 q 510 849 537 824 q 448 886 482 873 q 377 899 414 899 q 269 863 317 899 q 221 754 221 827 q 247 666 221 701 q 315 609 273 632 q 408 567 357 586 q 510 528 459 549 q 603 476 561 507 q 671 397 646 445 q 697 278 697 350 q 658 127 697 193 q 552 26 619 62 q 399 -11 484 -11 m 388 1070 q 325 1096 351 1070 q 300 1158 300 1121 q 325 1221 300 1196 q 388 1246 351 1246 q 451 1221 425 1246 q 476 1158 476 1196 q 451 1096 476 1121 q 388 1070 425 1070 z "},"Ṣ":{"ha":781,"x_min":71,"x_max":697,"o":"m 399 -11 q 257 18 323 -11 q 142 99 191 47 q 71 217 93 150 l 184 264 q 235 177 202 214 q 311 120 269 140 q 400 100 354 100 q 489 122 449 100 q 552 181 528 143 q 575 269 575 219 q 549 358 575 323 q 481 417 524 393 q 388 461 439 441 q 286 502 337 480 q 193 555 235 524 q 125 633 151 586 q 99 750 99 680 q 136 890 99 832 q 237 980 173 949 q 380 1010 300 1010 q 506 987 449 1010 q 604 924 563 964 q 667 833 646 884 l 556 788 q 510 849 537 824 q 448 886 482 873 q 377 899 414 899 q 269 863 317 899 q 221 754 221 827 q 247 666 221 701 q 315 609 273 632 q 408 567 357 586 q 510 528 459 549 q 603 476 561 507 q 671 397 646 445 q 697 278 697 350 q 658 127 697 193 q 552 26 619 62 q 399 -11 484 -11 m 392 -267 q 329 -242 355 -267 q 304 -179 304 -216 q 329 -116 304 -142 q 392 -91 355 -91 q 455 -116 429 -91 q 480 -179 480 -142 q 455 -242 480 -216 q 392 -267 429 -267 z "},"Ṩ":{"ha":781,"x_min":71,"x_max":697,"o":"m 399 -11 q 257 18 323 -11 q 142 99 191 47 q 71 217 93 150 l 184 264 q 235 177 202 214 q 311 120 269 140 q 400 100 354 100 q 489 122 449 100 q 552 181 528 143 q 575 269 575 219 q 549 358 575 323 q 481 417 524 393 q 388 461 439 441 q 286 502 337 480 q 193 555 235 524 q 125 633 151 586 q 99 750 99 680 q 136 890 99 832 q 237 980 173 949 q 380 1010 300 1010 q 506 987 449 1010 q 604 924 563 964 q 667 833 646 884 l 556 788 q 510 849 537 824 q 448 886 482 873 q 377 899 414 899 q 269 863 317 899 q 221 754 221 827 q 247 666 221 701 q 315 609 273 632 q 408 567 357 586 q 510 528 459 549 q 603 476 561 507 q 671 397 646 445 q 697 278 697 350 q 658 127 697 193 q 552 26 619 62 q 399 -11 484 -11 m 391 -267 q 328 -242 353 -267 q 302 -179 302 -216 q 328 -116 302 -142 q 391 -91 353 -91 q 453 -116 428 -91 q 479 -179 479 -142 q 453 -242 479 -216 q 391 -267 428 -267 m 392 1070 q 329 1096 355 1070 q 304 1158 304 1121 q 329 1221 304 1196 q 392 1246 355 1246 q 455 1221 429 1246 q 480 1158 480 1196 q 455 1096 480 1121 q 392 1070 429 1070 z "},"ẞ":{"ha":781,"x_min":88,"x_max":728,"o":"m 433 -11 q 384 -7 408 -11 q 339 5 359 -3 l 339 119 q 394 104 374 107 q 429 100 414 100 q 523 129 482 100 q 586 208 564 158 q 609 320 609 257 q 562 469 609 414 q 426 525 515 525 l 384 525 l 384 556 l 503 911 l 510 869 q 457 890 495 881 q 380 899 418 899 q 298 888 331 899 q 245 856 265 877 q 217 802 226 834 q 209 728 209 770 l 209 0 l 88 0 l 88 736 q 100 834 88 791 q 135 911 112 878 q 193 966 159 944 q 274 999 228 988 q 376 1010 319 1010 q 464 1004 417 1010 q 554 986 510 998 q 632 956 598 974 l 632 939 l 495 562 l 480 617 q 615 574 560 614 q 700 466 671 533 q 728 316 728 399 q 690 144 728 218 q 585 30 652 71 q 433 -11 518 -11 z "},"T":{"ha":781,"x_min":60,"x_max":722,"o":"m 330 0 l 330 911 l 452 911 l 452 0 l 330 0 m 60 888 l 60 1000 l 722 1000 l 722 888 l 60 888 z "},"Ŧ":{"ha":781,"x_min":60,"x_max":722,"o":"m 330 0 l 330 911 l 452 911 l 452 0 l 330 0 m 60 888 l 60 1000 l 722 1000 l 722 888 l 60 888 m 206 435 l 206 530 l 578 530 l 578 435 l 206 435 z "},"Ť":{"ha":781,"x_min":60,"x_max":722,"o":"m 330 0 l 330 911 l 452 911 l 452 0 l 330 0 m 60 888 l 60 1000 l 722 1000 l 722 888 l 60 888 m 225 1264 l 388 1134 l 393 1134 l 556 1264 l 614 1200 l 407 1047 l 376 1047 l 167 1200 l 225 1264 z "},"Ţ":{"ha":781,"x_min":60,"x_max":722,"o":"m 330 0 l 330 911 l 452 911 l 452 0 l 330 0 m 60 888 l 60 1000 l 722 1000 l 722 888 l 60 888 m 283 -316 l 283 -247 q 388 -234 352 -250 q 423 -183 423 -218 q 396 -142 423 -159 q 321 -125 368 -125 l 359 0 l 422 0 l 388 -111 l 377 -75 q 469 -115 437 -85 q 500 -191 500 -145 q 447 -283 500 -250 q 283 -316 393 -317 z "},"Ț":{"ha":781,"x_min":60,"x_max":722,"o":"m 330 0 l 330 911 l 452 911 l 452 0 l 330 0 m 60 888 l 60 1000 l 722 1000 l 722 888 l 60 888 m 349 -373 l 316 -336 l 368 -283 q 396 -251 385 -265 q 412 -224 408 -237 q 416 -201 417 -212 l 437 -198 q 426 -222 434 -211 q 397 -233 417 -233 q 353 -214 374 -233 q 331 -164 331 -195 q 352 -114 331 -132 q 397 -95 372 -95 q 447 -116 427 -95 q 467 -175 467 -137 q 455 -232 467 -205 q 428 -279 444 -259 q 403 -311 413 -300 l 349 -373 z "},"Ṭ":{"ha":781,"x_min":60,"x_max":722,"o":"m 330 0 l 330 911 l 452 911 l 452 0 l 330 0 m 60 888 l 60 1000 l 722 1000 l 722 888 l 60 888 m 391 -267 q 328 -242 353 -267 q 302 -179 302 -216 q 328 -116 302 -142 q 391 -91 353 -91 q 453 -116 428 -91 q 479 -179 479 -142 q 453 -242 479 -216 q 391 -267 428 -267 z "},"Ṯ":{"ha":781,"x_min":60,"x_max":722,"o":"m 330 0 l 330 911 l 452 911 l 452 0 l 330 0 m 60 888 l 60 1000 l 722 1000 l 722 888 l 60 888 m 155 -270 l 155 -193 l 627 -193 l 627 -270 l 155 -270 z "},"U":{"ha":781,"x_min":84,"x_max":697,"o":"m 391 -11 q 227 31 296 -11 q 121 151 158 73 q 84 336 84 229 l 84 1000 l 206 1000 l 206 336 q 255 163 206 227 q 391 100 304 100 q 526 163 477 100 q 575 336 575 227 l 575 1000 l 697 1000 l 697 336 q 660 151 697 229 q 555 31 623 73 q 391 -11 486 -11 z "},"Ú":{"ha":781,"x_min":84,"x_max":697,"o":"m 391 -11 q 227 31 296 -11 q 121 151 158 73 q 84 336 84 229 l 84 1000 l 206 1000 l 206 336 q 255 163 206 227 q 391 100 304 100 q 526 163 477 100 q 575 336 575 227 l 575 1000 l 697 1000 l 697 336 q 660 151 697 229 q 555 31 623 73 q 391 -11 486 -11 m 391 1053 l 336 1111 l 538 1306 l 600 1230 l 391 1053 z "},"Ŭ":{"ha":781,"x_min":84,"x_max":697,"o":"m 391 -11 q 227 31 296 -11 q 121 151 158 73 q 84 336 84 229 l 84 1000 l 206 1000 l 206 336 q 255 163 206 227 q 391 100 304 100 q 526 163 477 100 q 575 336 575 227 l 575 1000 l 697 1000 l 697 336 q 660 151 697 229 q 555 31 623 73 q 391 -11 486 -11 m 391 1058 q 283 1081 332 1058 q 204 1146 234 1104 q 175 1245 175 1188 l 252 1245 q 293 1163 252 1192 q 391 1134 334 1134 q 490 1163 449 1134 q 530 1245 530 1192 l 608 1245 q 581 1146 610 1188 q 502 1081 552 1104 q 391 1058 452 1058 z "},"Û":{"ha":781,"x_min":84,"x_max":697,"o":"m 391 -11 q 227 31 296 -11 q 121 151 158 73 q 84 336 84 229 l 84 1000 l 206 1000 l 206 336 q 255 163 206 227 q 391 100 304 100 q 526 163 477 100 q 575 336 575 227 l 575 1000 l 697 1000 l 697 336 q 660 151 697 229 q 555 31 623 73 q 391 -11 486 -11 m 228 1053 l 170 1116 l 378 1270 l 410 1270 l 617 1116 l 559 1053 l 396 1183 l 391 1183 l 228 1053 z "},"Ȕ":{"ha":781,"x_min":84,"x_max":697,"o":"m 391 -11 q 227 31 296 -11 q 121 151 158 73 q 84 336 84 229 l 84 1000 l 206 1000 l 206 336 q 255 163 206 227 q 391 100 304 100 q 526 163 477 100 q 575 336 575 227 l 575 1000 l 697 1000 l 697 336 q 660 151 697 229 q 555 31 623 73 q 391 -11 486 -11 m 247 1076 l 96 1291 l 183 1339 l 309 1105 l 247 1076 m 467 1076 l 323 1291 l 408 1339 l 533 1105 l 467 1076 z "},"Ü":{"ha":781,"x_min":84,"x_max":697,"o":"m 391 -11 q 227 31 296 -11 q 121 151 158 73 q 84 336 84 229 l 84 1000 l 206 1000 l 206 336 q 255 163 206 227 q 391 100 304 100 q 526 163 477 100 q 575 336 575 227 l 575 1000 l 697 1000 l 697 336 q 660 151 697 229 q 555 31 623 73 q 391 -11 486 -11 m 537 1072 q 477 1096 502 1072 q 453 1156 453 1120 q 477 1216 453 1192 q 537 1240 502 1240 q 597 1216 573 1240 q 621 1156 621 1192 q 597 1096 621 1120 q 537 1072 573 1072 m 248 1072 q 188 1096 213 1072 q 163 1156 163 1120 q 188 1216 163 1192 q 248 1240 213 1240 q 308 1216 284 1240 q 331 1156 331 1192 q 308 1096 331 1120 q 248 1072 284 1072 z "},"Ụ":{"ha":781,"x_min":84,"x_max":697,"o":"m 391 -11 q 227 31 296 -11 q 121 151 158 73 q 84 336 84 229 l 84 1000 l 206 1000 l 206 336 q 255 163 206 227 q 391 100 304 100 q 526 163 477 100 q 575 336 575 227 l 575 1000 l 697 1000 l 697 336 q 660 151 697 229 q 555 31 623 73 q 391 -11 486 -11 m 391 -267 q 328 -242 353 -267 q 302 -179 302 -216 q 328 -116 302 -142 q 391 -91 353 -91 q 453 -116 428 -91 q 479 -179 479 -142 q 453 -242 479 -216 q 391 -267 428 -267 z "},"Ù":{"ha":781,"x_min":84,"x_max":697,"o":"m 391 -11 q 227 31 296 -11 q 121 151 158 73 q 84 336 84 229 l 84 1000 l 206 1000 l 206 336 q 255 163 206 227 q 391 100 304 100 q 526 163 477 100 q 575 336 575 227 l 575 1000 l 697 1000 l 697 336 q 660 151 697 229 q 555 31 623 73 q 391 -11 486 -11 m 391 1053 l 182 1230 l 243 1306 l 445 1111 l 391 1053 z "},"Ủ":{"ha":781,"x_min":84,"x_max":697,"o":"m 391 -11 q 227 31 296 -11 q 121 151 158 73 q 84 336 84 229 l 84 1000 l 206 1000 l 206 336 q 255 163 206 227 q 391 100 304 100 q 526 163 477 100 q 575 336 575 227 l 575 1000 l 697 1000 l 697 336 q 660 151 697 229 q 555 31 623 73 q 391 -11 486 -11 m 410 1078 l 362 1128 q 404 1162 387 1142 q 420 1206 420 1183 q 403 1243 420 1230 q 354 1256 386 1256 q 318 1252 340 1256 q 281 1242 296 1249 l 281 1320 q 321 1330 296 1326 q 363 1333 347 1333 q 462 1304 426 1333 q 498 1219 498 1274 q 472 1134 498 1174 q 410 1078 446 1095 z "},"Ư":{"ha":781,"x_min":84,"x_max":903,"o":"m 391 -11 q 227 31 296 -11 q 121 151 158 73 q 84 336 84 229 l 84 1000 l 206 1000 l 206 336 q 255 163 206 227 q 391 100 304 100 q 526 163 477 100 q 575 336 575 227 l 575 1000 l 697 1000 l 697 336 q 660 151 697 229 q 555 31 623 73 q 391 -11 486 -11 m 665 920 l 662 1000 q 770 1038 732 1001 q 807 1142 807 1074 q 806 1174 807 1154 q 802 1208 805 1194 l 892 1225 q 901 1180 899 1206 q 903 1137 903 1154 q 869 1017 903 1067 q 781 942 836 968 q 665 920 726 917 z "},"Ứ":{"ha":781,"x_min":84,"x_max":903,"o":"m 391 -11 q 227 31 296 -11 q 121 151 158 73 q 84 336 84 229 l 84 1000 l 206 1000 l 206 336 q 255 163 206 227 q 391 100 304 100 q 526 163 477 100 q 575 336 575 227 l 575 1000 l 697 1000 l 697 336 q 660 151 697 229 q 555 31 623 73 q 391 -11 486 -11 m 665 920 l 662 1000 q 770 1038 732 1001 q 807 1142 807 1074 q 806 1174 807 1154 q 802 1208 805 1194 l 892 1225 q 901 1180 899 1206 q 903 1137 903 1154 q 869 1017 903 1067 q 781 942 836 968 q 665 920 726 917 m 391 1053 l 336 1111 l 538 1306 l 600 1230 l 391 1053 z "},"Ự":{"ha":781,"x_min":84,"x_max":903,"o":"m 391 -11 q 227 31 296 -11 q 121 151 158 73 q 84 336 84 229 l 84 1000 l 206 1000 l 206 336 q 255 163 206 227 q 391 100 304 100 q 526 163 477 100 q 575 336 575 227 l 575 1000 l 697 1000 l 697 336 q 660 151 697 229 q 555 31 623 73 q 391 -11 486 -11 m 665 920 l 662 1000 q 770 1038 732 1001 q 807 1142 807 1074 q 806 1174 807 1154 q 802 1208 805 1194 l 892 1225 q 901 1180 899 1206 q 903 1137 903 1154 q 869 1017 903 1067 q 781 942 836 968 q 665 920 726 917 m 391 -267 q 328 -242 353 -267 q 302 -179 302 -216 q 328 -116 302 -142 q 391 -91 353 -91 q 453 -116 428 -91 q 479 -179 479 -142 q 453 -242 479 -216 q 391 -267 428 -267 z "},"Ừ":{"ha":781,"x_min":84,"x_max":903,"o":"m 391 -11 q 227 31 296 -11 q 121 151 158 73 q 84 336 84 229 l 84 1000 l 206 1000 l 206 336 q 255 163 206 227 q 391 100 304 100 q 526 163 477 100 q 575 336 575 227 l 575 1000 l 697 1000 l 697 336 q 660 151 697 229 q 555 31 623 73 q 391 -11 486 -11 m 665 920 l 662 1000 q 770 1038 732 1001 q 807 1142 807 1074 q 806 1174 807 1154 q 802 1208 805 1194 l 892 1225 q 901 1180 899 1206 q 903 1137 903 1154 q 869 1017 903 1067 q 781 942 836 968 q 665 920 726 917 m 391 1053 l 182 1230 l 243 1306 l 445 1111 l 391 1053 z "},"Ử":{"ha":781,"x_min":84,"x_max":903,"o":"m 391 -11 q 227 31 296 -11 q 121 151 158 73 q 84 336 84 229 l 84 1000 l 206 1000 l 206 336 q 255 163 206 227 q 391 100 304 100 q 526 163 477 100 q 575 336 575 227 l 575 1000 l 697 1000 l 697 336 q 660 151 697 229 q 555 31 623 73 q 391 -11 486 -11 m 665 920 l 662 1000 q 770 1038 732 1001 q 807 1142 807 1074 q 806 1174 807 1154 q 802 1208 805 1194 l 892 1225 q 901 1180 899 1206 q 903 1137 903 1154 q 869 1017 903 1067 q 781 942 836 968 q 665 920 726 917 m 410 1078 l 362 1128 q 404 1162 387 1142 q 420 1206 420 1183 q 403 1243 420 1230 q 354 1256 386 1256 q 318 1252 340 1256 q 281 1242 296 1249 l 281 1320 q 321 1330 296 1326 q 363 1333 347 1333 q 462 1304 426 1333 q 498 1219 498 1274 q 472 1134 498 1174 q 410 1078 446 1095 z "},"Ữ":{"ha":781,"x_min":84,"x_max":903,"o":"m 391 -11 q 227 31 296 -11 q 121 151 158 73 q 84 336 84 229 l 84 1000 l 206 1000 l 206 336 q 255 163 206 227 q 391 100 304 100 q 526 163 477 100 q 575 336 575 227 l 575 1000 l 697 1000 l 697 336 q 660 151 697 229 q 555 31 623 73 q 391 -11 486 -11 m 665 920 l 662 1000 q 770 1038 732 1001 q 807 1142 807 1074 q 806 1174 807 1154 q 802 1208 805 1194 l 892 1225 q 901 1180 899 1206 q 903 1137 903 1154 q 869 1017 903 1067 q 781 942 836 968 q 665 920 726 917 m 172 1078 q 207 1194 172 1149 q 300 1238 242 1238 q 358 1226 335 1238 q 399 1197 382 1213 q 433 1168 416 1181 q 469 1156 449 1156 q 513 1180 498 1156 q 528 1238 528 1205 l 608 1238 q 574 1124 609 1171 q 477 1078 538 1078 q 422 1091 445 1078 q 380 1120 399 1103 q 345 1148 362 1136 q 307 1161 328 1161 q 266 1138 280 1161 q 252 1078 252 1115 l 172 1078 z "},"Ű":{"ha":781,"x_min":84,"x_max":697,"o":"m 391 -11 q 227 31 296 -11 q 121 151 158 73 q 84 336 84 229 l 84 1000 l 206 1000 l 206 336 q 255 163 206 227 q 391 100 304 100 q 526 163 477 100 q 575 336 575 227 l 575 1000 l 697 1000 l 697 336 q 660 151 697 229 q 555 31 623 73 q 391 -11 486 -11 m 312 1076 l 245 1105 l 377 1339 l 458 1291 l 312 1076 m 534 1076 l 472 1105 l 598 1339 l 682 1291 l 534 1076 z "},"Ȗ":{"ha":781,"x_min":84,"x_max":697,"o":"m 391 -11 q 227 31 296 -11 q 121 151 158 73 q 84 336 84 229 l 84 1000 l 206 1000 l 206 336 q 255 163 206 227 q 391 100 304 100 q 526 163 477 100 q 575 336 575 227 l 575 1000 l 697 1000 l 697 336 q 660 151 697 229 q 555 31 623 73 q 391 -11 486 -11 m 389 1251 q 500 1227 450 1251 q 579 1162 551 1204 q 606 1063 608 1120 l 529 1063 q 488 1146 529 1118 q 389 1175 448 1175 q 292 1146 332 1175 q 251 1063 251 1118 l 174 1063 q 203 1162 174 1120 q 282 1227 233 1204 q 389 1251 331 1251 z "},"Ū":{"ha":781,"x_min":84,"x_max":697,"o":"m 391 -11 q 227 31 296 -11 q 121 151 158 73 q 84 336 84 229 l 84 1000 l 206 1000 l 206 336 q 255 163 206 227 q 391 100 304 100 q 526 163 477 100 q 575 336 575 227 l 575 1000 l 697 1000 l 697 336 q 660 151 697 229 q 555 31 623 73 q 391 -11 486 -11 m 148 1111 l 148 1198 l 633 1198 l 633 1111 l 148 1111 z "},"Ṻ":{"ha":781,"x_min":84,"x_max":697,"o":"m 391 -11 q 227 31 296 -11 q 121 151 158 73 q 84 336 84 229 l 84 1000 l 206 1000 l 206 336 q 255 163 206 227 q 391 100 304 100 q 526 163 477 100 q 575 336 575 227 l 575 1000 l 697 1000 l 697 336 q 660 151 697 229 q 555 31 623 73 q 391 -11 486 -11 m 148 1111 l 148 1198 l 633 1198 l 633 1111 l 148 1111 m 537 1270 q 477 1294 502 1270 q 453 1354 453 1318 q 477 1414 453 1390 q 537 1438 502 1438 q 597 1414 573 1438 q 621 1354 621 1390 q 597 1294 621 1318 q 537 1270 573 1270 m 248 1270 q 188 1294 213 1270 q 163 1354 163 1318 q 188 1414 163 1390 q 248 1438 213 1438 q 308 1414 284 1438 q 331 1354 331 1390 q 308 1294 331 1318 q 248 1270 284 1270 z "},"Ų":{"ha":781,"x_min":84,"x_max":697,"o":"m 391 -11 q 227 31 296 -11 q 121 151 158 73 q 84 336 84 229 l 84 1000 l 206 1000 l 206 336 q 255 163 206 227 q 391 100 304 100 q 526 163 477 100 q 575 336 575 227 l 575 1000 l 697 1000 l 697 336 q 660 151 697 229 q 555 31 623 73 q 391 -11 486 -11 m 391 -278 q 306 -245 339 -278 q 273 -161 273 -213 q 310 -66 273 -109 q 404 24 347 -23 l 469 0 q 415 -50 441 -26 q 370 -98 388 -74 q 353 -151 353 -123 q 369 -189 353 -175 q 411 -203 386 -203 q 454 -195 431 -203 q 487 -178 476 -186 l 487 -252 q 443 -271 472 -263 q 391 -278 414 -278 z "},"Ů":{"ha":781,"x_min":84,"x_max":697,"o":"m 391 -11 q 227 31 296 -11 q 121 151 158 73 q 84 336 84 229 l 84 1000 l 206 1000 l 206 336 q 255 163 206 227 q 391 100 304 100 q 526 163 477 100 q 575 336 575 227 l 575 1000 l 697 1000 l 697 336 q 660 151 697 229 q 555 31 623 73 q 391 -11 486 -11 m 391 1044 q 312 1065 347 1044 q 257 1120 277 1085 q 236 1198 236 1154 q 257 1277 236 1242 q 312 1332 277 1312 q 391 1352 347 1352 q 468 1332 433 1352 q 522 1277 502 1312 q 541 1198 541 1242 q 522 1120 541 1154 q 468 1065 502 1085 q 391 1044 433 1044 m 391 1119 q 446 1142 425 1119 q 467 1198 467 1164 q 446 1256 467 1234 q 391 1278 425 1278 q 335 1256 357 1278 q 312 1198 312 1234 q 335 1142 312 1164 q 391 1119 357 1119 z "},"Ũ":{"ha":781,"x_min":84,"x_max":697,"o":"m 391 -11 q 227 31 296 -11 q 121 151 158 73 q 84 336 84 229 l 84 1000 l 206 1000 l 206 336 q 255 163 206 227 q 391 100 304 100 q 526 163 477 100 q 575 336 575 227 l 575 1000 l 697 1000 l 697 336 q 660 151 697 229 q 555 31 623 73 q 391 -11 486 -11 m 172 1078 q 207 1194 172 1149 q 300 1238 242 1238 q 358 1226 335 1238 q 399 1197 382 1213 q 433 1168 416 1181 q 469 1156 449 1156 q 513 1180 498 1156 q 528 1238 528 1205 l 608 1238 q 574 1124 609 1171 q 477 1078 538 1078 q 422 1091 445 1078 q 380 1120 399 1103 q 345 1148 362 1136 q 307 1161 328 1161 q 266 1138 280 1161 q 252 1078 252 1115 l 172 1078 z "},"Ṹ":{"ha":781,"x_min":84,"x_max":697,"o":"m 391 -11 q 227 31 296 -11 q 121 151 158 73 q 84 336 84 229 l 84 1000 l 206 1000 l 206 336 q 255 163 206 227 q 391 100 304 100 q 526 163 477 100 q 575 336 575 227 l 575 1000 l 697 1000 l 697 336 q 660 151 697 229 q 555 31 623 73 q 391 -11 486 -11 m 172 1078 q 207 1194 172 1149 q 300 1238 242 1238 q 358 1226 335 1238 q 399 1197 382 1213 q 433 1168 416 1181 q 469 1156 449 1156 q 513 1180 498 1156 q 528 1238 528 1205 l 608 1238 q 574 1124 609 1171 q 477 1078 538 1078 q 422 1091 445 1078 q 380 1120 399 1103 q 345 1148 362 1136 q 307 1161 328 1161 q 266 1138 280 1161 q 252 1078 252 1115 l 172 1078 m 391 1275 l 336 1333 l 538 1529 l 600 1453 l 391 1275 z "},"V":{"ha":781,"x_min":8,"x_max":773,"o":"m 331 0 l 8 1000 l 137 1000 l 293 483 l 388 175 l 393 175 l 490 483 l 644 1000 l 773 1000 l 453 0 l 331 0 z "},"W":{"ha":781,"x_min":41,"x_max":742,"o":"m 144 0 q 91 223 114 113 q 54 441 67 333 q 41 655 41 549 l 41 1000 l 163 1000 l 163 655 q 169 488 163 571 q 185 326 174 404 q 212 176 196 248 l 217 176 l 358 635 l 423 635 l 564 176 l 570 176 q 596 326 585 248 q 614 488 608 404 q 620 655 620 571 l 620 1000 l 742 1000 l 742 655 q 728 441 742 549 q 691 223 715 334 q 637 0 668 113 l 513 0 l 393 396 l 388 396 l 269 0 l 144 0 z "},"Ẃ":{"ha":781,"x_min":41,"x_max":742,"o":"m 144 0 q 91 223 114 113 q 54 441 67 333 q 41 655 41 549 l 41 1000 l 163 1000 l 163 655 q 169 488 163 571 q 185 326 174 404 q 212 176 196 248 l 217 176 l 358 635 l 423 635 l 564 176 l 570 176 q 596 326 585 248 q 614 488 608 404 q 620 655 620 571 l 620 1000 l 742 1000 l 742 655 q 728 441 742 549 q 691 223 715 334 q 637 0 668 113 l 513 0 l 393 396 l 388 396 l 269 0 l 144 0 m 391 1053 l 336 1111 l 538 1306 l 600 1230 l 391 1053 z "},"Ŵ":{"ha":781,"x_min":41,"x_max":742,"o":"m 144 0 q 91 223 114 113 q 54 441 67 333 q 41 655 41 549 l 41 1000 l 163 1000 l 163 655 q 169 488 163 571 q 185 326 174 404 q 212 176 196 248 l 217 176 l 358 635 l 423 635 l 564 176 l 570 176 q 596 326 585 248 q 614 488 608 404 q 620 655 620 571 l 620 1000 l 742 1000 l 742 655 q 728 441 742 549 q 691 223 715 334 q 637 0 668 113 l 513 0 l 393 396 l 388 396 l 269 0 l 144 0 m 228 1053 l 170 1116 l 378 1270 l 410 1270 l 617 1116 l 559 1053 l 396 1183 l 391 1183 l 228 1053 z "},"Ẅ":{"ha":781,"x_min":41,"x_max":742,"o":"m 144 0 q 91 223 114 113 q 54 441 67 333 q 41 655 41 549 l 41 1000 l 163 1000 l 163 655 q 169 488 163 571 q 185 326 174 404 q 212 176 196 248 l 217 176 l 358 635 l 423 635 l 564 176 l 570 176 q 596 326 585 248 q 614 488 608 404 q 620 655 620 571 l 620 1000 l 742 1000 l 742 655 q 728 441 742 549 q 691 223 715 334 q 637 0 668 113 l 513 0 l 393 396 l 388 396 l 269 0 l 144 0 m 537 1072 q 477 1096 502 1072 q 453 1156 453 1120 q 477 1216 453 1192 q 537 1240 502 1240 q 597 1216 573 1240 q 621 1156 621 1192 q 597 1096 621 1120 q 537 1072 573 1072 m 248 1072 q 188 1096 213 1072 q 163 1156 163 1120 q 188 1216 163 1192 q 248 1240 213 1240 q 308 1216 284 1240 q 331 1156 331 1192 q 308 1096 331 1120 q 248 1072 284 1072 z "},"Ẁ":{"ha":781,"x_min":41,"x_max":742,"o":"m 144 0 q 91 223 114 113 q 54 441 67 333 q 41 655 41 549 l 41 1000 l 163 1000 l 163 655 q 169 488 163 571 q 185 326 174 404 q 212 176 196 248 l 217 176 l 358 635 l 423 635 l 564 176 l 570 176 q 596 326 585 248 q 614 488 608 404 q 620 655 620 571 l 620 1000 l 742 1000 l 742 655 q 728 441 742 549 q 691 223 715 334 q 637 0 668 113 l 513 0 l 393 396 l 388 396 l 269 0 l 144 0 m 391 1053 l 182 1230 l 243 1306 l 445 1111 l 391 1053 z "},"X":{"ha":781,"x_min":26,"x_max":755,"o":"m 610 0 l 393 408 l 385 408 l 309 498 l 309 503 l 31 1000 l 168 1000 l 388 583 l 395 583 l 472 503 l 472 498 l 755 0 l 610 0 m 26 0 l 309 498 l 309 503 l 385 583 l 393 583 l 613 1000 l 750 1000 l 472 503 l 472 498 l 395 408 l 388 408 l 170 0 l 26 0 z "},"Y":{"ha":781,"x_min":16,"x_max":765,"o":"m 330 0 l 330 430 l 16 1000 l 155 1000 l 285 750 l 388 551 l 393 551 l 496 750 l 627 1000 l 765 1000 l 452 430 l 452 0 l 330 0 z "},"Ý":{"ha":781,"x_min":16,"x_max":765,"o":"m 330 0 l 330 430 l 16 1000 l 155 1000 l 285 750 l 388 551 l 393 551 l 496 750 l 627 1000 l 765 1000 l 452 430 l 452 0 l 330 0 m 391 1053 l 336 1111 l 538 1306 l 600 1230 l 391 1053 z "},"Ŷ":{"ha":781,"x_min":16,"x_max":765,"o":"m 330 0 l 330 430 l 16 1000 l 155 1000 l 285 750 l 388 551 l 393 551 l 496 750 l 627 1000 l 765 1000 l 452 430 l 452 0 l 330 0 m 228 1053 l 170 1116 l 378 1270 l 410 1270 l 617 1116 l 559 1053 l 396 1183 l 391 1183 l 228 1053 z "},"Ÿ":{"ha":781,"x_min":16,"x_max":765,"o":"m 330 0 l 330 430 l 16 1000 l 155 1000 l 285 750 l 388 551 l 393 551 l 496 750 l 627 1000 l 765 1000 l 452 430 l 452 0 l 330 0 m 537 1072 q 477 1096 502 1072 q 453 1156 453 1120 q 477 1216 453 1192 q 537 1240 502 1240 q 597 1216 573 1240 q 621 1156 621 1192 q 597 1096 621 1120 q 537 1072 573 1072 m 248 1072 q 188 1096 213 1072 q 163 1156 163 1120 q 188 1216 163 1192 q 248 1240 213 1240 q 308 1216 284 1240 q 331 1156 331 1192 q 308 1096 331 1120 q 248 1072 284 1072 z "},"Ẏ":{"ha":781,"x_min":16,"x_max":765,"o":"m 330 0 l 330 430 l 16 1000 l 155 1000 l 285 750 l 388 551 l 393 551 l 496 750 l 627 1000 l 765 1000 l 452 430 l 452 0 l 330 0 m 391 1070 q 328 1096 353 1070 q 302 1158 302 1121 q 328 1221 302 1196 q 391 1246 353 1246 q 453 1221 428 1246 q 479 1158 479 1196 q 453 1096 479 1121 q 391 1070 428 1070 z "},"Ỵ":{"ha":781,"x_min":16,"x_max":765,"o":"m 330 0 l 330 430 l 16 1000 l 155 1000 l 285 750 l 388 551 l 393 551 l 496 750 l 627 1000 l 765 1000 l 452 430 l 452 0 l 330 0 m 389 -267 q 327 -242 352 -267 q 301 -179 301 -216 q 327 -116 301 -142 q 389 -91 352 -91 q 452 -116 427 -91 q 477 -179 477 -142 q 452 -242 477 -216 q 389 -267 427 -267 z "},"Ỳ":{"ha":781,"x_min":16,"x_max":765,"o":"m 330 0 l 330 430 l 16 1000 l 155 1000 l 285 750 l 388 551 l 393 551 l 496 750 l 627 1000 l 765 1000 l 452 430 l 452 0 l 330 0 m 391 1053 l 182 1230 l 243 1306 l 445 1111 l 391 1053 z "},"Ỷ":{"ha":781,"x_min":16,"x_max":765,"o":"m 330 0 l 330 430 l 16 1000 l 155 1000 l 285 750 l 388 551 l 393 551 l 496 750 l 627 1000 l 765 1000 l 452 430 l 452 0 l 330 0 m 410 1078 l 362 1128 q 404 1162 387 1142 q 420 1206 420 1183 q 403 1243 420 1230 q 354 1256 386 1256 q 318 1252 340 1256 q 281 1242 296 1249 l 281 1320 q 321 1330 296 1326 q 363 1333 347 1333 q 462 1304 426 1333 q 498 1219 498 1274 q 472 1134 498 1174 q 410 1078 446 1095 z "},"Ȳ":{"ha":781,"x_min":16,"x_max":765,"o":"m 330 0 l 330 430 l 16 1000 l 155 1000 l 285 750 l 388 551 l 393 551 l 496 750 l 627 1000 l 765 1000 l 452 430 l 452 0 l 330 0 m 148 1111 l 148 1198 l 633 1198 l 633 1111 l 148 1111 z "},"Ỹ":{"ha":781,"x_min":16,"x_max":765,"o":"m 330 0 l 330 430 l 16 1000 l 155 1000 l 285 750 l 388 551 l 393 551 l 496 750 l 627 1000 l 765 1000 l 452 430 l 452 0 l 330 0 m 172 1078 q 207 1194 172 1149 q 300 1238 242 1238 q 358 1226 335 1238 q 399 1197 382 1213 q 433 1168 416 1181 q 469 1156 449 1156 q 513 1180 498 1156 q 528 1238 528 1205 l 608 1238 q 574 1124 609 1171 q 477 1078 538 1078 q 422 1091 445 1078 q 380 1120 399 1103 q 345 1148 362 1136 q 307 1161 328 1161 q 266 1138 280 1161 q 252 1078 252 1115 l 172 1078 z "},"Z":{"ha":781,"x_min":69,"x_max":711,"o":"m 69 0 l 69 27 l 519 886 l 519 888 l 96 888 l 96 1000 l 703 1000 l 703 972 l 254 114 l 254 111 l 711 111 l 711 0 l 69 0 z "},"Ź":{"ha":781,"x_min":69,"x_max":711,"o":"m 69 0 l 69 27 l 519 886 l 519 888 l 96 888 l 96 1000 l 703 1000 l 703 972 l 254 114 l 254 111 l 711 111 l 711 0 l 69 0 m 397 1053 l 343 1111 l 545 1306 l 606 1230 l 397 1053 z "},"Ž":{"ha":781,"x_min":69,"x_max":711,"o":"m 69 0 l 69 27 l 519 886 l 519 888 l 96 888 l 96 1000 l 703 1000 l 703 972 l 254 114 l 254 111 l 711 111 l 711 0 l 69 0 m 232 1264 l 395 1134 l 400 1134 l 563 1264 l 621 1200 l 414 1047 l 382 1047 l 174 1200 l 232 1264 z "},"Ż":{"ha":781,"x_min":69,"x_max":711,"o":"m 69 0 l 69 27 l 519 886 l 519 888 l 96 888 l 96 1000 l 703 1000 l 703 972 l 254 114 l 254 111 l 711 111 l 711 0 l 69 0 m 397 1070 q 335 1096 360 1070 q 309 1158 309 1121 q 335 1221 309 1196 q 397 1246 360 1246 q 460 1221 435 1246 q 486 1158 486 1196 q 460 1096 486 1121 q 397 1070 435 1070 z "},"Ẓ":{"ha":781,"x_min":69,"x_max":711,"o":"m 69 0 l 69 27 l 519 886 l 519 888 l 96 888 l 96 1000 l 703 1000 l 703 972 l 254 114 l 254 111 l 711 111 l 711 0 l 69 0 m 400 -267 q 337 -242 363 -267 q 312 -179 312 -216 q 337 -116 312 -142 q 400 -91 363 -91 q 463 -116 437 -91 q 488 -179 488 -142 q 463 -242 488 -216 q 400 -267 437 -267 z "},"a":{"ha":781,"x_min":87,"x_max":708,"o":"m 323 -11 q 203 15 256 -11 q 118 89 149 41 q 87 203 87 136 q 122 321 87 269 q 230 406 157 374 q 415 437 302 437 l 564 437 l 564 343 l 423 343 q 319 330 370 343 q 234 287 268 317 q 201 203 201 256 q 219 142 201 168 q 268 103 237 117 q 336 90 299 90 q 429 110 381 90 q 510 168 477 130 q 543 262 543 206 l 543 336 l 540 378 l 540 458 q 537 504 540 476 q 521 558 534 531 q 477 604 508 585 q 389 623 446 623 q 317 614 356 623 q 242 591 279 606 q 178 556 205 576 l 134 661 q 215 697 170 682 q 307 722 259 713 q 400 731 355 731 q 552 693 498 731 q 629 594 607 655 q 651 461 651 532 l 651 209 q 660 137 651 163 q 694 100 669 111 l 708 95 l 665 -11 l 646 -3 q 581 45 608 14 q 553 109 553 77 l 576 100 l 532 100 l 562 119 q 472 27 535 66 q 323 -11 408 -11 z "},"á":{"ha":781,"x_min":87,"x_max":708,"o":"m 323 -11 q 203 15 256 -11 q 118 89 149 41 q 87 203 87 136 q 122 321 87 269 q 230 406 157 374 q 415 437 302 437 l 564 437 l 564 343 l 423 343 q 319 330 370 343 q 234 287 268 317 q 201 203 201 256 q 219 142 201 168 q 268 103 237 117 q 336 90 299 90 q 429 110 381 90 q 510 168 477 130 q 543 262 543 206 l 543 336 l 540 378 l 540 458 q 537 504 540 476 q 521 558 534 531 q 477 604 508 585 q 389 623 446 623 q 317 614 356 623 q 242 591 279 606 q 178 556 205 576 l 134 661 q 215 697 170 682 q 307 722 259 713 q 400 731 355 731 q 552 693 498 731 q 629 594 607 655 q 651 461 651 532 l 651 209 q 660 137 651 163 q 694 100 669 111 l 708 95 l 665 -11 l 646 -3 q 581 45 608 14 q 553 109 553 77 l 576 100 l 532 100 l 562 119 q 472 27 535 66 q 323 -11 408 -11 m 395 798 l 339 848 l 503 1084 l 591 1005 l 395 798 z "},"ă":{"ha":781,"x_min":87,"x_max":708,"o":"m 323 -11 q 203 15 256 -11 q 118 89 149 41 q 87 203 87 136 q 122 321 87 269 q 230 406 157 374 q 415 437 302 437 l 564 437 l 564 343 l 423 343 q 319 330 370 343 q 234 287 268 317 q 201 203 201 256 q 219 142 201 168 q 268 103 237 117 q 336 90 299 90 q 429 110 381 90 q 510 168 477 130 q 543 262 543 206 l 543 336 l 540 378 l 540 458 q 537 504 540 476 q 521 558 534 531 q 477 604 508 585 q 389 623 446 623 q 317 614 356 623 q 242 591 279 606 q 178 556 205 576 l 134 661 q 215 697 170 682 q 307 722 259 713 q 400 731 355 731 q 552 693 498 731 q 629 594 607 655 q 651 461 651 532 l 651 209 q 660 137 651 163 q 694 100 669 111 l 708 95 l 665 -11 l 646 -3 q 581 45 608 14 q 553 109 553 77 l 576 100 l 532 100 l 562 119 q 472 27 535 66 q 323 -11 408 -11 m 395 822 q 285 849 334 822 q 207 924 235 877 q 178 1031 178 971 l 259 1031 q 297 934 258 973 q 395 895 336 895 q 493 934 455 895 q 532 1031 531 973 l 613 1031 q 585 924 614 971 q 507 849 556 877 q 395 822 458 822 z "},"ắ":{"ha":781,"x_min":87,"x_max":708,"o":"m 323 -11 q 203 15 256 -11 q 118 89 149 41 q 87 203 87 136 q 122 321 87 269 q 230 406 157 374 q 415 437 302 437 l 564 437 l 564 343 l 423 343 q 319 330 370 343 q 234 287 268 317 q 201 203 201 256 q 219 142 201 168 q 268 103 237 117 q 336 90 299 90 q 429 110 381 90 q 510 168 477 130 q 543 262 543 206 l 543 336 l 540 378 l 540 458 q 537 504 540 476 q 521 558 534 531 q 477 604 508 585 q 389 623 446 623 q 317 614 356 623 q 242 591 279 606 q 178 556 205 576 l 134 661 q 215 697 170 682 q 307 722 259 713 q 400 731 355 731 q 552 693 498 731 q 629 594 607 655 q 651 461 651 532 l 651 209 q 660 137 651 163 q 694 100 669 111 l 708 95 l 665 -11 l 646 -3 q 581 45 608 14 q 553 109 553 77 l 576 100 l 532 100 l 562 119 q 472 27 535 66 q 323 -11 408 -11 m 377 959 l 328 1020 l 532 1211 l 587 1137 l 377 959 m 396 822 q 284 846 334 822 q 207 913 235 871 q 179 1010 179 956 l 254 1010 q 294 926 254 959 q 396 892 334 892 q 497 926 457 892 q 537 1010 537 959 l 613 1010 q 585 913 613 956 q 508 846 557 871 q 396 822 459 822 z "},"ặ":{"ha":781,"x_min":87,"x_max":708,"o":"m 323 -11 q 203 15 256 -11 q 118 89 149 41 q 87 203 87 136 q 122 321 87 269 q 230 406 157 374 q 415 437 302 437 l 564 437 l 564 343 l 423 343 q 319 330 370 343 q 234 287 268 317 q 201 203 201 256 q 219 142 201 168 q 268 103 237 117 q 336 90 299 90 q 429 110 381 90 q 510 168 477 130 q 543 262 543 206 l 543 336 l 540 378 l 540 458 q 537 504 540 476 q 521 558 534 531 q 477 604 508 585 q 389 623 446 623 q 317 614 356 623 q 242 591 279 606 q 178 556 205 576 l 134 661 q 215 697 170 682 q 307 722 259 713 q 400 731 355 731 q 552 693 498 731 q 629 594 607 655 q 651 461 651 532 l 651 209 q 660 137 651 163 q 694 100 669 111 l 708 95 l 665 -11 l 646 -3 q 581 45 608 14 q 553 109 553 77 l 576 100 l 532 100 l 562 119 q 472 27 535 66 q 323 -11 408 -11 m 391 -267 q 328 -242 353 -267 q 302 -179 302 -216 q 328 -116 302 -142 q 391 -91 353 -91 q 453 -116 428 -91 q 479 -179 479 -142 q 453 -242 479 -216 q 391 -267 428 -267 m 395 822 q 285 849 334 822 q 207 924 235 877 q 178 1031 178 971 l 259 1031 q 297 934 258 973 q 395 895 336 895 q 493 934 455 895 q 532 1031 531 973 l 613 1031 q 585 924 614 971 q 507 849 556 877 q 395 822 458 822 z "},"ằ":{"ha":781,"x_min":87,"x_max":708,"o":"m 323 -11 q 203 15 256 -11 q 118 89 149 41 q 87 203 87 136 q 122 321 87 269 q 230 406 157 374 q 415 437 302 437 l 564 437 l 564 343 l 423 343 q 319 330 370 343 q 234 287 268 317 q 201 203 201 256 q 219 142 201 168 q 268 103 237 117 q 336 90 299 90 q 429 110 381 90 q 510 168 477 130 q 543 262 543 206 l 543 336 l 540 378 l 540 458 q 537 504 540 476 q 521 558 534 531 q 477 604 508 585 q 389 623 446 623 q 317 614 356 623 q 242 591 279 606 q 178 556 205 576 l 134 661 q 215 697 170 682 q 307 722 259 713 q 400 731 355 731 q 552 693 498 731 q 629 594 607 655 q 651 461 651 532 l 651 209 q 660 137 651 163 q 694 100 669 111 l 708 95 l 665 -11 l 646 -3 q 581 45 608 14 q 553 109 553 77 l 576 100 l 532 100 l 562 119 q 472 27 535 66 q 323 -11 408 -11 m 415 959 l 205 1137 l 260 1211 l 464 1020 l 415 959 m 396 822 q 284 846 334 822 q 207 913 235 871 q 179 1010 179 956 l 255 1010 q 295 926 255 959 q 396 892 335 892 q 498 926 458 892 q 538 1010 538 959 l 613 1010 q 585 913 613 956 q 508 846 557 871 q 396 822 459 822 z "},"ẳ":{"ha":781,"x_min":87,"x_max":708,"o":"m 323 -11 q 203 15 256 -11 q 118 89 149 41 q 87 203 87 136 q 122 321 87 269 q 230 406 157 374 q 415 437 302 437 l 564 437 l 564 343 l 423 343 q 319 330 370 343 q 234 287 268 317 q 201 203 201 256 q 219 142 201 168 q 268 103 237 117 q 336 90 299 90 q 429 110 381 90 q 510 168 477 130 q 543 262 543 206 l 543 336 l 540 378 l 540 458 q 537 504 540 476 q 521 558 534 531 q 477 604 508 585 q 389 623 446 623 q 317 614 356 623 q 242 591 279 606 q 178 556 205 576 l 134 661 q 215 697 170 682 q 307 722 259 713 q 400 731 355 731 q 552 693 498 731 q 629 594 607 655 q 651 461 651 532 l 651 209 q 660 137 651 163 q 694 100 669 111 l 708 95 l 665 -11 l 646 -3 q 581 45 608 14 q 553 109 553 77 l 576 100 l 532 100 l 562 119 q 472 27 535 66 q 323 -11 408 -11 m 396 822 q 284 846 334 822 q 207 913 235 871 q 179 1010 179 956 l 255 1010 q 295 926 255 959 q 396 892 335 892 q 498 926 458 892 q 538 1010 538 959 l 613 1010 q 585 913 613 956 q 508 846 557 871 q 396 822 459 822 m 416 958 l 369 1008 q 410 1042 393 1021 q 427 1085 427 1062 q 410 1122 427 1109 q 361 1135 393 1135 q 325 1132 347 1135 q 288 1122 303 1128 l 288 1199 q 328 1209 303 1205 q 370 1213 353 1213 q 469 1183 433 1213 q 505 1099 505 1154 q 478 1014 505 1053 q 416 958 452 974 z "},"ẵ":{"ha":781,"x_min":87,"x_max":708,"o":"m 323 -11 q 203 15 256 -11 q 118 89 149 41 q 87 203 87 136 q 122 321 87 269 q 230 406 157 374 q 415 437 302 437 l 564 437 l 564 343 l 423 343 q 319 330 370 343 q 234 287 268 317 q 201 203 201 256 q 219 142 201 168 q 268 103 237 117 q 336 90 299 90 q 429 110 381 90 q 510 168 477 130 q 543 262 543 206 l 543 336 l 540 378 l 540 458 q 537 504 540 476 q 521 558 534 531 q 477 604 508 585 q 389 623 446 623 q 317 614 356 623 q 242 591 279 606 q 178 556 205 576 l 134 661 q 215 697 170 682 q 307 722 259 713 q 400 731 355 731 q 552 693 498 731 q 629 594 607 655 q 651 461 651 532 l 651 209 q 660 137 651 163 q 694 100 669 111 l 708 95 l 665 -11 l 646 -3 q 581 45 608 14 q 553 109 553 77 l 576 100 l 532 100 l 562 119 q 472 27 535 66 q 323 -11 408 -11 m 178 1055 q 213 1171 178 1128 q 308 1214 249 1214 q 365 1202 342 1214 q 406 1175 389 1191 q 440 1148 424 1160 q 477 1137 457 1137 q 519 1157 506 1137 q 533 1214 533 1177 l 613 1214 q 600 1133 615 1168 q 554 1076 584 1097 q 483 1055 524 1055 q 429 1067 452 1055 q 388 1096 406 1080 q 352 1124 370 1112 q 313 1137 335 1137 q 273 1116 288 1137 q 258 1055 258 1096 l 178 1055 m 396 822 q 284 846 334 822 q 207 913 235 871 q 179 1010 179 956 l 255 1010 q 295 926 255 959 q 396 892 335 892 q 498 926 458 892 q 538 1010 538 959 l 613 1010 q 585 913 613 956 q 508 846 557 871 q 396 822 459 822 z "},"ǎ":{"ha":781,"x_min":87,"x_max":708,"o":"m 323 -11 q 203 15 256 -11 q 118 89 149 41 q 87 203 87 136 q 122 321 87 269 q 230 406 157 374 q 415 437 302 437 l 564 437 l 564 343 l 423 343 q 319 330 370 343 q 234 287 268 317 q 201 203 201 256 q 219 142 201 168 q 268 103 237 117 q 336 90 299 90 q 429 110 381 90 q 510 168 477 130 q 543 262 543 206 l 543 336 l 540 378 l 540 458 q 537 504 540 476 q 521 558 534 531 q 477 604 508 585 q 389 623 446 623 q 317 614 356 623 q 242 591 279 606 q 178 556 205 576 l 134 661 q 215 697 170 682 q 307 722 259 713 q 400 731 355 731 q 552 693 498 731 q 629 594 607 655 q 651 461 651 532 l 651 209 q 660 137 651 163 q 694 100 669 111 l 708 95 l 665 -11 l 646 -3 q 581 45 608 14 q 553 109 553 77 l 576 100 l 532 100 l 562 119 q 472 27 535 66 q 323 -11 408 -11 m 232 1055 l 395 897 l 400 897 l 559 1055 l 612 997 l 411 806 l 380 806 l 179 997 l 232 1055 z "},"â":{"ha":781,"x_min":87,"x_max":708,"o":"m 323 -11 q 203 15 256 -11 q 118 89 149 41 q 87 203 87 136 q 122 321 87 269 q 230 406 157 374 q 415 437 302 437 l 564 437 l 564 343 l 423 343 q 319 330 370 343 q 234 287 268 317 q 201 203 201 256 q 219 142 201 168 q 268 103 237 117 q 336 90 299 90 q 429 110 381 90 q 510 168 477 130 q 543 262 543 206 l 543 336 l 540 378 l 540 458 q 537 504 540 476 q 521 558 534 531 q 477 604 508 585 q 389 623 446 623 q 317 614 356 623 q 242 591 279 606 q 178 556 205 576 l 134 661 q 215 697 170 682 q 307 722 259 713 q 400 731 355 731 q 552 693 498 731 q 629 594 607 655 q 651 461 651 532 l 651 209 q 660 137 651 163 q 694 100 669 111 l 708 95 l 665 -11 l 646 -3 q 581 45 608 14 q 553 109 553 77 l 576 100 l 532 100 l 562 119 q 472 27 535 66 q 323 -11 408 -11 m 231 803 l 178 861 l 378 1053 l 410 1053 l 610 861 l 557 803 l 399 962 l 393 962 l 231 803 z "},"ấ":{"ha":781,"x_min":87,"x_max":780,"o":"m 323 -11 q 203 15 256 -11 q 118 89 149 41 q 87 203 87 136 q 122 321 87 269 q 230 406 157 374 q 415 437 302 437 l 564 437 l 564 343 l 423 343 q 319 330 370 343 q 234 287 268 317 q 201 203 201 256 q 219 142 201 168 q 268 103 237 117 q 336 90 299 90 q 429 110 381 90 q 510 168 477 130 q 543 262 543 206 l 543 336 l 540 378 l 540 458 q 537 504 540 476 q 521 558 534 531 q 477 604 508 585 q 389 623 446 623 q 317 614 356 623 q 242 591 279 606 q 178 556 205 576 l 134 661 q 215 697 170 682 q 307 722 259 713 q 400 731 355 731 q 552 693 498 731 q 629 594 607 655 q 651 461 651 532 l 651 209 q 660 137 651 163 q 694 100 669 111 l 708 95 l 665 -11 l 646 -3 q 581 45 608 14 q 553 109 553 77 l 576 100 l 532 100 l 562 119 q 472 27 535 66 q 323 -11 408 -11 m 585 967 l 528 1010 l 718 1208 l 780 1131 l 585 967 m 231 808 l 172 869 l 381 1025 l 412 1025 l 620 869 l 562 808 l 399 936 l 393 936 l 231 808 z "},"ậ":{"ha":781,"x_min":87,"x_max":708,"o":"m 323 -11 q 203 15 256 -11 q 118 89 149 41 q 87 203 87 136 q 122 321 87 269 q 230 406 157 374 q 415 437 302 437 l 564 437 l 564 343 l 423 343 q 319 330 370 343 q 234 287 268 317 q 201 203 201 256 q 219 142 201 168 q 268 103 237 117 q 336 90 299 90 q 429 110 381 90 q 510 168 477 130 q 543 262 543 206 l 543 336 l 540 378 l 540 458 q 537 504 540 476 q 521 558 534 531 q 477 604 508 585 q 389 623 446 623 q 317 614 356 623 q 242 591 279 606 q 178 556 205 576 l 134 661 q 215 697 170 682 q 307 722 259 713 q 400 731 355 731 q 552 693 498 731 q 629 594 607 655 q 651 461 651 532 l 651 209 q 660 137 651 163 q 694 100 669 111 l 708 95 l 665 -11 l 646 -3 q 581 45 608 14 q 553 109 553 77 l 576 100 l 532 100 l 562 119 q 472 27 535 66 q 323 -11 408 -11 m 391 -267 q 328 -242 353 -267 q 302 -179 302 -216 q 328 -116 302 -142 q 391 -91 353 -91 q 453 -116 428 -91 q 479 -179 479 -142 q 453 -242 479 -216 q 391 -267 428 -267 m 231 803 l 178 861 l 378 1053 l 410 1053 l 610 861 l 557 803 l 399 962 l 393 962 l 231 803 z "},"ầ":{"ha":781,"x_min":12,"x_max":708,"o":"m 323 -11 q 203 15 256 -11 q 118 89 149 41 q 87 203 87 136 q 122 321 87 269 q 230 406 157 374 q 415 437 302 437 l 564 437 l 564 343 l 423 343 q 319 330 370 343 q 234 287 268 317 q 201 203 201 256 q 219 142 201 168 q 268 103 237 117 q 336 90 299 90 q 429 110 381 90 q 510 168 477 130 q 543 262 543 206 l 543 336 l 540 378 l 540 458 q 537 504 540 476 q 521 558 534 531 q 477 604 508 585 q 389 623 446 623 q 317 614 356 623 q 242 591 279 606 q 178 556 205 576 l 134 661 q 215 697 170 682 q 307 722 259 713 q 400 731 355 731 q 552 693 498 731 q 629 594 607 655 q 651 461 651 532 l 651 209 q 660 137 651 163 q 694 100 669 111 l 708 95 l 665 -11 l 646 -3 q 581 45 608 14 q 553 109 553 77 l 576 100 l 532 100 l 562 119 q 472 27 535 66 q 323 -11 408 -11 m 208 967 l 12 1131 l 75 1208 l 264 1010 l 208 967 m 562 808 l 399 936 l 393 936 l 231 808 l 172 869 l 380 1025 l 411 1025 l 620 869 l 562 808 z "},"ẩ":{"ha":781,"x_min":87,"x_max":708,"o":"m 323 -11 q 203 15 256 -11 q 118 89 149 41 q 87 203 87 136 q 122 321 87 269 q 230 406 157 374 q 415 437 302 437 l 564 437 l 564 343 l 423 343 q 319 330 370 343 q 234 287 268 317 q 201 203 201 256 q 219 142 201 168 q 268 103 237 117 q 336 90 299 90 q 429 110 381 90 q 510 168 477 130 q 543 262 543 206 l 543 336 l 540 378 l 540 458 q 537 504 540 476 q 521 558 534 531 q 477 604 508 585 q 389 623 446 623 q 317 614 356 623 q 242 591 279 606 q 178 556 205 576 l 134 661 q 215 697 170 682 q 307 722 259 713 q 400 731 355 731 q 552 693 498 731 q 629 594 607 655 q 651 461 651 532 l 651 209 q 660 137 651 163 q 694 100 669 111 l 708 95 l 665 -11 l 646 -3 q 581 45 608 14 q 553 109 553 77 l 576 100 l 532 100 l 562 119 q 472 27 535 66 q 323 -11 408 -11 m 572 964 l 521 1002 q 557 1042 543 1021 q 571 1081 571 1063 q 554 1120 571 1105 q 505 1134 536 1134 q 468 1130 488 1134 q 433 1119 449 1126 l 433 1198 q 472 1207 447 1204 q 518 1211 497 1211 q 613 1183 576 1211 q 650 1097 650 1154 q 637 1042 650 1068 q 607 997 625 1017 q 572 964 589 977 m 231 808 l 172 869 l 381 1025 l 412 1025 l 620 869 l 562 808 l 399 936 l 393 936 l 231 808 z "},"ẫ":{"ha":781,"x_min":87,"x_max":708,"o":"m 323 -11 q 203 15 256 -11 q 118 89 149 41 q 87 203 87 136 q 122 321 87 269 q 230 406 157 374 q 415 437 302 437 l 564 437 l 564 343 l 423 343 q 319 330 370 343 q 234 287 268 317 q 201 203 201 256 q 219 142 201 168 q 268 103 237 117 q 336 90 299 90 q 429 110 381 90 q 510 168 477 130 q 543 262 543 206 l 543 336 l 540 378 l 540 458 q 537 504 540 476 q 521 558 534 531 q 477 604 508 585 q 389 623 446 623 q 317 614 356 623 q 242 591 279 606 q 178 556 205 576 l 134 661 q 215 697 170 682 q 307 722 259 713 q 400 731 355 731 q 552 693 498 731 q 629 594 607 655 q 651 461 651 532 l 651 209 q 660 137 651 163 q 694 100 669 111 l 708 95 l 665 -11 l 646 -3 q 581 45 608 14 q 553 109 553 77 l 576 100 l 532 100 l 562 119 q 472 27 535 66 q 323 -11 408 -11 m 178 1055 q 213 1171 178 1128 q 308 1214 249 1214 q 365 1202 342 1214 q 405 1175 388 1191 q 439 1148 422 1160 q 477 1137 456 1137 q 518 1157 504 1137 q 533 1214 533 1177 l 614 1214 q 601 1133 616 1168 q 558 1076 587 1097 q 491 1055 530 1055 q 435 1067 458 1055 q 394 1096 412 1080 q 359 1124 376 1112 q 320 1137 342 1137 q 276 1117 294 1137 q 258 1055 259 1097 l 178 1055 m 231 808 l 172 869 l 381 1025 l 412 1025 l 620 869 l 562 808 l 399 936 l 393 936 l 231 808 z "},"ȁ":{"ha":781,"x_min":87,"x_max":708,"o":"m 323 -11 q 203 15 256 -11 q 118 89 149 41 q 87 203 87 136 q 122 321 87 269 q 230 406 157 374 q 415 437 302 437 l 564 437 l 564 343 l 423 343 q 319 330 370 343 q 234 287 268 317 q 201 203 201 256 q 219 142 201 168 q 268 103 237 117 q 336 90 299 90 q 429 110 381 90 q 510 168 477 130 q 543 262 543 206 l 543 336 l 540 378 l 540 458 q 537 504 540 476 q 521 558 534 531 q 477 604 508 585 q 389 623 446 623 q 317 614 356 623 q 242 591 279 606 q 178 556 205 576 l 134 661 q 215 697 170 682 q 307 722 259 713 q 400 731 355 731 q 552 693 498 731 q 629 594 607 655 q 651 461 651 532 l 651 209 q 660 137 651 163 q 694 100 669 111 l 708 95 l 665 -11 l 646 -3 q 581 45 608 14 q 553 109 553 77 l 576 100 l 532 100 l 562 119 q 472 27 535 66 q 323 -11 408 -11 m 499 803 l 347 1042 l 431 1086 l 566 822 l 499 803 m 293 803 l 138 1042 l 221 1086 l 357 822 l 293 803 z "},"ä":{"ha":781,"x_min":87,"x_max":708,"o":"m 323 -11 q 203 15 256 -11 q 118 89 149 41 q 87 203 87 136 q 122 321 87 269 q 230 406 157 374 q 415 437 302 437 l 564 437 l 564 343 l 423 343 q 319 330 370 343 q 234 287 268 317 q 201 203 201 256 q 219 142 201 168 q 268 103 237 117 q 336 90 299 90 q 429 110 381 90 q 510 168 477 130 q 543 262 543 206 l 543 336 l 540 378 l 540 458 q 537 504 540 476 q 521 558 534 531 q 477 604 508 585 q 389 623 446 623 q 317 614 356 623 q 242 591 279 606 q 178 556 205 576 l 134 661 q 215 697 170 682 q 307 722 259 713 q 400 731 355 731 q 552 693 498 731 q 629 594 607 655 q 651 461 651 532 l 651 209 q 660 137 651 163 q 694 100 669 111 l 708 95 l 665 -11 l 646 -3 q 581 45 608 14 q 553 109 553 77 l 576 100 l 532 100 l 562 119 q 472 27 535 66 q 323 -11 408 -11 m 532 842 q 471 867 496 842 q 446 928 446 892 q 471 989 446 964 q 532 1013 496 1013 q 593 989 568 1013 q 617 928 617 964 q 593 867 617 892 q 532 842 568 842 m 260 842 q 200 867 225 842 q 175 928 175 892 q 200 989 175 964 q 260 1013 225 1013 q 321 989 297 1013 q 346 928 346 964 q 321 867 346 892 q 260 842 297 842 z "},"ȧ":{"ha":781,"x_min":87,"x_max":708,"o":"m 323 -11 q 203 15 256 -11 q 118 89 149 41 q 87 203 87 136 q 122 321 87 269 q 230 406 157 374 q 415 437 302 437 l 564 437 l 564 343 l 423 343 q 319 330 370 343 q 234 287 268 317 q 201 203 201 256 q 219 142 201 168 q 268 103 237 117 q 336 90 299 90 q 429 110 381 90 q 510 168 477 130 q 543 262 543 206 l 543 336 l 540 378 l 540 458 q 537 504 540 476 q 521 558 534 531 q 477 604 508 585 q 389 623 446 623 q 317 614 356 623 q 242 591 279 606 q 178 556 205 576 l 134 661 q 215 697 170 682 q 307 722 259 713 q 400 731 355 731 q 552 693 498 731 q 629 594 607 655 q 651 461 651 532 l 651 209 q 660 137 651 163 q 694 100 669 111 l 708 95 l 665 -11 l 646 -3 q 581 45 608 14 q 553 109 553 77 l 576 100 l 532 100 l 562 119 q 472 27 535 66 q 323 -11 408 -11 m 396 834 q 333 860 359 834 q 308 922 308 885 q 333 985 308 960 q 396 1010 359 1010 q 459 985 433 1010 q 484 922 484 960 q 459 860 484 885 q 396 834 433 834 z "},"ạ":{"ha":781,"x_min":87,"x_max":708,"o":"m 323 -11 q 203 15 256 -11 q 118 89 149 41 q 87 203 87 136 q 122 321 87 269 q 230 406 157 374 q 415 437 302 437 l 564 437 l 564 343 l 423 343 q 319 330 370 343 q 234 287 268 317 q 201 203 201 256 q 219 142 201 168 q 268 103 237 117 q 336 90 299 90 q 429 110 381 90 q 510 168 477 130 q 543 262 543 206 l 543 336 l 540 378 l 540 458 q 537 504 540 476 q 521 558 534 531 q 477 604 508 585 q 389 623 446 623 q 317 614 356 623 q 242 591 279 606 q 178 556 205 576 l 134 661 q 215 697 170 682 q 307 722 259 713 q 400 731 355 731 q 552 693 498 731 q 629 594 607 655 q 651 461 651 532 l 651 209 q 660 137 651 163 q 694 100 669 111 l 708 95 l 665 -11 l 646 -3 q 581 45 608 14 q 553 109 553 77 l 576 100 l 532 100 l 562 119 q 472 27 535 66 q 323 -11 408 -11 m 391 -267 q 328 -242 353 -267 q 302 -179 302 -216 q 328 -116 302 -142 q 391 -91 353 -91 q 453 -116 428 -91 q 479 -179 479 -142 q 453 -242 479 -216 q 391 -267 428 -267 z "},"à":{"ha":781,"x_min":87,"x_max":708,"o":"m 323 -11 q 203 15 256 -11 q 118 89 149 41 q 87 203 87 136 q 122 321 87 269 q 230 406 157 374 q 415 437 302 437 l 564 437 l 564 343 l 423 343 q 319 330 370 343 q 234 287 268 317 q 201 203 201 256 q 219 142 201 168 q 268 103 237 117 q 336 90 299 90 q 429 110 381 90 q 510 168 477 130 q 543 262 543 206 l 543 336 l 540 378 l 540 458 q 537 504 540 476 q 521 558 534 531 q 477 604 508 585 q 389 623 446 623 q 317 614 356 623 q 242 591 279 606 q 178 556 205 576 l 134 661 q 215 697 170 682 q 307 722 259 713 q 400 731 355 731 q 552 693 498 731 q 629 594 607 655 q 651 461 651 532 l 651 209 q 660 137 651 163 q 694 100 669 111 l 708 95 l 665 -11 l 646 -3 q 581 45 608 14 q 553 109 553 77 l 576 100 l 532 100 l 562 119 q 472 27 535 66 q 323 -11 408 -11 m 397 798 l 201 1005 l 289 1084 l 453 848 l 397 798 z "},"ả":{"ha":781,"x_min":87,"x_max":708,"o":"m 323 -11 q 203 15 256 -11 q 118 89 149 41 q 87 203 87 136 q 122 321 87 269 q 230 406 157 374 q 415 437 302 437 l 564 437 l 564 343 l 423 343 q 319 330 370 343 q 234 287 268 317 q 201 203 201 256 q 219 142 201 168 q 268 103 237 117 q 336 90 299 90 q 429 110 381 90 q 510 168 477 130 q 543 262 543 206 l 543 336 l 540 378 l 540 458 q 537 504 540 476 q 521 558 534 531 q 477 604 508 585 q 389 623 446 623 q 317 614 356 623 q 242 591 279 606 q 178 556 205 576 l 134 661 q 215 697 170 682 q 307 722 259 713 q 400 731 355 731 q 552 693 498 731 q 629 594 607 655 q 651 461 651 532 l 651 209 q 660 137 651 163 q 694 100 669 111 l 708 95 l 665 -11 l 646 -3 q 581 45 608 14 q 553 109 553 77 l 576 100 l 532 100 l 562 119 q 472 27 535 66 q 323 -11 408 -11 m 415 798 l 368 848 q 409 882 392 861 q 426 925 426 902 q 409 962 426 949 q 359 975 391 975 q 323 971 345 975 q 286 962 302 968 l 286 1039 q 327 1049 302 1045 q 369 1053 352 1053 q 467 1023 431 1053 q 503 939 503 994 q 477 853 503 893 q 415 798 451 814 z "},"ȃ":{"ha":781,"x_min":87,"x_max":708,"o":"m 323 -11 q 203 15 256 -11 q 118 89 149 41 q 87 203 87 136 q 122 321 87 269 q 230 406 157 374 q 415 437 302 437 l 564 437 l 564 343 l 423 343 q 319 330 370 343 q 234 287 268 317 q 201 203 201 256 q 219 142 201 168 q 268 103 237 117 q 336 90 299 90 q 429 110 381 90 q 510 168 477 130 q 543 262 543 206 l 543 336 l 540 378 l 540 458 q 537 504 540 476 q 521 558 534 531 q 477 604 508 585 q 389 623 446 623 q 317 614 356 623 q 242 591 279 606 q 178 556 205 576 l 134 661 q 215 697 170 682 q 307 722 259 713 q 400 731 355 731 q 552 693 498 731 q 629 594 607 655 q 651 461 651 532 l 651 209 q 660 137 651 163 q 694 100 669 111 l 708 95 l 665 -11 l 646 -3 q 581 45 608 14 q 553 109 553 77 l 576 100 l 532 100 l 562 119 q 472 27 535 66 q 323 -11 408 -11 m 395 1034 q 507 1006 458 1034 q 585 931 556 979 q 613 825 614 884 l 532 825 q 493 922 531 883 q 395 960 455 960 q 297 922 336 960 q 259 825 258 883 l 178 825 q 207 931 178 884 q 285 1006 235 979 q 395 1034 334 1034 z "},"ā":{"ha":781,"x_min":87,"x_max":708,"o":"m 323 -11 q 203 15 256 -11 q 118 89 149 41 q 87 203 87 136 q 122 321 87 269 q 230 406 157 374 q 415 437 302 437 l 564 437 l 564 343 l 423 343 q 319 330 370 343 q 234 287 268 317 q 201 203 201 256 q 219 142 201 168 q 268 103 237 117 q 336 90 299 90 q 429 110 381 90 q 510 168 477 130 q 543 262 543 206 l 543 336 l 540 378 l 540 458 q 537 504 540 476 q 521 558 534 531 q 477 604 508 585 q 389 623 446 623 q 317 614 356 623 q 242 591 279 606 q 178 556 205 576 l 134 661 q 215 697 170 682 q 307 722 259 713 q 400 731 355 731 q 552 693 498 731 q 629 594 607 655 q 651 461 651 532 l 651 209 q 660 137 651 163 q 694 100 669 111 l 708 95 l 665 -11 l 646 -3 q 581 45 608 14 q 553 109 553 77 l 576 100 l 532 100 l 562 119 q 472 27 535 66 q 323 -11 408 -11 m 159 875 l 159 952 l 631 952 l 631 875 l 159 875 z "},"ą":{"ha":781,"x_min":87,"x_max":708,"o":"m 624 -281 q 536 -247 567 -281 q 506 -170 506 -213 q 523 -98 506 -132 q 565 -34 541 -64 q 610 24 589 -4 l 665 -11 q 608 -84 632 -48 q 585 -153 585 -119 q 601 -190 585 -178 q 640 -202 618 -202 q 669 -199 652 -202 q 705 -183 685 -195 l 705 -260 q 664 -276 688 -271 q 624 -281 640 -281 m 323 -11 q 203 15 256 -11 q 118 89 149 41 q 87 203 87 136 q 122 321 87 269 q 230 406 157 374 q 415 437 302 437 l 564 437 l 564 343 l 423 343 q 319 330 370 343 q 234 287 268 317 q 201 203 201 256 q 219 142 201 168 q 268 103 237 117 q 336 90 299 90 q 429 110 381 90 q 510 168 477 130 q 543 262 543 206 l 543 336 l 540 378 l 540 458 q 537 504 540 476 q 521 558 534 531 q 477 604 508 585 q 389 623 446 623 q 317 614 356 623 q 242 591 279 606 q 178 556 205 576 l 134 661 q 215 697 170 682 q 307 722 259 713 q 400 731 355 731 q 552 693 498 731 q 629 594 607 655 q 651 461 651 532 l 651 209 q 660 137 651 163 q 694 100 669 111 l 708 95 l 665 -11 l 646 -3 q 581 45 608 14 q 553 109 553 77 l 576 100 l 532 100 l 562 119 q 472 27 535 66 q 323 -11 408 -11 z "},"å":{"ha":781,"x_min":87,"x_max":708,"o":"m 323 -11 q 203 15 256 -11 q 118 89 149 41 q 87 203 87 136 q 122 321 87 269 q 230 406 157 374 q 415 437 302 437 l 564 437 l 564 343 l 423 343 q 319 330 370 343 q 234 287 268 317 q 201 203 201 256 q 219 142 201 168 q 268 103 237 117 q 336 90 299 90 q 429 110 381 90 q 510 168 477 130 q 543 262 543 206 l 543 336 l 540 378 l 540 458 q 537 504 540 476 q 521 558 534 531 q 477 604 508 585 q 389 623 446 623 q 317 614 356 623 q 242 591 279 606 q 178 556 205 576 l 134 661 q 215 697 170 682 q 307 722 259 713 q 400 731 355 731 q 552 693 498 731 q 629 594 607 655 q 651 461 651 532 l 651 209 q 660 137 651 163 q 694 100 669 111 l 708 95 l 665 -11 l 646 -3 q 581 45 608 14 q 553 109 553 77 l 576 100 l 532 100 l 562 119 q 472 27 535 66 q 323 -11 408 -11 m 396 812 q 294 853 335 812 q 254 952 254 895 q 294 1053 254 1013 q 396 1092 335 1092 q 497 1053 456 1092 q 538 952 538 1013 q 498 853 538 895 q 396 812 457 812 m 396 878 q 450 900 430 878 q 471 952 471 922 q 450 1006 471 986 q 396 1027 429 1027 q 343 1006 366 1027 q 321 952 321 986 q 343 900 321 922 q 396 878 366 878 z "},"ǻ":{"ha":781,"x_min":87,"x_max":708,"o":"m 396 812 q 294 853 335 812 q 254 952 254 895 q 294 1053 254 1013 q 396 1092 335 1092 q 497 1053 456 1092 q 538 952 538 1013 q 498 853 538 895 q 396 812 457 812 m 396 878 q 450 900 430 878 q 471 952 471 922 q 450 1006 471 986 q 396 1027 429 1027 q 343 1006 366 1027 q 321 952 321 986 q 343 900 321 922 q 396 878 366 878 m 445 1122 l 391 1180 l 593 1375 l 654 1299 l 445 1122 m 323 -11 q 203 15 256 -11 q 118 89 149 41 q 87 203 87 136 q 122 321 87 269 q 230 406 157 374 q 415 437 302 437 l 564 437 l 564 343 l 423 343 q 319 330 370 343 q 234 287 268 317 q 201 203 201 256 q 219 142 201 168 q 268 103 237 117 q 336 90 299 90 q 429 110 381 90 q 510 168 477 130 q 543 262 543 206 l 543 336 l 540 378 l 540 458 q 537 504 540 476 q 521 558 534 531 q 477 604 508 585 q 389 623 446 623 q 317 614 356 623 q 242 591 279 606 q 178 556 205 576 l 134 661 q 215 697 170 682 q 307 722 259 713 q 400 731 355 731 q 552 693 498 731 q 629 594 607 655 q 651 461 651 532 l 651 209 q 660 137 651 163 q 694 100 669 111 l 708 95 l 665 -11 l 646 -3 q 581 45 608 14 q 553 109 553 77 l 576 100 l 532 100 l 562 119 q 472 27 535 66 q 323 -11 408 -11 z "},"ã":{"ha":781,"x_min":87,"x_max":708,"o":"m 323 -11 q 203 15 256 -11 q 118 89 149 41 q 87 203 87 136 q 122 321 87 269 q 230 406 157 374 q 415 437 302 437 l 564 437 l 564 343 l 423 343 q 319 330 370 343 q 234 287 268 317 q 201 203 201 256 q 219 142 201 168 q 268 103 237 117 q 336 90 299 90 q 429 110 381 90 q 510 168 477 130 q 543 262 543 206 l 543 336 l 540 378 l 540 458 q 537 504 540 476 q 521 558 534 531 q 477 604 508 585 q 389 623 446 623 q 317 614 356 623 q 242 591 279 606 q 178 556 205 576 l 134 661 q 215 697 170 682 q 307 722 259 713 q 400 731 355 731 q 552 693 498 731 q 629 594 607 655 q 651 461 651 532 l 651 209 q 660 137 651 163 q 694 100 669 111 l 708 95 l 665 -11 l 646 -3 q 581 45 608 14 q 553 109 553 77 l 576 100 l 532 100 l 562 119 q 472 27 535 66 q 323 -11 408 -11 m 172 827 q 210 957 172 917 q 304 997 248 997 q 365 984 340 997 q 408 953 390 970 q 443 922 426 935 q 481 909 460 909 q 525 933 509 909 q 538 997 540 958 l 620 997 q 582 869 620 911 q 488 827 545 827 q 430 841 454 827 q 387 873 406 855 q 350 906 368 892 q 309 920 332 920 q 268 895 283 920 q 252 827 254 870 l 172 827 z "},"æ":{"ha":781,"x_min":24,"x_max":757,"o":"m 199 -11 q 109 16 148 -11 q 47 89 69 42 q 24 199 24 136 q 89 359 24 305 q 264 414 153 414 l 347 414 l 347 319 l 279 319 q 175 290 216 319 q 134 201 134 261 q 158 124 134 154 q 217 95 182 95 q 296 142 261 95 q 331 264 331 189 l 331 416 q 328 523 331 475 q 304 597 324 570 q 233 624 283 624 q 153 608 193 624 q 91 575 113 591 l 54 674 q 133 712 84 694 q 237 730 182 730 q 356 690 316 730 q 408 586 395 650 l 376 586 q 445 689 395 649 q 560 730 495 730 q 668 688 624 730 q 734 571 711 647 q 757 389 757 494 q 756 350 757 369 q 751 319 755 331 l 411 319 l 407 414 l 656 414 q 634 566 658 509 q 555 624 610 624 q 485 593 515 624 q 437 503 454 562 q 420 362 420 444 q 437 220 420 279 q 489 128 454 160 q 575 96 523 96 q 632 112 600 96 q 693 153 664 127 l 736 49 q 686 17 713 31 q 630 -4 659 3 q 575 -11 602 -11 q 445 36 493 -11 q 366 167 396 83 l 393 167 q 360 83 386 124 q 294 16 335 42 q 199 -11 254 -11 z "},"ǽ":{"ha":781,"x_min":24,"x_max":757,"o":"m 199 -11 q 109 16 148 -11 q 47 89 69 42 q 24 199 24 136 q 89 359 24 305 q 264 414 153 414 l 347 414 l 347 319 l 279 319 q 175 290 216 319 q 134 201 134 261 q 158 124 134 154 q 217 95 182 95 q 296 142 261 95 q 331 264 331 189 l 331 416 q 328 523 331 475 q 304 597 324 570 q 233 624 283 624 q 153 608 193 624 q 91 575 113 591 l 54 674 q 133 712 84 694 q 237 730 182 730 q 356 690 316 730 q 408 586 395 650 l 376 586 q 445 689 395 649 q 560 730 495 730 q 668 688 624 730 q 734 571 711 647 q 757 389 757 494 q 756 350 757 369 q 751 319 755 331 l 411 319 l 407 414 l 656 414 q 634 566 658 509 q 555 624 610 624 q 485 593 515 624 q 437 503 454 562 q 420 362 420 444 q 437 220 420 279 q 489 128 454 160 q 575 96 523 96 q 632 112 600 96 q 693 153 664 127 l 736 49 q 686 17 713 31 q 630 -4 659 3 q 575 -11 602 -11 q 445 36 493 -11 q 366 167 396 83 l 393 167 q 360 83 386 124 q 294 16 335 42 q 199 -11 254 -11 m 387 798 l 331 848 l 495 1084 l 583 1005 l 387 798 z "},"b":{"ha":781,"x_min":106,"x_max":713,"o":"m 106 0 l 106 1044 l 222 1044 l 222 628 l 235 628 l 208 553 l 208 167 l 240 98 l 221 98 l 221 0 l 106 0 m 426 -11 q 279 36 342 -11 q 181 165 216 82 q 146 361 146 249 q 181 555 146 472 q 279 685 216 639 q 426 731 342 731 q 577 685 513 731 q 678 556 642 640 q 713 361 713 473 q 678 164 713 248 q 577 35 642 81 q 426 -11 513 -11 m 404 95 q 506 128 463 95 q 572 221 549 161 q 595 361 595 281 q 572 500 595 441 q 505 592 548 559 q 403 625 461 625 q 303 593 346 625 q 237 501 260 560 q 213 361 213 441 q 237 221 213 281 q 303 128 260 161 q 404 95 347 95 z "},"c":{"ha":781,"x_min":95,"x_max":678,"o":"m 448 -8 q 264 39 343 -8 q 140 170 184 86 q 95 363 95 254 q 139 555 95 472 q 262 684 183 637 q 444 731 340 731 q 566 709 502 731 q 675 650 630 688 l 631 551 q 550 602 602 581 q 446 623 499 623 q 326 590 378 623 q 244 498 273 557 q 214 362 214 439 q 244 226 214 285 q 328 134 274 167 q 452 100 381 100 q 557 122 507 100 q 633 175 607 144 l 678 75 q 573 15 637 38 q 448 -8 510 -8 z "},"ć":{"ha":781,"x_min":95,"x_max":678,"o":"m 448 -8 q 264 39 343 -8 q 140 170 184 86 q 95 363 95 254 q 139 555 95 472 q 262 684 183 637 q 444 731 340 731 q 566 709 502 731 q 675 650 630 688 l 631 551 q 550 602 602 581 q 446 623 499 623 q 326 590 378 623 q 244 498 273 557 q 214 362 214 439 q 244 226 214 285 q 328 134 274 167 q 452 100 381 100 q 557 122 507 100 q 633 175 607 144 l 678 75 q 573 15 637 38 q 448 -8 510 -8 m 445 798 l 389 848 l 553 1084 l 642 1005 l 445 798 z "},"č":{"ha":781,"x_min":95,"x_max":678,"o":"m 448 -8 q 264 39 343 -8 q 140 170 184 86 q 95 363 95 254 q 139 555 95 472 q 262 684 183 637 q 444 731 340 731 q 566 709 502 731 q 675 650 630 688 l 631 551 q 550 602 602 581 q 446 623 499 623 q 326 590 378 623 q 244 498 273 557 q 214 362 214 439 q 244 226 214 285 q 328 134 274 167 q 452 100 381 100 q 557 122 507 100 q 633 175 607 144 l 678 75 q 573 15 637 38 q 448 -8 510 -8 m 282 1055 l 445 897 l 450 897 l 609 1055 l 662 997 l 461 806 l 430 806 l 229 997 l 282 1055 z "},"ç":{"ha":781,"x_min":95,"x_max":678,"o":"m 448 -8 q 264 39 343 -8 q 140 170 184 86 q 95 363 95 254 q 139 555 95 472 q 262 684 183 637 q 444 731 340 731 q 566 709 502 731 q 675 650 630 688 l 631 551 q 550 602 602 581 q 446 623 499 623 q 326 590 378 623 q 244 498 273 557 q 214 362 214 439 q 244 226 214 285 q 328 134 274 167 q 452 100 381 100 q 557 122 507 100 q 633 175 607 144 l 678 75 q 573 15 637 38 q 448 -8 510 -8 m 347 -316 l 347 -247 q 451 -234 416 -250 q 487 -183 487 -218 q 459 -142 487 -159 q 385 -125 432 -125 l 423 0 l 486 0 l 452 -111 l 441 -75 q 533 -115 501 -85 q 564 -191 564 -145 q 510 -283 564 -250 q 347 -316 456 -317 z "},"ḉ":{"ha":781,"x_min":95,"x_max":678,"o":"m 448 -8 q 264 39 343 -8 q 140 170 184 86 q 95 363 95 254 q 139 555 95 472 q 262 684 183 637 q 444 731 340 731 q 566 709 502 731 q 675 650 630 688 l 631 551 q 550 602 602 581 q 446 623 499 623 q 326 590 378 623 q 244 498 273 557 q 214 362 214 439 q 244 226 214 285 q 328 134 274 167 q 452 100 381 100 q 557 122 507 100 q 633 175 607 144 l 678 75 q 573 15 637 38 q 448 -8 510 -8 m 347 -316 l 347 -247 q 451 -234 416 -250 q 487 -183 487 -218 q 459 -142 487 -159 q 385 -125 432 -125 l 423 0 l 486 0 l 452 -111 l 441 -75 q 533 -115 501 -85 q 564 -191 564 -145 q 510 -283 564 -250 q 347 -316 456 -317 m 445 798 l 389 848 l 553 1084 l 642 1005 l 445 798 z "},"ĉ":{"ha":781,"x_min":95,"x_max":678,"o":"m 448 -8 q 264 39 343 -8 q 140 170 184 86 q 95 363 95 254 q 139 555 95 472 q 262 684 183 637 q 444 731 340 731 q 566 709 502 731 q 675 650 630 688 l 631 551 q 550 602 602 581 q 446 623 499 623 q 326 590 378 623 q 244 498 273 557 q 214 362 214 439 q 244 226 214 285 q 328 134 274 167 q 452 100 381 100 q 557 122 507 100 q 633 175 607 144 l 678 75 q 573 15 637 38 q 448 -8 510 -8 m 281 803 l 228 861 l 429 1053 l 460 1053 l 661 861 l 608 803 l 449 962 l 444 962 l 281 803 z "},"ċ":{"ha":781,"x_min":95,"x_max":678,"o":"m 448 -8 q 264 39 343 -8 q 140 170 184 86 q 95 363 95 254 q 139 555 95 472 q 262 684 183 637 q 444 731 340 731 q 566 709 502 731 q 675 650 630 688 l 631 551 q 550 602 602 581 q 446 623 499 623 q 326 590 378 623 q 244 498 273 557 q 214 362 214 439 q 244 226 214 285 q 328 134 274 167 q 452 100 381 100 q 557 122 507 100 q 633 175 607 144 l 678 75 q 573 15 637 38 q 448 -8 510 -8 m 446 834 q 384 860 409 834 q 358 922 358 885 q 384 985 358 960 q 446 1010 409 1010 q 509 985 484 1010 q 534 922 534 960 q 509 860 534 885 q 446 834 484 834 z "},"d":{"ha":781,"x_min":68,"x_max":727,"o":"m 684 -11 q 605 57 633 18 q 575 133 576 96 l 597 117 l 544 117 l 574 197 l 574 559 l 544 631 l 559 631 l 559 1044 l 675 1044 l 675 199 q 690 136 675 165 q 727 95 704 107 l 684 -11 m 355 -11 q 204 35 269 -11 q 103 164 139 81 q 68 361 68 248 q 103 556 68 473 q 204 685 139 640 q 355 731 269 731 q 502 685 439 731 q 600 555 565 639 q 635 361 635 472 q 600 165 635 249 q 502 36 565 82 q 355 -11 439 -11 m 377 95 q 478 128 435 95 q 545 221 521 161 q 568 361 568 281 q 545 501 568 441 q 478 593 521 560 q 378 625 435 625 q 277 592 320 625 q 210 500 233 559 q 186 361 186 441 q 209 221 186 281 q 276 128 233 161 q 377 95 319 95 z "},"ď":{"ha":781,"x_min":54,"x_max":773,"o":"m 313 -11 q 176 35 235 -11 q 86 164 118 81 q 54 361 54 248 q 86 556 54 473 q 177 685 119 640 q 315 731 236 731 q 448 685 391 731 q 536 556 505 640 q 567 361 567 473 q 536 164 567 248 q 448 35 505 81 q 313 -11 391 -11 m 338 95 q 426 128 389 95 q 484 220 463 161 q 505 361 505 280 q 484 501 505 441 q 427 593 464 560 q 339 625 389 625 q 250 593 288 625 q 192 501 212 560 q 171 361 171 441 q 192 220 171 280 q 250 128 212 161 q 338 95 288 95 m 642 -11 q 551 56 588 17 q 513 133 515 95 l 530 117 l 483 117 l 509 197 l 509 559 l 481 631 l 496 631 l 496 1044 l 613 1044 l 613 199 q 634 136 613 164 q 685 95 655 107 l 642 -11 m 675 739 l 678 1044 l 773 1044 l 760 739 l 675 739 z "},"đ":{"ha":781,"x_min":68,"x_max":804,"o":"m 684 -11 q 605 57 633 18 q 575 133 576 96 l 597 117 l 544 117 l 574 197 l 574 559 l 544 631 l 559 631 l 559 1044 l 675 1044 l 675 199 q 690 136 675 165 q 727 95 704 107 l 684 -11 m 355 -11 q 204 35 269 -11 q 103 164 139 81 q 68 361 68 248 q 103 556 68 473 q 204 685 139 640 q 355 731 269 731 q 502 685 439 731 q 600 555 565 639 q 635 361 635 472 q 600 165 635 249 q 502 36 565 82 q 355 -11 439 -11 m 377 95 q 478 128 435 95 q 545 221 521 161 q 568 361 568 281 q 545 501 568 441 q 478 593 521 560 q 378 625 435 625 q 277 592 320 625 q 210 500 233 559 q 186 361 186 441 q 209 221 186 281 q 276 128 233 161 q 377 95 319 95 m 433 817 l 433 911 l 804 911 l 804 817 l 433 817 z "},"ḍ":{"ha":781,"x_min":68,"x_max":727,"o":"m 684 -11 q 605 57 633 18 q 575 133 576 96 l 597 117 l 544 117 l 574 197 l 574 559 l 544 631 l 559 631 l 559 1044 l 675 1044 l 675 199 q 690 136 675 165 q 727 95 704 107 l 684 -11 m 355 -11 q 204 35 269 -11 q 103 164 139 81 q 68 361 68 248 q 103 556 68 473 q 204 685 139 640 q 355 731 269 731 q 502 685 439 731 q 600 555 565 639 q 635 361 635 472 q 600 165 635 249 q 502 36 565 82 q 355 -11 439 -11 m 377 95 q 478 128 435 95 q 545 221 521 161 q 568 361 568 281 q 545 501 568 441 q 478 593 521 560 q 378 625 435 625 q 277 592 320 625 q 210 500 233 559 q 186 361 186 441 q 209 221 186 281 q 276 128 233 161 q 377 95 319 95 m 385 -267 q 322 -242 348 -267 q 297 -179 297 -216 q 322 -116 297 -142 q 385 -91 348 -91 q 448 -116 422 -91 q 473 -179 473 -142 q 448 -242 473 -216 q 385 -267 422 -267 z "},"ḏ":{"ha":781,"x_min":68,"x_max":727,"o":"m 684 -11 q 605 57 633 18 q 575 133 576 96 l 597 117 l 544 117 l 574 197 l 574 559 l 544 631 l 559 631 l 559 1044 l 675 1044 l 675 199 q 690 136 675 165 q 727 95 704 107 l 684 -11 m 355 -11 q 204 35 269 -11 q 103 164 139 81 q 68 361 68 248 q 103 556 68 473 q 204 685 139 640 q 355 731 269 731 q 502 685 439 731 q 600 555 565 639 q 635 361 635 472 q 600 165 635 249 q 502 36 565 82 q 355 -11 439 -11 m 377 95 q 478 128 435 95 q 545 221 521 161 q 568 361 568 281 q 545 501 568 441 q 478 593 521 560 q 378 625 435 625 q 277 592 320 625 q 210 500 233 559 q 186 361 186 441 q 209 221 186 281 q 276 128 233 161 q 377 95 319 95 m 149 -270 l 149 -193 l 621 -193 l 621 -270 l 149 -270 z "},"ǆ":{"ha":781,"x_min":22,"x_max":757,"o":"m 176 -11 q 61 84 100 -11 q 22 361 22 180 q 62 636 22 541 q 179 731 102 731 q 281 636 252 731 q 311 361 311 541 q 281 84 311 180 q 176 -11 251 -11 m 195 95 q 257 163 238 95 q 275 361 275 231 q 257 557 275 490 q 198 625 239 625 q 137 557 157 625 q 117 361 117 490 q 136 163 117 231 q 195 95 156 95 m 368 -11 q 305 46 328 12 q 277 110 282 81 l 288 84 l 252 84 l 283 197 l 283 559 l 251 656 l 277 656 l 277 1044 l 372 1044 l 372 171 q 381 126 372 145 q 408 95 391 106 l 368 -11 m 420 0 l 420 28 l 632 618 l 632 621 l 452 621 l 452 718 l 751 718 l 751 684 l 541 99 l 541 96 l 743 96 l 743 0 l 420 0 m 578 844 l 426 998 l 473 1051 l 590 928 l 593 928 l 709 1051 l 757 998 l 605 844 l 578 844 z "},"ð":{"ha":781,"x_min":65,"x_max":719,"o":"m 393 -11 q 229 35 303 -11 q 110 161 154 81 q 65 347 65 242 q 108 531 65 452 q 222 655 151 610 q 382 700 294 700 q 476 685 431 700 q 555 644 522 669 q 604 586 589 618 l 582 612 l 614 612 l 597 591 q 533 730 574 667 q 437 844 492 793 q 318 933 382 895 q 186 1000 254 972 l 231 1095 q 418 991 330 1053 q 574 847 507 929 q 681 659 642 764 q 719 422 719 553 q 677 189 719 286 q 562 41 635 92 q 393 -11 488 -11 m 396 98 q 503 133 455 99 q 577 226 550 168 q 605 358 605 284 q 576 484 605 432 q 499 564 547 536 q 395 591 452 591 q 286 561 334 591 q 209 477 237 531 q 180 350 180 422 q 210 217 180 275 q 289 128 239 160 q 396 98 338 96 m 222 772 l 183 838 l 594 1097 l 636 1031 l 222 772 z "},"e":{"ha":781,"x_min":79,"x_max":703,"o":"m 414 -11 q 239 36 315 -11 q 121 167 163 83 q 79 361 79 251 q 119 553 79 470 q 233 683 160 636 q 400 730 305 730 q 557 688 489 730 q 664 572 625 646 q 703 400 703 498 q 701 355 703 380 q 694 313 699 331 l 168 313 l 168 408 l 589 408 q 564 519 589 471 q 497 594 540 567 q 399 621 454 621 q 291 588 338 621 q 217 497 243 555 q 190 361 190 438 q 219 223 190 283 q 299 131 248 164 q 416 98 350 98 q 512 117 463 98 q 601 170 562 136 l 644 65 q 538 11 602 33 q 414 -11 475 -11 z "},"é":{"ha":781,"x_min":79,"x_max":703,"o":"m 414 -11 q 239 36 315 -11 q 121 167 163 83 q 79 361 79 251 q 119 553 79 470 q 233 683 160 636 q 400 730 305 730 q 557 688 489 730 q 664 572 625 646 q 703 400 703 498 q 701 355 703 380 q 694 313 699 331 l 168 313 l 168 408 l 589 408 q 564 519 589 471 q 497 594 540 567 q 399 621 454 621 q 291 588 338 621 q 217 497 243 555 q 190 361 190 438 q 219 223 190 283 q 299 131 248 164 q 416 98 350 98 q 512 117 463 98 q 601 170 562 136 l 644 65 q 538 11 602 33 q 414 -11 475 -11 m 399 798 l 343 848 l 507 1084 l 595 1005 l 399 798 z "},"ĕ":{"ha":781,"x_min":79,"x_max":703,"o":"m 414 -11 q 239 36 315 -11 q 121 167 163 83 q 79 361 79 251 q 119 553 79 470 q 233 683 160 636 q 400 730 305 730 q 557 688 489 730 q 664 572 625 646 q 703 400 703 498 q 701 355 703 380 q 694 313 699 331 l 168 313 l 168 408 l 589 408 q 564 519 589 471 q 497 594 540 567 q 399 621 454 621 q 291 588 338 621 q 217 497 243 555 q 190 361 190 438 q 219 223 190 283 q 299 131 248 164 q 416 98 350 98 q 512 117 463 98 q 601 170 562 136 l 644 65 q 538 11 602 33 q 414 -11 475 -11 m 399 822 q 289 849 338 822 q 211 924 239 877 q 182 1031 182 971 l 263 1031 q 301 934 262 973 q 399 895 340 895 q 497 934 459 895 q 536 1031 535 973 l 617 1031 q 589 924 618 971 q 511 849 560 877 q 399 822 462 822 z "},"ě":{"ha":781,"x_min":79,"x_max":703,"o":"m 414 -11 q 239 36 315 -11 q 121 167 163 83 q 79 361 79 251 q 119 553 79 470 q 233 683 160 636 q 400 730 305 730 q 557 688 489 730 q 664 572 625 646 q 703 400 703 498 q 701 355 703 380 q 694 313 699 331 l 168 313 l 168 408 l 589 408 q 564 519 589 471 q 497 594 540 567 q 399 621 454 621 q 291 588 338 621 q 217 497 243 555 q 190 361 190 438 q 219 223 190 283 q 299 131 248 164 q 416 98 350 98 q 512 117 463 98 q 601 170 562 136 l 644 65 q 538 11 602 33 q 414 -11 475 -11 m 236 1055 l 399 897 l 404 897 l 563 1055 l 616 997 l 415 806 l 384 806 l 183 997 l 236 1055 z "},"ḝ":{"ha":781,"x_min":79,"x_max":703,"o":"m 414 -11 q 239 36 315 -11 q 121 167 163 83 q 79 361 79 251 q 119 553 79 470 q 233 683 160 636 q 400 730 305 730 q 557 688 489 730 q 664 572 625 646 q 703 400 703 498 q 701 355 703 380 q 694 313 699 331 l 168 313 l 168 408 l 589 408 q 564 519 589 471 q 497 594 540 567 q 399 621 454 621 q 291 588 338 621 q 217 497 243 555 q 190 361 190 438 q 219 223 190 283 q 299 131 248 164 q 416 98 350 98 q 512 117 463 98 q 601 170 562 136 l 644 65 q 538 11 602 33 q 414 -11 475 -11 m 300 -316 l 300 -247 q 404 -234 368 -250 q 439 -183 439 -218 q 412 -142 439 -159 q 338 -125 385 -125 l 376 0 l 438 0 l 404 -111 l 393 -75 q 485 -115 454 -85 q 517 -191 517 -145 q 463 -283 517 -250 q 300 -316 409 -317 m 399 822 q 289 849 338 822 q 211 924 239 877 q 182 1031 182 971 l 263 1031 q 301 934 262 973 q 399 895 340 895 q 497 934 459 895 q 536 1031 535 973 l 617 1031 q 589 924 618 971 q 511 849 560 877 q 399 822 462 822 z "},"ê":{"ha":781,"x_min":79,"x_max":703,"o":"m 414 -11 q 239 36 315 -11 q 121 167 163 83 q 79 361 79 251 q 119 553 79 470 q 233 683 160 636 q 400 730 305 730 q 557 688 489 730 q 664 572 625 646 q 703 400 703 498 q 701 355 703 380 q 694 313 699 331 l 168 313 l 168 408 l 589 408 q 564 519 589 471 q 497 594 540 567 q 399 621 454 621 q 291 588 338 621 q 217 497 243 555 q 190 361 190 438 q 219 223 190 283 q 299 131 248 164 q 416 98 350 98 q 512 117 463 98 q 601 170 562 136 l 644 65 q 538 11 602 33 q 414 -11 475 -11 m 235 803 l 182 861 l 382 1053 l 414 1053 l 614 861 l 562 803 l 403 962 l 397 962 l 235 803 z "},"ế":{"ha":781,"x_min":79,"x_max":784,"o":"m 414 -11 q 239 36 315 -11 q 121 167 163 83 q 79 361 79 251 q 119 553 79 470 q 233 683 160 636 q 400 730 305 730 q 557 688 489 730 q 664 572 625 646 q 703 400 703 498 q 701 355 703 380 q 694 313 699 331 l 168 313 l 168 408 l 589 408 q 564 519 589 471 q 497 594 540 567 q 399 621 454 621 q 291 588 338 621 q 217 497 243 555 q 190 361 190 438 q 219 223 190 283 q 299 131 248 164 q 416 98 350 98 q 512 117 463 98 q 601 170 562 136 l 644 65 q 538 11 602 33 q 414 -11 475 -11 m 589 967 l 532 1010 l 722 1208 l 784 1131 l 589 967 m 235 808 l 176 869 l 385 1025 l 416 1025 l 624 869 l 566 808 l 403 936 l 397 936 l 235 808 z "},"ệ":{"ha":781,"x_min":79,"x_max":703,"o":"m 414 -11 q 239 36 315 -11 q 121 167 163 83 q 79 361 79 251 q 119 553 79 470 q 233 683 160 636 q 400 730 305 730 q 557 688 489 730 q 664 572 625 646 q 703 400 703 498 q 701 355 703 380 q 694 313 699 331 l 168 313 l 168 408 l 589 408 q 564 519 589 471 q 497 594 540 567 q 399 621 454 621 q 291 588 338 621 q 217 497 243 555 q 190 361 190 438 q 219 223 190 283 q 299 131 248 164 q 416 98 350 98 q 512 117 463 98 q 601 170 562 136 l 644 65 q 538 11 602 33 q 414 -11 475 -11 m 400 -267 q 337 -242 363 -267 q 312 -179 312 -216 q 337 -116 312 -142 q 400 -91 363 -91 q 463 -116 437 -91 q 488 -179 488 -142 q 463 -242 488 -216 q 400 -267 437 -267 m 235 803 l 182 861 l 382 1053 l 414 1053 l 614 861 l 562 803 l 403 962 l 397 962 l 235 803 z "},"ề":{"ha":781,"x_min":16,"x_max":703,"o":"m 414 -11 q 239 36 315 -11 q 121 167 163 83 q 79 361 79 251 q 119 553 79 470 q 233 683 160 636 q 400 730 305 730 q 557 688 489 730 q 664 572 625 646 q 703 400 703 498 q 701 355 703 380 q 694 313 699 331 l 168 313 l 168 408 l 589 408 q 564 519 589 471 q 497 594 540 567 q 399 621 454 621 q 291 588 338 621 q 217 497 243 555 q 190 361 190 438 q 219 223 190 283 q 299 131 248 164 q 416 98 350 98 q 512 117 463 98 q 601 170 562 136 l 644 65 q 538 11 602 33 q 414 -11 475 -11 m 212 967 l 16 1131 l 79 1208 l 269 1010 l 212 967 m 566 808 l 403 936 l 397 936 l 235 808 l 176 869 l 384 1025 l 415 1025 l 624 869 l 566 808 z "},"ể":{"ha":781,"x_min":79,"x_max":703,"o":"m 414 -11 q 239 36 315 -11 q 121 167 163 83 q 79 361 79 251 q 119 553 79 470 q 233 683 160 636 q 400 730 305 730 q 557 688 489 730 q 664 572 625 646 q 703 400 703 498 q 701 355 703 380 q 694 313 699 331 l 168 313 l 168 408 l 589 408 q 564 519 589 471 q 497 594 540 567 q 399 621 454 621 q 291 588 338 621 q 217 497 243 555 q 190 361 190 438 q 219 223 190 283 q 299 131 248 164 q 416 98 350 98 q 512 117 463 98 q 601 170 562 136 l 644 65 q 538 11 602 33 q 414 -11 475 -11 m 576 964 l 525 1002 q 561 1042 547 1021 q 575 1081 575 1063 q 558 1120 575 1105 q 509 1134 541 1134 q 472 1130 492 1134 q 437 1119 453 1126 l 437 1198 q 476 1207 451 1204 q 522 1211 501 1211 q 617 1183 581 1211 q 654 1097 654 1154 q 641 1042 654 1068 q 611 997 629 1017 q 576 964 593 977 m 235 808 l 176 869 l 385 1025 l 416 1025 l 624 869 l 566 808 l 403 936 l 397 936 l 235 808 z "},"ễ":{"ha":781,"x_min":79,"x_max":703,"o":"m 414 -11 q 239 36 315 -11 q 121 167 163 83 q 79 361 79 251 q 119 553 79 470 q 233 683 160 636 q 400 730 305 730 q 557 688 489 730 q 664 572 625 646 q 703 400 703 498 q 701 355 703 380 q 694 313 699 331 l 168 313 l 168 408 l 589 408 q 564 519 589 471 q 497 594 540 567 q 399 621 454 621 q 291 588 338 621 q 217 497 243 555 q 190 361 190 438 q 219 223 190 283 q 299 131 248 164 q 416 98 350 98 q 512 117 463 98 q 601 170 562 136 l 644 65 q 538 11 602 33 q 414 -11 475 -11 m 182 1055 q 217 1171 182 1128 q 312 1214 253 1214 q 369 1202 346 1214 q 409 1175 392 1191 q 444 1148 427 1160 q 481 1137 460 1137 q 523 1157 508 1137 q 537 1214 537 1177 l 618 1214 q 605 1133 620 1168 q 563 1076 591 1097 q 495 1055 534 1055 q 439 1067 463 1055 q 398 1096 416 1080 q 363 1124 380 1112 q 324 1137 346 1137 q 280 1117 298 1137 q 262 1055 263 1097 l 182 1055 m 235 808 l 176 869 l 385 1025 l 416 1025 l 624 869 l 566 808 l 403 936 l 397 936 l 235 808 z "},"ȅ":{"ha":781,"x_min":79,"x_max":703,"o":"m 414 -11 q 239 36 315 -11 q 121 167 163 83 q 79 361 79 251 q 119 553 79 470 q 233 683 160 636 q 400 730 305 730 q 557 688 489 730 q 664 572 625 646 q 703 400 703 498 q 701 355 703 380 q 694 313 699 331 l 168 313 l 168 408 l 589 408 q 564 519 589 471 q 497 594 540 567 q 399 621 454 621 q 291 588 338 621 q 217 497 243 555 q 190 361 190 438 q 219 223 190 283 q 299 131 248 164 q 416 98 350 98 q 512 117 463 98 q 601 170 562 136 l 644 65 q 538 11 602 33 q 414 -11 475 -11 m 503 803 l 351 1042 l 435 1086 l 570 822 l 503 803 m 297 803 l 142 1042 l 225 1086 l 361 822 l 297 803 z "},"ë":{"ha":781,"x_min":79,"x_max":703,"o":"m 414 -11 q 239 36 315 -11 q 121 167 163 83 q 79 361 79 251 q 119 553 79 470 q 233 683 160 636 q 400 730 305 730 q 557 688 489 730 q 664 572 625 646 q 703 400 703 498 q 701 355 703 380 q 694 313 699 331 l 168 313 l 168 408 l 589 408 q 564 519 589 471 q 497 594 540 567 q 399 621 454 621 q 291 588 338 621 q 217 497 243 555 q 190 361 190 438 q 219 223 190 283 q 299 131 248 164 q 416 98 350 98 q 512 117 463 98 q 601 170 562 136 l 644 65 q 538 11 602 33 q 414 -11 475 -11 m 536 842 q 475 867 500 842 q 450 928 450 892 q 475 989 450 964 q 536 1013 500 1013 q 597 989 572 1013 q 621 928 621 964 q 597 867 621 892 q 536 842 572 842 m 264 842 q 204 867 229 842 q 179 928 179 892 q 204 989 179 964 q 264 1013 229 1013 q 326 989 301 1013 q 350 928 350 964 q 326 867 350 892 q 264 842 301 842 z "},"ė":{"ha":781,"x_min":79,"x_max":703,"o":"m 414 -11 q 239 36 315 -11 q 121 167 163 83 q 79 361 79 251 q 119 553 79 470 q 233 683 160 636 q 400 730 305 730 q 557 688 489 730 q 664 572 625 646 q 703 400 703 498 q 701 355 703 380 q 694 313 699 331 l 168 313 l 168 408 l 589 408 q 564 519 589 471 q 497 594 540 567 q 399 621 454 621 q 291 588 338 621 q 217 497 243 555 q 190 361 190 438 q 219 223 190 283 q 299 131 248 164 q 416 98 350 98 q 512 117 463 98 q 601 170 562 136 l 644 65 q 538 11 602 33 q 414 -11 475 -11 m 400 834 q 337 860 363 834 q 312 922 312 885 q 337 985 312 960 q 400 1010 363 1010 q 463 985 437 1010 q 488 922 488 960 q 463 860 488 885 q 400 834 437 834 z "},"ẹ":{"ha":781,"x_min":79,"x_max":703,"o":"m 414 -11 q 239 36 315 -11 q 121 167 163 83 q 79 361 79 251 q 119 553 79 470 q 233 683 160 636 q 400 730 305 730 q 557 688 489 730 q 664 572 625 646 q 703 400 703 498 q 701 355 703 380 q 694 313 699 331 l 168 313 l 168 408 l 589 408 q 564 519 589 471 q 497 594 540 567 q 399 621 454 621 q 291 588 338 621 q 217 497 243 555 q 190 361 190 438 q 219 223 190 283 q 299 131 248 164 q 416 98 350 98 q 512 117 463 98 q 601 170 562 136 l 644 65 q 538 11 602 33 q 414 -11 475 -11 m 400 -267 q 337 -242 363 -267 q 312 -179 312 -216 q 337 -116 312 -142 q 400 -91 363 -91 q 463 -116 437 -91 q 488 -179 488 -142 q 463 -242 488 -216 q 400 -267 437 -267 z "},"è":{"ha":781,"x_min":79,"x_max":703,"o":"m 414 -11 q 239 36 315 -11 q 121 167 163 83 q 79 361 79 251 q 119 553 79 470 q 233 683 160 636 q 400 730 305 730 q 557 688 489 730 q 664 572 625 646 q 703 400 703 498 q 701 355 703 380 q 694 313 699 331 l 168 313 l 168 408 l 589 408 q 564 519 589 471 q 497 594 540 567 q 399 621 454 621 q 291 588 338 621 q 217 497 243 555 q 190 361 190 438 q 219 223 190 283 q 299 131 248 164 q 416 98 350 98 q 512 117 463 98 q 601 170 562 136 l 644 65 q 538 11 602 33 q 414 -11 475 -11 m 401 798 l 205 1005 l 293 1084 l 457 848 l 401 798 z "},"ẻ":{"ha":781,"x_min":79,"x_max":703,"o":"m 414 -11 q 239 36 315 -11 q 121 167 163 83 q 79 361 79 251 q 119 553 79 470 q 233 683 160 636 q 400 730 305 730 q 557 688 489 730 q 664 572 625 646 q 703 400 703 498 q 701 355 703 380 q 694 313 699 331 l 168 313 l 168 408 l 589 408 q 564 519 589 471 q 497 594 540 567 q 399 621 454 621 q 291 588 338 621 q 217 497 243 555 q 190 361 190 438 q 219 223 190 283 q 299 131 248 164 q 416 98 350 98 q 512 117 463 98 q 601 170 562 136 l 644 65 q 538 11 602 33 q 414 -11 475 -11 m 419 798 l 372 848 q 413 882 396 861 q 430 925 430 902 q 413 962 430 949 q 363 975 395 975 q 328 971 349 975 q 290 962 306 968 l 290 1039 q 331 1049 306 1045 q 373 1053 356 1053 q 471 1023 435 1053 q 507 939 507 994 q 481 853 507 893 q 419 798 455 814 z "},"ȇ":{"ha":781,"x_min":79,"x_max":703,"o":"m 414 -11 q 239 36 315 -11 q 121 167 163 83 q 79 361 79 251 q 119 553 79 470 q 233 683 160 636 q 400 730 305 730 q 557 688 489 730 q 664 572 625 646 q 703 400 703 498 q 701 355 703 380 q 694 313 699 331 l 168 313 l 168 408 l 589 408 q 564 519 589 471 q 497 594 540 567 q 399 621 454 621 q 291 588 338 621 q 217 497 243 555 q 190 361 190 438 q 219 223 190 283 q 299 131 248 164 q 416 98 350 98 q 512 117 463 98 q 601 170 562 136 l 644 65 q 538 11 602 33 q 414 -11 475 -11 m 399 1034 q 511 1006 462 1034 q 589 931 560 979 q 617 825 618 884 l 536 825 q 497 922 535 883 q 399 960 459 960 q 301 922 340 960 q 263 825 262 883 l 182 825 q 211 931 182 884 q 289 1006 239 979 q 399 1034 338 1034 z "},"ē":{"ha":781,"x_min":79,"x_max":703,"o":"m 414 -11 q 239 36 315 -11 q 121 167 163 83 q 79 361 79 251 q 119 553 79 470 q 233 683 160 636 q 400 730 305 730 q 557 688 489 730 q 664 572 625 646 q 703 400 703 498 q 701 355 703 380 q 694 313 699 331 l 168 313 l 168 408 l 589 408 q 564 519 589 471 q 497 594 540 567 q 399 621 454 621 q 291 588 338 621 q 217 497 243 555 q 190 361 190 438 q 219 223 190 283 q 299 131 248 164 q 416 98 350 98 q 512 117 463 98 q 601 170 562 136 l 644 65 q 538 11 602 33 q 414 -11 475 -11 m 163 875 l 163 952 l 635 952 l 635 875 l 163 875 z "},"ḗ":{"ha":781,"x_min":79,"x_max":703,"o":"m 414 -11 q 239 36 315 -11 q 121 167 163 83 q 79 361 79 251 q 119 553 79 470 q 233 683 160 636 q 400 730 305 730 q 557 688 489 730 q 664 572 625 646 q 703 400 703 498 q 701 355 703 380 q 694 313 699 331 l 168 313 l 168 408 l 589 408 q 564 519 589 471 q 497 594 540 567 q 399 621 454 621 q 291 588 338 621 q 217 497 243 555 q 190 361 190 438 q 219 223 190 283 q 299 131 248 164 q 416 98 350 98 q 512 117 463 98 q 601 170 562 136 l 644 65 q 538 11 602 33 q 414 -11 475 -11 m 163 875 l 163 952 l 635 952 l 635 875 l 163 875 m 399 1028 l 343 1078 l 507 1314 l 595 1236 l 399 1028 z "},"ḕ":{"ha":781,"x_min":79,"x_max":703,"o":"m 414 -11 q 239 36 315 -11 q 121 167 163 83 q 79 361 79 251 q 119 553 79 470 q 233 683 160 636 q 400 730 305 730 q 557 688 489 730 q 664 572 625 646 q 703 400 703 498 q 701 355 703 380 q 694 313 699 331 l 168 313 l 168 408 l 589 408 q 564 519 589 471 q 497 594 540 567 q 399 621 454 621 q 291 588 338 621 q 217 497 243 555 q 190 361 190 438 q 219 223 190 283 q 299 131 248 164 q 416 98 350 98 q 512 117 463 98 q 601 170 562 136 l 644 65 q 538 11 602 33 q 414 -11 475 -11 m 163 875 l 163 952 l 635 952 l 635 875 l 163 875 m 401 1028 l 205 1236 l 293 1314 l 457 1078 l 401 1028 z "},"ę":{"ha":781,"x_min":79,"x_max":703,"o":"m 414 -11 q 239 36 315 -11 q 121 167 163 83 q 79 361 79 251 q 119 553 79 470 q 233 683 160 636 q 400 730 305 730 q 557 688 489 730 q 664 572 625 646 q 703 400 703 498 q 701 355 703 380 q 694 313 699 331 l 168 313 l 168 408 l 589 408 q 564 519 589 471 q 497 594 540 567 q 399 621 454 621 q 291 588 338 621 q 217 497 243 555 q 190 361 190 438 q 219 223 190 283 q 299 131 248 164 q 416 98 350 98 q 512 117 463 98 q 601 170 562 136 l 644 65 q 538 11 602 33 q 414 -11 475 -11 m 566 -213 q 481 -180 514 -213 q 448 -96 448 -148 q 485 -1 448 -43 q 579 90 522 42 l 644 65 q 590 15 616 39 q 545 -33 563 -9 q 528 -85 528 -58 q 544 -124 528 -110 q 586 -138 561 -138 q 629 -130 606 -138 q 662 -113 651 -121 l 662 -187 q 618 -205 647 -198 q 566 -213 589 -213 z "},"ẽ":{"ha":781,"x_min":79,"x_max":703,"o":"m 414 -11 q 239 36 315 -11 q 121 167 163 83 q 79 361 79 251 q 119 553 79 470 q 233 683 160 636 q 400 730 305 730 q 557 688 489 730 q 664 572 625 646 q 703 400 703 498 q 701 355 703 380 q 694 313 699 331 l 168 313 l 168 408 l 589 408 q 564 519 589 471 q 497 594 540 567 q 399 621 454 621 q 291 588 338 621 q 217 497 243 555 q 190 361 190 438 q 219 223 190 283 q 299 131 248 164 q 416 98 350 98 q 512 117 463 98 q 601 170 562 136 l 644 65 q 538 11 602 33 q 414 -11 475 -11 m 176 827 q 214 957 176 917 q 308 997 252 997 q 369 984 345 997 q 412 953 394 970 q 447 922 430 935 q 486 909 465 909 q 529 933 513 909 q 543 997 544 958 l 624 997 q 586 869 624 911 q 492 827 549 827 q 434 841 458 827 q 391 873 410 855 q 354 906 372 892 q 313 920 336 920 q 272 895 287 920 q 256 827 258 870 l 176 827 z "},"ə":{"ha":781,"x_min":73,"x_max":713,"o":"m 384 -11 q 223 32 294 -11 q 113 149 153 75 q 73 319 73 223 q 76 369 73 347 q 81 406 79 391 l 624 406 l 624 311 l 187 311 q 212 204 187 252 q 281 126 237 155 q 385 98 326 98 q 497 130 448 98 q 574 221 546 163 q 602 358 602 280 q 573 496 602 437 q 491 588 544 555 q 366 621 437 621 q 289 610 324 621 q 225 582 254 599 q 178 549 197 566 l 134 655 q 236 708 175 686 q 369 730 298 730 q 547 684 469 730 q 669 555 625 638 q 713 358 713 471 q 670 163 713 245 q 552 35 627 80 q 384 -11 477 -11 z "},"f":{"ha":781,"x_min":98,"x_max":722,"o":"m 279 0 l 279 791 q 311 937 279 877 q 398 1029 342 998 q 526 1061 454 1061 q 624 1046 571 1061 q 722 1005 677 1031 l 678 906 q 606 943 643 930 q 538 955 568 955 q 436 915 475 955 q 396 795 396 876 l 396 0 l 279 0 m 98 613 l 98 719 l 680 719 l 680 613 l 98 613 z "},"g":{"ha":781,"x_min":68,"x_max":678,"o":"m 368 -296 q 234 -275 298 -296 q 130 -227 169 -254 l 172 -123 q 253 -169 201 -149 q 357 -190 305 -190 q 450 -170 402 -190 q 531 -104 498 -149 q 564 16 564 -58 l 564 111 l 545 111 l 568 175 l 568 562 l 537 628 l 562 628 l 562 719 l 678 719 l 678 22 q 652 -122 678 -62 q 582 -221 626 -182 q 481 -277 537 -259 q 368 -296 426 -296 m 361 -3 q 251 23 303 -3 q 157 97 198 49 q 92 213 115 145 q 68 366 68 281 q 110 562 68 481 q 220 687 152 644 q 366 730 288 730 q 508 684 446 730 q 605 557 570 639 q 640 369 640 476 q 604 177 640 261 q 504 45 567 94 q 361 -3 440 -3 m 380 106 q 476 139 433 106 q 543 232 518 173 q 567 369 567 292 q 543 502 567 446 q 476 590 518 559 q 380 621 433 621 q 280 589 323 621 q 212 499 237 557 q 187 366 187 441 q 212 232 187 291 q 281 140 237 174 q 380 106 324 106 z "},"ǵ":{"ha":781,"x_min":68,"x_max":678,"o":"m 368 -296 q 234 -275 298 -296 q 130 -227 169 -254 l 172 -123 q 253 -169 201 -149 q 357 -190 305 -190 q 450 -170 402 -190 q 531 -104 498 -149 q 564 16 564 -58 l 564 111 l 545 111 l 568 175 l 568 562 l 537 628 l 562 628 l 562 719 l 678 719 l 678 22 q 652 -122 678 -62 q 582 -221 626 -182 q 481 -277 537 -259 q 368 -296 426 -296 m 361 -3 q 251 23 303 -3 q 157 97 198 49 q 92 213 115 145 q 68 366 68 281 q 110 562 68 481 q 220 687 152 644 q 366 730 288 730 q 508 684 446 730 q 605 557 570 639 q 640 369 640 476 q 604 177 640 261 q 504 45 567 94 q 361 -3 440 -3 m 380 106 q 476 139 433 106 q 543 232 518 173 q 567 369 567 292 q 543 502 567 446 q 476 590 518 559 q 380 621 433 621 q 280 589 323 621 q 212 499 237 557 q 187 366 187 441 q 212 232 187 291 q 281 140 237 174 q 380 106 324 106 m 378 798 l 323 848 l 487 1084 l 575 1005 l 378 798 z "},"ğ":{"ha":781,"x_min":68,"x_max":678,"o":"m 368 -296 q 234 -275 298 -296 q 130 -227 169 -254 l 172 -123 q 253 -169 201 -149 q 357 -190 305 -190 q 450 -170 402 -190 q 531 -104 498 -149 q 564 16 564 -58 l 564 111 l 545 111 l 568 175 l 568 562 l 537 628 l 562 628 l 562 719 l 678 719 l 678 22 q 652 -122 678 -62 q 582 -221 626 -182 q 481 -277 537 -259 q 368 -296 426 -296 m 361 -3 q 251 23 303 -3 q 157 97 198 49 q 92 213 115 145 q 68 366 68 281 q 110 562 68 481 q 220 687 152 644 q 366 730 288 730 q 508 684 446 730 q 605 557 570 639 q 640 369 640 476 q 604 177 640 261 q 504 45 567 94 q 361 -3 440 -3 m 380 106 q 476 139 433 106 q 543 232 518 173 q 567 369 567 292 q 543 502 567 446 q 476 590 518 559 q 380 621 433 621 q 280 589 323 621 q 212 499 237 557 q 187 366 187 441 q 212 232 187 291 q 281 140 237 174 q 380 106 324 106 m 378 822 q 269 849 318 822 q 190 924 219 877 q 161 1031 161 971 l 243 1031 q 281 934 242 973 q 378 895 320 895 q 477 934 439 895 q 515 1031 515 973 l 597 1031 q 569 924 597 971 q 491 849 540 877 q 378 822 441 822 z "},"ǧ":{"ha":781,"x_min":68,"x_max":678,"o":"m 368 -296 q 234 -275 298 -296 q 130 -227 169 -254 l 172 -123 q 253 -169 201 -149 q 357 -190 305 -190 q 450 -170 402 -190 q 531 -104 498 -149 q 564 16 564 -58 l 564 111 l 545 111 l 568 175 l 568 562 l 537 628 l 562 628 l 562 719 l 678 719 l 678 22 q 652 -122 678 -62 q 582 -221 626 -182 q 481 -277 537 -259 q 368 -296 426 -296 m 361 -3 q 251 23 303 -3 q 157 97 198 49 q 92 213 115 145 q 68 366 68 281 q 110 562 68 481 q 220 687 152 644 q 366 730 288 730 q 508 684 446 730 q 605 557 570 639 q 640 369 640 476 q 604 177 640 261 q 504 45 567 94 q 361 -3 440 -3 m 380 106 q 476 139 433 106 q 543 232 518 173 q 567 369 567 292 q 543 502 567 446 q 476 590 518 559 q 380 621 433 621 q 280 589 323 621 q 212 499 237 557 q 187 366 187 441 q 212 232 187 291 q 281 140 237 174 q 380 106 324 106 m 216 1055 l 378 897 l 384 897 l 543 1055 l 595 997 l 395 806 l 363 806 l 163 997 l 216 1055 z "},"ĝ":{"ha":781,"x_min":68,"x_max":678,"o":"m 368 -296 q 234 -275 298 -296 q 130 -227 169 -254 l 172 -123 q 253 -169 201 -149 q 357 -190 305 -190 q 450 -170 402 -190 q 531 -104 498 -149 q 564 16 564 -58 l 564 111 l 545 111 l 568 175 l 568 562 l 537 628 l 562 628 l 562 719 l 678 719 l 678 22 q 652 -122 678 -62 q 582 -221 626 -182 q 481 -277 537 -259 q 368 -296 426 -296 m 361 -3 q 251 23 303 -3 q 157 97 198 49 q 92 213 115 145 q 68 366 68 281 q 110 562 68 481 q 220 687 152 644 q 366 730 288 730 q 508 684 446 730 q 605 557 570 639 q 640 369 640 476 q 604 177 640 261 q 504 45 567 94 q 361 -3 440 -3 m 380 106 q 476 139 433 106 q 543 232 518 173 q 567 369 567 292 q 543 502 567 446 q 476 590 518 559 q 380 621 433 621 q 280 589 323 621 q 212 499 237 557 q 187 366 187 441 q 212 232 187 291 q 281 140 237 174 q 380 106 324 106 m 214 803 l 161 861 l 362 1053 l 393 1053 l 594 861 l 541 803 l 382 962 l 377 962 l 214 803 z "},"ģ":{"ha":781,"x_min":68,"x_max":678,"o":"m 368 -296 q 234 -275 298 -296 q 130 -227 169 -254 l 172 -123 q 253 -169 201 -149 q 357 -190 305 -190 q 450 -170 402 -190 q 531 -104 498 -149 q 564 16 564 -58 l 564 111 l 545 111 l 568 175 l 568 562 l 537 628 l 562 628 l 562 719 l 678 719 l 678 22 q 652 -122 678 -62 q 582 -221 626 -182 q 481 -277 537 -259 q 368 -296 426 -296 m 361 -3 q 251 23 303 -3 q 157 97 198 49 q 92 213 115 145 q 68 366 68 281 q 110 562 68 481 q 220 687 152 644 q 366 730 288 730 q 508 684 446 730 q 605 557 570 639 q 640 369 640 476 q 604 177 640 261 q 504 45 567 94 q 361 -3 440 -3 m 380 106 q 476 139 433 106 q 543 232 518 173 q 567 369 567 292 q 543 502 567 446 q 476 590 518 559 q 380 621 433 621 q 280 589 323 621 q 212 499 237 557 q 187 366 187 441 q 212 232 187 291 q 281 140 237 174 q 380 106 324 106 m 423 1095 l 456 1058 l 404 1005 q 376 972 387 987 q 360 946 365 958 q 355 922 355 934 l 335 920 q 347 944 338 933 q 374 955 355 955 q 419 936 398 955 q 441 886 441 916 q 420 836 441 854 q 374 817 400 817 q 325 838 345 817 q 305 897 305 859 q 317 954 305 927 q 344 1001 329 981 q 369 1032 359 1021 l 423 1095 z "},"ġ":{"ha":781,"x_min":68,"x_max":678,"o":"m 368 -296 q 234 -275 298 -296 q 130 -227 169 -254 l 172 -123 q 253 -169 201 -149 q 357 -190 305 -190 q 450 -170 402 -190 q 531 -104 498 -149 q 564 16 564 -58 l 564 111 l 545 111 l 568 175 l 568 562 l 537 628 l 562 628 l 562 719 l 678 719 l 678 22 q 652 -122 678 -62 q 582 -221 626 -182 q 481 -277 537 -259 q 368 -296 426 -296 m 361 -3 q 251 23 303 -3 q 157 97 198 49 q 92 213 115 145 q 68 366 68 281 q 110 562 68 481 q 220 687 152 644 q 366 730 288 730 q 508 684 446 730 q 605 557 570 639 q 640 369 640 476 q 604 177 640 261 q 504 45 567 94 q 361 -3 440 -3 m 380 106 q 476 139 433 106 q 543 232 518 173 q 567 369 567 292 q 543 502 567 446 q 476 590 518 559 q 380 621 433 621 q 280 589 323 621 q 212 499 237 557 q 187 366 187 441 q 212 232 187 291 q 281 140 237 174 q 380 106 324 106 m 380 834 q 317 860 342 834 q 292 922 292 885 q 317 985 292 960 q 380 1010 342 1010 q 443 985 417 1010 q 468 922 468 960 q 443 860 468 885 q 380 834 417 834 z "},"ḡ":{"ha":781,"x_min":68,"x_max":678,"o":"m 368 -296 q 234 -275 298 -296 q 130 -227 169 -254 l 172 -123 q 253 -169 201 -149 q 357 -190 305 -190 q 450 -170 402 -190 q 531 -104 498 -149 q 564 16 564 -58 l 564 111 l 545 111 l 568 175 l 568 562 l 537 628 l 562 628 l 562 719 l 678 719 l 678 22 q 652 -122 678 -62 q 582 -221 626 -182 q 481 -277 537 -259 q 368 -296 426 -296 m 361 -3 q 251 23 303 -3 q 157 97 198 49 q 92 213 115 145 q 68 366 68 281 q 110 562 68 481 q 220 687 152 644 q 366 730 288 730 q 508 684 446 730 q 605 557 570 639 q 640 369 640 476 q 604 177 640 261 q 504 45 567 94 q 361 -3 440 -3 m 380 106 q 476 139 433 106 q 543 232 518 173 q 567 369 567 292 q 543 502 567 446 q 476 590 518 559 q 380 621 433 621 q 280 589 323 621 q 212 499 237 557 q 187 366 187 441 q 212 232 187 291 q 281 140 237 174 q 380 106 324 106 m 142 875 l 142 952 l 614 952 l 614 875 l 142 875 z "},"h":{"ha":781,"x_min":106,"x_max":678,"o":"m 106 0 l 106 1044 l 222 1044 l 222 636 l 250 636 l 199 583 q 249 662 214 629 q 332 712 283 695 q 435 730 380 730 q 573 689 519 730 q 652 586 627 648 q 678 461 678 524 l 678 0 l 562 0 l 562 437 q 516 575 562 528 q 400 621 471 621 q 312 601 352 621 q 247 539 271 580 q 222 437 222 498 l 222 0 l 106 0 z "},"ħ":{"ha":781,"x_min":-18,"x_max":678,"o":"m 106 0 l 106 1044 l 222 1044 l 222 636 l 250 636 l 199 583 q 249 662 214 629 q 332 712 283 695 q 435 730 380 730 q 573 689 519 730 q 652 586 627 648 q 678 461 678 524 l 678 0 l 562 0 l 562 437 q 516 575 562 528 q 400 621 471 621 q 312 601 352 621 q 247 539 271 580 q 222 437 222 498 l 222 0 l 106 0 m -18 817 l -18 911 l 354 911 l 354 817 l -18 817 z "},"ḫ":{"ha":781,"x_min":106,"x_max":678,"o":"m 106 0 l 106 1044 l 222 1044 l 222 636 l 250 636 l 199 583 q 249 662 214 629 q 332 712 283 695 q 435 730 380 730 q 573 689 519 730 q 652 586 627 648 q 678 461 678 524 l 678 0 l 562 0 l 562 437 q 516 575 562 528 q 400 621 471 621 q 312 601 352 621 q 247 539 271 580 q 222 437 222 498 l 222 0 l 106 0 m 389 -289 q 279 -261 329 -289 q 201 -187 230 -234 q 172 -80 172 -140 l 254 -80 q 292 -177 253 -138 q 389 -216 331 -216 q 488 -177 450 -216 q 526 -80 526 -138 l 608 -80 q 579 -187 608 -140 q 502 -261 551 -234 q 389 -289 452 -289 z "},"ĥ":{"ha":781,"x_min":-57,"x_max":678,"o":"m 106 0 l 106 1044 l 222 1044 l 222 636 l 250 636 l 199 583 q 249 662 214 629 q 332 712 283 695 q 435 730 380 730 q 573 689 519 730 q 652 586 627 648 q 678 461 678 524 l 678 0 l 562 0 l 562 437 q 516 575 562 528 q 400 621 471 621 q 312 601 352 621 q 247 539 271 580 q 222 437 222 498 l 222 0 l 106 0 m 1 1081 l -57 1145 l 152 1298 l 183 1298 l 391 1145 l 332 1081 l 170 1211 l 164 1211 l 1 1081 z "},"ḥ":{"ha":781,"x_min":106,"x_max":678,"o":"m 106 0 l 106 1044 l 222 1044 l 222 636 l 250 636 l 199 583 q 249 662 214 629 q 332 712 283 695 q 435 730 380 730 q 573 689 519 730 q 652 586 627 648 q 678 461 678 524 l 678 0 l 562 0 l 562 437 q 516 575 562 528 q 400 621 471 621 q 312 601 352 621 q 247 539 271 580 q 222 437 222 498 l 222 0 l 106 0 m 391 -267 q 328 -242 353 -267 q 302 -179 302 -216 q 328 -116 302 -142 q 391 -91 353 -91 q 453 -116 428 -91 q 479 -179 479 -142 q 453 -242 479 -216 q 391 -267 428 -267 z "},"i":{"ha":781,"x_min":146,"x_max":518,"o":"m 369 0 l 369 719 l 486 719 l 486 0 l 369 0 m 146 613 l 146 719 l 486 719 l 486 613 l 146 613 m 430 834 q 367 860 393 834 q 342 922 342 885 q 367 985 342 960 q 430 1010 393 1010 q 493 985 467 1010 q 518 922 518 960 q 493 860 518 885 q 430 834 467 834 z "},"ı":{"ha":781,"x_min":146,"x_max":486,"o":"m 369 0 l 369 719 l 486 719 l 486 0 l 369 0 m 146 613 l 146 719 l 486 719 l 486 613 l 146 613 z "},"í":{"ha":781,"x_min":146,"x_max":625,"o":"m 369 0 l 369 719 l 486 719 l 486 0 l 369 0 m 146 613 l 146 719 l 486 719 l 486 613 l 146 613 m 429 798 l 373 848 l 537 1084 l 625 1005 l 429 798 z "},"ĭ":{"ha":781,"x_min":146,"x_max":648,"o":"m 369 0 l 369 719 l 486 719 l 486 0 l 369 0 m 146 613 l 146 719 l 486 719 l 486 613 l 146 613 m 429 822 q 319 849 368 822 q 240 924 269 877 q 212 1031 212 971 l 293 1031 q 331 934 292 973 q 429 895 370 895 q 527 934 489 895 q 566 1031 565 973 l 647 1031 q 619 924 648 971 q 541 849 590 877 q 429 822 492 822 z "},"ǐ":{"ha":781,"x_min":146,"x_max":646,"o":"m 369 0 l 369 719 l 486 719 l 486 0 l 369 0 m 146 613 l 146 719 l 486 719 l 486 613 l 146 613 m 266 1055 l 429 897 l 434 897 l 593 1055 l 646 997 l 445 806 l 414 806 l 213 997 l 266 1055 z "},"î":{"ha":781,"x_min":146,"x_max":644,"o":"m 369 0 l 369 719 l 486 719 l 486 0 l 369 0 m 146 613 l 146 719 l 486 719 l 486 613 l 146 613 m 264 803 l 212 861 l 412 1053 l 444 1053 l 644 861 l 591 803 l 433 962 l 427 962 l 264 803 z "},"ȉ":{"ha":781,"x_min":146,"x_max":600,"o":"m 369 0 l 369 719 l 486 719 l 486 0 l 369 0 m 146 613 l 146 719 l 486 719 l 486 613 l 146 613 m 533 803 l 381 1042 l 465 1086 l 600 822 l 533 803 m 327 803 l 172 1042 l 255 1086 l 391 822 l 327 803 z "},"ï":{"ha":781,"x_min":146,"x_max":651,"o":"m 369 0 l 369 719 l 486 719 l 486 0 l 369 0 m 146 613 l 146 719 l 486 719 l 486 613 l 146 613 m 566 842 q 505 867 530 842 q 480 928 480 892 q 505 989 480 964 q 566 1013 530 1013 q 627 989 602 1013 q 651 928 651 964 q 627 867 651 892 q 566 842 602 842 m 294 842 q 234 867 259 842 q 209 928 209 892 q 234 989 209 964 q 294 1013 259 1013 q 355 989 331 1013 q 380 928 380 964 q 355 867 380 892 q 294 842 331 842 z "},"ḯ":{"ha":781,"x_min":146,"x_max":651,"o":"m 369 0 l 369 719 l 486 719 l 486 0 l 369 0 m 146 613 l 146 719 l 486 719 l 486 613 l 146 613 m 566 842 q 505 867 530 842 q 480 928 480 892 q 505 989 480 964 q 566 1013 530 1013 q 627 989 602 1013 q 651 928 651 964 q 627 867 651 892 q 566 842 602 842 m 294 842 q 234 867 259 842 q 209 928 209 892 q 234 989 209 964 q 294 1013 259 1013 q 355 989 331 1013 q 380 928 380 964 q 355 867 380 892 q 294 842 331 842 m 429 1042 l 373 1092 l 537 1328 l 625 1249 l 429 1042 z "},"ị":{"ha":781,"x_min":146,"x_max":519,"o":"m 369 0 l 369 719 l 486 719 l 486 0 l 369 0 m 146 613 l 146 719 l 486 719 l 486 613 l 146 613 m 430 834 q 367 860 393 834 q 342 922 342 885 q 367 985 342 960 q 430 1010 393 1010 q 493 985 467 1010 q 518 922 518 960 q 493 860 518 885 q 430 834 467 834 m 431 -267 q 369 -242 394 -267 q 343 -179 343 -216 q 369 -116 343 -142 q 431 -91 394 -91 q 494 -116 469 -91 q 519 -179 519 -142 q 494 -242 519 -216 q 431 -267 469 -267 z "},"ì":{"ha":781,"x_min":146,"x_max":487,"o":"m 369 0 l 369 719 l 486 719 l 486 0 l 369 0 m 146 613 l 146 719 l 486 719 l 486 613 l 146 613 m 431 798 l 235 1005 l 323 1084 l 487 848 l 431 798 z "},"ỉ":{"ha":781,"x_min":146,"x_max":537,"o":"m 369 0 l 369 719 l 486 719 l 486 0 l 369 0 m 146 613 l 146 719 l 486 719 l 486 613 l 146 613 m 449 798 l 401 848 q 443 882 426 861 q 460 925 460 902 q 443 962 460 949 q 393 975 425 975 q 357 971 379 975 q 320 962 336 968 l 320 1039 q 361 1049 336 1045 q 403 1053 386 1053 q 501 1023 465 1053 q 537 939 537 994 q 511 853 537 893 q 449 798 485 814 z "},"ȋ":{"ha":781,"x_min":146,"x_max":648,"o":"m 369 0 l 369 719 l 486 719 l 486 0 l 369 0 m 146 613 l 146 719 l 486 719 l 486 613 l 146 613 m 429 1034 q 541 1006 492 1034 q 619 931 590 979 q 647 825 648 884 l 566 825 q 527 922 565 883 q 429 960 489 960 q 331 922 370 960 q 293 825 292 883 l 212 825 q 240 931 212 884 q 319 1006 269 979 q 429 1034 368 1034 z "},"ī":{"ha":781,"x_min":146,"x_max":665,"o":"m 369 0 l 369 719 l 486 719 l 486 0 l 369 0 m 146 613 l 146 719 l 486 719 l 486 613 l 146 613 m 193 875 l 193 952 l 665 952 l 665 875 l 193 875 z "},"į":{"ha":781,"x_min":146,"x_max":518,"o":"m 369 0 l 369 719 l 486 719 l 486 0 l 369 0 m 146 613 l 146 719 l 486 719 l 486 613 l 146 613 m 430 834 q 367 860 393 834 q 342 922 342 885 q 367 985 342 960 q 430 1010 393 1010 q 493 985 467 1010 q 518 922 518 960 q 493 860 518 885 q 430 834 467 834 m 407 -278 q 322 -245 355 -278 q 289 -161 289 -213 q 326 -66 289 -109 q 420 24 363 -23 l 486 0 q 431 -50 458 -26 q 387 -98 404 -74 q 369 -151 369 -123 q 386 -189 369 -175 q 427 -203 402 -203 q 470 -195 448 -203 q 503 -178 492 -186 l 503 -252 q 459 -271 488 -263 q 407 -278 431 -278 z "},"ĩ":{"ha":781,"x_min":146,"x_max":654,"o":"m 369 0 l 369 719 l 486 719 l 486 0 l 369 0 m 146 613 l 146 719 l 486 719 l 486 613 l 146 613 m 206 827 q 244 957 206 917 q 338 997 282 997 q 399 984 374 997 q 442 953 424 970 q 477 922 460 935 q 515 909 494 909 q 558 933 543 909 q 572 997 574 958 l 654 997 q 616 869 654 911 q 522 827 578 827 q 464 841 488 827 q 420 873 439 855 q 384 906 401 892 q 343 920 366 920 q 302 895 317 920 q 286 827 288 870 l 206 827 z "},"j":{"ha":781,"x_min":71,"x_max":594,"o":"m 290 -296 q 175 -279 229 -296 q 71 -235 121 -263 l 114 -130 q 198 -172 152 -157 q 288 -187 244 -187 q 370 -170 334 -187 q 427 -121 406 -153 q 448 -46 448 -90 l 448 719 l 564 719 l 564 -58 q 551 -140 564 -102 q 514 -206 538 -177 q 456 -255 490 -235 q 380 -285 422 -275 q 290 -296 338 -296 m 203 613 l 203 719 l 564 719 l 564 613 l 203 613 m 506 834 q 443 860 469 834 q 418 922 418 885 q 443 985 418 960 q 506 1010 469 1010 q 569 985 543 1010 q 594 922 594 960 q 569 860 594 885 q 506 834 543 834 z "},"ȷ":{"ha":781,"x_min":71,"x_max":564,"o":"m 290 -296 q 175 -279 229 -296 q 71 -235 121 -263 l 114 -130 q 198 -172 152 -157 q 288 -187 244 -187 q 370 -170 334 -187 q 427 -121 406 -153 q 448 -46 448 -90 l 448 719 l 564 719 l 564 -58 q 551 -140 564 -102 q 514 -206 538 -177 q 456 -255 490 -235 q 380 -285 422 -275 q 290 -296 338 -296 m 203 613 l 203 719 l 564 719 l 564 613 l 203 613 z "},"ĵ":{"ha":781,"x_min":71,"x_max":720,"o":"m 290 -296 q 175 -279 229 -296 q 71 -235 121 -263 l 114 -130 q 198 -172 152 -157 q 288 -187 244 -187 q 370 -170 334 -187 q 427 -121 406 -153 q 448 -46 448 -90 l 448 719 l 564 719 l 564 -58 q 551 -140 564 -102 q 514 -206 538 -177 q 456 -255 490 -235 q 380 -285 422 -275 q 290 -296 338 -296 m 203 613 l 203 719 l 564 719 l 564 613 l 203 613 m 340 803 l 288 861 l 488 1053 l 519 1053 l 720 861 l 667 803 l 509 962 l 503 962 l 340 803 z "},"k":{"ha":781,"x_min":127,"x_max":741,"o":"m 127 0 l 127 1044 l 244 1044 l 244 425 l 304 425 l 252 395 l 568 719 l 719 719 l 353 345 l 353 408 l 741 0 l 590 0 l 252 358 l 304 326 l 244 326 l 244 0 l 127 0 z "},"ķ":{"ha":781,"x_min":127,"x_max":741,"o":"m 127 0 l 127 1044 l 244 1044 l 244 425 l 304 425 l 252 395 l 568 719 l 719 719 l 353 345 l 353 408 l 741 0 l 590 0 l 252 358 l 304 326 l 244 326 l 244 0 l 127 0 m 368 -373 l 335 -336 l 387 -283 q 415 -251 404 -265 q 431 -224 427 -237 q 435 -201 436 -212 l 456 -198 q 445 -222 453 -211 q 416 -233 436 -233 q 372 -214 393 -233 q 350 -164 350 -195 q 371 -114 350 -132 q 416 -95 391 -95 q 466 -116 446 -95 q 486 -175 486 -137 q 474 -232 486 -205 q 447 -279 463 -259 q 422 -311 432 -300 l 368 -373 z "},"ĸ":{"ha":781,"x_min":119,"x_max":743,"o":"m 119 0 l 119 719 l 236 719 l 236 411 l 296 411 l 243 381 l 570 719 l 719 719 l 345 331 l 345 395 l 743 0 l 593 0 l 243 345 l 296 311 l 236 311 l 236 0 l 119 0 z "},"l":{"ha":781,"x_min":236,"x_max":694,"o":"m 484 -11 q 353 19 409 -11 q 267 103 298 50 q 236 227 236 157 l 236 1044 l 353 1044 l 353 239 q 388 137 353 177 q 487 98 424 98 q 575 116 531 98 q 650 160 618 135 l 694 53 q 595 7 650 24 q 484 -11 541 -11 z "},"ĺ":{"ha":781,"x_min":236,"x_max":694,"o":"m 484 -11 q 353 19 409 -11 q 267 103 298 50 q 236 227 236 157 l 236 1044 l 353 1044 l 353 239 q 388 137 353 177 q 487 98 424 98 q 575 116 531 98 q 650 160 618 135 l 694 53 q 595 7 650 24 q 484 -11 541 -11 m 293 1123 l 237 1173 l 401 1409 l 490 1331 l 293 1123 z "},"ľ":{"ha":781,"x_min":236,"x_max":694,"o":"m 484 -11 q 353 19 409 -11 q 267 103 298 50 q 236 227 236 157 l 236 1044 l 353 1044 l 353 239 q 388 137 353 177 q 487 98 424 98 q 575 116 531 98 q 650 160 618 135 l 694 53 q 595 7 650 24 q 484 -11 541 -11 m 506 739 l 509 1044 l 604 1044 l 590 739 l 506 739 z "},"ļ":{"ha":781,"x_min":236,"x_max":694,"o":"m 484 -11 q 353 19 409 -11 q 267 103 298 50 q 236 227 236 157 l 236 1044 l 353 1044 l 353 239 q 388 137 353 177 q 487 98 424 98 q 575 116 531 98 q 650 160 618 135 l 694 53 q 595 7 650 24 q 484 -11 541 -11 m 414 -373 l 381 -336 l 433 -283 q 461 -251 450 -265 q 477 -224 473 -237 q 481 -201 482 -212 l 502 -198 q 491 -222 499 -211 q 463 -233 482 -233 q 418 -214 439 -233 q 396 -164 396 -195 q 417 -114 396 -132 q 463 -95 437 -95 q 512 -116 492 -95 q 532 -175 532 -137 q 520 -232 532 -205 q 493 -279 509 -259 q 468 -311 478 -300 l 414 -373 z "},"ŀ":{"ha":781,"x_min":236,"x_max":811,"o":"m 484 -11 q 353 19 409 -11 q 267 103 298 50 q 236 227 236 157 l 236 1044 l 353 1044 l 353 239 q 388 137 353 177 q 487 98 424 98 q 575 116 531 98 q 650 160 618 135 l 694 53 q 595 7 650 24 q 484 -11 541 -11 m 711 422 q 640 451 669 422 q 610 524 610 480 q 639 594 610 566 q 711 623 668 623 q 782 594 753 623 q 811 524 811 566 q 782 451 811 480 q 711 422 753 422 z "},"ḷ":{"ha":781,"x_min":236,"x_max":694,"o":"m 484 -11 q 353 19 409 -11 q 267 103 298 50 q 236 227 236 157 l 236 1044 l 353 1044 l 353 239 q 388 137 353 177 q 487 98 424 98 q 575 116 531 98 q 650 160 618 135 l 694 53 q 595 7 650 24 q 484 -11 541 -11 m 456 -267 q 393 -242 418 -267 q 368 -179 368 -216 q 393 -116 368 -142 q 456 -91 418 -91 q 518 -116 493 -91 q 544 -179 544 -142 q 518 -242 544 -216 q 456 -267 493 -267 z "},"ḹ":{"ha":781,"x_min":57,"x_max":694,"o":"m 484 -11 q 353 19 409 -11 q 267 103 298 50 q 236 227 236 157 l 236 1044 l 353 1044 l 353 239 q 388 137 353 177 q 487 98 424 98 q 575 116 531 98 q 650 160 618 135 l 694 53 q 595 7 650 24 q 484 -11 541 -11 m 456 -267 q 393 -242 418 -267 q 368 -179 368 -216 q 393 -116 368 -142 q 456 -91 418 -91 q 518 -116 493 -91 q 544 -179 544 -142 q 518 -242 544 -216 q 456 -267 493 -267 m 57 1200 l 57 1278 l 529 1278 l 529 1200 l 57 1200 z "},"ǉ":{"ha":781,"x_min":123,"x_max":722,"o":"m 494 -296 q 401 -279 450 -296 q 321 -236 353 -262 l 357 -145 q 419 -183 383 -168 q 487 -198 456 -198 q 561 -165 532 -198 q 589 -81 589 -133 l 589 719 l 684 719 l 684 -91 q 631 -239 684 -182 q 494 -296 578 -296 m 298 -11 q 170 50 216 -11 q 123 209 123 111 l 123 1044 l 218 1044 l 218 194 q 242 113 218 141 q 304 84 267 84 q 353 94 329 84 q 403 121 378 104 l 437 34 q 377 3 414 17 q 298 -11 340 -11 m 425 618 l 425 719 l 684 719 l 684 618 l 425 618 m 639 842 q 578 867 602 842 q 555 926 555 891 q 579 987 555 963 q 639 1010 604 1010 q 698 987 675 1010 q 722 926 722 963 q 699 867 722 891 q 639 842 675 842 z "},"ḻ":{"ha":781,"x_min":220,"x_max":694,"o":"m 484 -11 q 353 19 409 -11 q 267 103 298 50 q 236 227 236 157 l 236 1044 l 353 1044 l 353 239 q 388 137 353 177 q 487 98 424 98 q 575 116 531 98 q 650 160 618 135 l 694 53 q 595 7 650 24 q 484 -11 541 -11 m 220 -270 l 220 -193 l 692 -193 l 692 -270 l 220 -270 z "},"ł":{"ha":781,"x_min":104,"x_max":694,"o":"m 140 393 l 104 479 l 248 557 l 336 594 l 450 655 l 486 571 l 336 491 l 248 456 l 140 393 m 484 -11 q 353 19 409 -11 q 267 103 298 50 q 236 227 236 157 l 236 1044 l 353 1044 l 353 239 q 388 137 353 177 q 487 98 424 98 q 575 116 531 98 q 650 160 618 135 l 694 53 q 595 7 650 24 q 484 -11 541 -11 z "},"m":{"ha":781,"x_min":57,"x_max":724,"o":"m 57 0 l 57 719 l 164 719 l 164 633 l 179 633 l 153 598 q 207 693 171 656 q 296 730 243 730 q 379 699 342 730 q 427 613 416 668 l 401 640 l 438 640 l 411 613 q 469 697 425 664 q 567 730 513 730 q 633 717 604 730 q 683 679 663 704 q 714 616 703 653 q 724 530 724 578 l 724 0 l 613 0 l 613 528 q 591 596 613 572 q 533 620 570 620 q 471 597 498 620 q 445 528 445 574 l 445 0 l 336 0 l 336 528 q 314 597 336 574 q 255 620 291 620 q 194 596 220 620 q 168 525 168 572 l 168 0 l 57 0 z "}}}
